/* XPM */
static char * 0_xpm[] = {
"32 32 813 2",
"  	c #F3D692",
". 	c #F7D892",
"+ 	c #F5D58F",
"@ 	c #F6D28D",
"# 	c #F6D18D",
"$ 	c #F7D08D",
"% 	c #F7D28E",
"& 	c #F8D48F",
"* 	c #F7D48F",
"= 	c #F7D591",
"- 	c #F7D898",
"; 	c #F6D898",
"> 	c #F5D997",
", 	c #F5D996",
"' 	c #F7D58B",
") 	c #F7D288",
"! 	c #F5CB83",
"~ 	c #F3C880",
"{ 	c #ECC07C",
"] 	c #E9BD7A",
"^ 	c #ECC17B",
"/ 	c #EFC47C",
"( 	c #F6CA82",
"_ 	c #F1C57F",
": 	c #EABE7B",
"< 	c #E8BA78",
"[ 	c #E7B775",
"} 	c #EBBB77",
"| 	c #ECBE79",
"1 	c #F8D996",
"2 	c #FDDB95",
"3 	c #FCD892",
"4 	c #FAD690",
"5 	c #F9D68F",
"6 	c #FAD590",
"7 	c #FCD590",
"8 	c #FCD893",
"9 	c #FBDC98",
"0 	c #FBDD98",
"a 	c #FADD99",
"b 	c #FADC98",
"c 	c #FAD894",
"d 	c #FAD893",
"e 	c #FBD790",
"f 	c #FBD78F",
"g 	c #FBD389",
"h 	c #FAD287",
"i 	c #F6C983",
"j 	c #F4C781",
"k 	c #F0C47D",
"l 	c #F0C37C",
"m 	c #F6C981",
"n 	c #F9CD83",
"o 	c #FACF83",
"p 	c #FACE82",
"q 	c #F5C77F",
"r 	c #EEBF7A",
"s 	c #EEC079",
"t 	c #F1C47C",
"u 	c #F2C67E",
"v 	c #F8D897",
"w 	c #FDDA95",
"x 	c #FDD791",
"y 	c #F7D68F",
"z 	c #FDD691",
"A 	c #FCDA96",
"B 	c #FBDF9B",
"C 	c #FBE09C",
"D 	c #FBE19D",
"E 	c #FADF9A",
"F 	c #FAD691",
"G 	c #F9D58F",
"H 	c #FBD289",
"I 	c #FBD288",
"J 	c #FBD086",
"K 	c #F9CE85",
"L 	c #F3C681",
"M 	c #F1C380",
"N 	c #F1C57C",
"O 	c #F8CC82",
"P 	c #FDD186",
"Q 	c #FCD184",
"R 	c #FACE80",
"S 	c #F4C67D",
"T 	c #EEBD79",
"U 	c #EFC07A",
"V 	c #F0C47B",
"W 	c #F3C77E",
"X 	c #F8D793",
"Y 	c #FCD993",
"Z 	c #F9DA95",
"` 	c #F9DD99",
" .	c #FBDD9A",
"..	c #FCDC9B",
"+.	c #FCDC9A",
"@.	c #FBDC99",
"#.	c #FADB98",
"$.	c #FAD995",
"%.	c #FBD48C",
"&.	c #FAD48B",
"*.	c #F9D187",
"=.	c #F5C982",
"-.	c #F1C27F",
";.	c #F1C280",
">.	c #F6C982",
",.	c #F8CB83",
"'.	c #F8CB81",
").	c #F7C880",
"!.	c #F4C47C",
"~.	c #F1C179",
"{.	c #F3C57B",
"].	c #F4C87E",
"^.	c #F7CB7F",
"/.	c #F5CB7F",
"(.	c #F7D792",
"_.	c #FAD992",
":.	c #F8D690",
"<.	c #F8DC98",
"[.	c #F9E09F",
"}.	c #FBE0A0",
"|.	c #FCE0A0",
"1.	c #FCDD9C",
"2.	c #FBDA97",
"3.	c #FAD48F",
"4.	c #FAD48E",
"5.	c #FCD38A",
"6.	c #F9D288",
"7.	c #F8D187",
"8.	c #F2C680",
"9.	c #F0C37F",
"0.	c #F0C07E",
"a.	c #F2C27F",
"b.	c #F9CB85",
"c.	c #FBCF86",
"d.	c #F8CC83",
"e.	c #F6CA81",
"f.	c #F6C781",
"g.	c #F5C480",
"h.	c #F3C47A",
"i.	c #F5C77C",
"j.	c #F6CA7F",
"k.	c #F8CD80",
"l.	c #F6CC7F",
"m.	c #FBD690",
"n.	c #F8D593",
"o.	c #F5D595",
"p.	c #F7D696",
"q.	c #F9D796",
"r.	c #FBD792",
"s.	c #FAD28B",
"t.	c #FBD28A",
"u.	c #FBD189",
"v.	c #F7CC86",
"w.	c #F6CB84",
"x.	c #EFC27E",
"y.	c #EFC27D",
"z.	c #F5C781",
"A.	c #F7C983",
"B.	c #F2C67F",
"C.	c #EFC27C",
"D.	c #F0C27D",
"E.	c #F2C37E",
"F.	c #F5C57E",
"G.	c #F8C97F",
"H.	c #F8CA7F",
"I.	c #F9CC7F",
"J.	c #FBCD80",
"K.	c #F8CC7F",
"L.	c #F7D38E",
"M.	c #FDD891",
"N.	c #F7D08F",
"O.	c #F2CB8C",
"P.	c #F4CD8D",
"Q.	c #F7D18D",
"R.	c #F9D38E",
"S.	c #FBD58F",
"T.	c #FBD48D",
"U.	c #FBD188",
"V.	c #FBD18B",
"W.	c #FBD08A",
"X.	c #F6C784",
"Y.	c #F5C682",
"Z.	c #EDC07C",
"`.	c #EEC17C",
" +	c #F9CC84",
".+	c #FBCE86",
"++	c #F7CB82",
"@+	c #F5C880",
"#+	c #EEC27B",
"$+	c #EABD79",
"%+	c #ECBF7B",
"&+	c #FCCC82",
"*+	c #FBCC80",
"=+	c #FBCC7E",
"-+	c #FDCD7F",
";+	c #FACC7F",
">+	c #F9D48E",
",+	c #F8D18C",
"'+	c #F4CC89",
")+	c #F1C887",
"!+	c #F7D08B",
"~+	c #FAD38D",
"{+	c #FCD68F",
"]+	c #FAD38C",
"^+	c #F8CD86",
"/+	c #F7CB85",
"(+	c #F4C783",
"_+	c #F4C683",
":+	c #F2C380",
"<+	c #F3C780",
"[+	c #F4C881",
"}+	c #F8CD84",
"|+	c #F9CE84",
"1+	c #F5C87F",
"2+	c #F2C47C",
"3+	c #EFC079",
"4+	c #EDBE79",
"5+	c #EFC07C",
"6+	c #F3C37F",
"7+	c #F7C780",
"8+	c #FBCC82",
"9+	c #FBCE84",
"0+	c #FACF85",
"a+	c #F4C87D",
"b+	c #F6D08B",
"c+	c #F2CC86",
"d+	c #F2C884",
"e+	c #F1C583",
"f+	c #F4CB87",
"g+	c #FDD790",
"h+	c #FAD28C",
"i+	c #F4C884",
"j+	c #F2C581",
"k+	c #ECBB7A",
"l+	c #EEC07D",
"m+	c #EFC17E",
"n+	c #F8CE85",
"o+	c #F9CF86",
"p+	c #F7CD82",
"q+	c #F0C078",
"r+	c #F0C079",
"s+	c #F3C27E",
"t+	c #F7C482",
"u+	c #F8C781",
"v+	c #FACB82",
"w+	c #FBD087",
"x+	c #FAD38B",
"y+	c #F6CE86",
"z+	c #EDC37B",
"A+	c #F3CC8B",
"B+	c #F1C885",
"C+	c #F3C986",
"D+	c #F4CA86",
"E+	c #F5CC88",
"F+	c #F6CE8A",
"G+	c #F7CE8A",
"H+	c #F6CD89",
"I+	c #F4CA87",
"J+	c #F2C582",
"K+	c #F1C381",
"L+	c #F0C17E",
"M+	c #F3C781",
"N+	c #FACF86",
"O+	c #FAD086",
"P+	c #F5C980",
"Q+	c #F5C67D",
"R+	c #F3C47C",
"S+	c #F2C37C",
"T+	c #F2C27D",
"U+	c #F3C17E",
"V+	c #F6C47E",
"W+	c #F8C981",
"X+	c #F8CE87",
"Y+	c #F1CA86",
"Z+	c #E6BD7B",
"`+	c #EFC587",
" @	c #F2C687",
".@	c #F0C384",
"+@	c #F5CB89",
"@@	c #F9D18C",
"#@	c #F7CF8A",
"$@	c #F5CB88",
"%@	c #F2C684",
"&@	c #EDBF80",
"*@	c #EDBF7F",
"=@	c #EFC27F",
"-@	c #F1C481",
";@	c #F8CA87",
">@	c #F8CB86",
",@	c #F9CF85",
"'@	c #F9D086",
")@	c #F9C981",
"!@	c #FBCB83",
"~@	c #F8CA82",
"{@	c #F1C17B",
"]@	c #EDBA77",
"^@	c #F1C079",
"/@	c #F6C77E",
"(@	c #F6CB86",
"_@	c #F3CE8E",
":@	c #EBC587",
"<@	c #DDB67B",
"[@	c #ECC283",
"}@	c #F3C787",
"|@	c #F6CC8A",
"1@	c #F9D18D",
"2@	c #F3C985",
"3@	c #F1C483",
"4@	c #EEC080",
"5@	c #EFC180",
"6@	c #F2C682",
"7@	c #F4C883",
"8@	c #FACE88",
"9@	c #FACF88",
"0@	c #F6C880",
"a@	c #F6C77F",
"b@	c #FACB83",
"c@	c #FBCC83",
"d@	c #F6C780",
"e@	c #F3C47D",
"f@	c #F1C07B",
"g@	c #F0BE79",
"h@	c #F3C27A",
"i@	c #EEC585",
"j@	c #EABF81",
"k@	c #E0B678",
"l@	c #E9BD7C",
"m@	c #F8D08C",
"n@	c #F8CF8C",
"o@	c #F8CD8D",
"p@	c #F5C888",
"q@	c #F1C482",
"r@	c #F8CD88",
"s@	c #F9CE88",
"t@	c #FDD38A",
"u@	c #FDD389",
"v@	c #FBD187",
"w@	c #FCD087",
"x@	c #FBCF85",
"y@	c #FBCF84",
"z@	c #FACD82",
"A@	c #F1C17A",
"B@	c #ECB976",
"C@	c #F2BF7A",
"D@	c #F7C57E",
"E@	c #F8C77F",
"F@	c #F7C77E",
"G@	c #EEBE77",
"H@	c #E5B271",
"I@	c #E8B672",
"J@	c #E8B772",
"K@	c #ECC281",
"L@	c #FAD28D",
"M@	c #F8CF8D",
"N@	c #F8CD8C",
"O@	c #F6C887",
"P@	c #F3C583",
"Q@	c #F3C683",
"R@	c #F3C983",
"S@	c #F5CA85",
"T@	c #F9CF88",
"U@	c #FCD289",
"V@	c #FBD38A",
"W@	c #FCD088",
"X@	c #FCCF86",
"Y@	c #FBCE85",
"Z@	c #F6C97F",
"`@	c #F0C07B",
" #	c #EEBB78",
".#	c #F3C17C",
"+#	c #F8C67F",
"@#	c #F4C37B",
"##	c #EDBC76",
"$#	c #E6B472",
"%#	c #EAB874",
"&#	c #ECBB74",
"*#	c #F6D28E",
"=#	c #F9CF8B",
"-#	c #F6CA87",
";#	c #F7CA86",
">#	c #F7CA87",
",#	c #F8CF88",
"'#	c #FAD48A",
")#	c #FCD188",
"!#	c #FBD08B",
"~#	c #FAD18B",
"{#	c #FAD892",
"]#	c #FBD891",
"^#	c #FCD18C",
"/#	c #FCCF8A",
"(#	c #FBCF87",
"_#	c #F8CC84",
":#	c #EDC07B",
"<#	c #E8BB77",
"[#	c #EEBF7B",
"}#	c #F2C27E",
"|#	c #E8B573",
"1#	c #E8B674",
"2#	c #EBB875",
"3#	c #F2C178",
"4#	c #F7C87A",
"5#	c #F6D390",
"6#	c #FCD791",
"7#	c #F7CB86",
"8#	c #F7CC87",
"9#	c #FBD48A",
"0#	c #FCD189",
"a#	c #FBD18C",
"b#	c #FBD892",
"c#	c #FACF8A",
"d#	c #FACD88",
"e#	c #E9BC78",
"f#	c #EDBE7A",
"g#	c #F0C07C",
"h#	c #F3C37E",
"i#	c #F5C57F",
"j#	c #EAB774",
"k#	c #EDBB76",
"l#	c #F3C379",
"m#	c #F6C87B",
"n#	c #F3D896",
"o#	c #FAD996",
"p#	c #FAD48D",
"q#	c #FAD087",
"r#	c #F8D086",
"s#	c #F7D086",
"t#	c #F8D289",
"u#	c #F9D38C",
"v#	c #FAD68E",
"w#	c #FAD891",
"x#	c #FDD892",
"y#	c #FAD38E",
"z#	c #EDC17D",
"A#	c #EBBC79",
"B#	c #EAB876",
"C#	c #EBB976",
"D#	c #F0C27E",
"E#	c #F1C480",
"F#	c #E9BC79",
"G#	c #E3B573",
"H#	c #DEAD6F",
"I#	c #DAA76B",
"J#	c #E1AE6F",
"K#	c #F2C179",
"L#	c #FACB7E",
"M#	c #F9CB7D",
"N#	c #F2C87A",
"O#	c #FADB97",
"P#	c #FBD995",
"Q#	c #F8CF86",
"R#	c #F6CF85",
"S#	c #F8D188",
"T#	c #F9D48C",
"U#	c #FBD992",
"V#	c #FDD992",
"W#	c #FCD891",
"X#	c #EABB78",
"Y#	c #EAB875",
"Z#	c #F0C17D",
"`#	c #F1C47F",
" $	c #E9BB79",
".$	c #E3B473",
"+$	c #DFAD6E",
"@$	c #DBA86A",
"#$	c #E2AF6F",
"$$	c #ECB975",
"%$	c #F3C37A",
"&$	c #FBCC7F",
"*$	c #FACC7E",
"=$	c #F2C97A",
"-$	c #F3D38E",
";$	c #F9D48F",
">$	c #FAD18C",
",$	c #F5C883",
"'$	c #F3C682",
")$	c #F1C580",
"!$	c #F4CB85",
"~$	c #FBDC94",
"{$	c #FADA91",
"]$	c #F9D78F",
"^$	c #F0C580",
"/$	c #EFC37F",
"($	c #F1C17D",
"_$	c #F3C27C",
":$	c #F3C07B",
"<$	c #EBBA77",
"[$	c #E8B775",
"}$	c #EDBB77",
"|$	c #F1BF79",
"1$	c #F3C27B",
"2$	c #F7C67D",
"3$	c #F9C97D",
"4$	c #F9CE7E",
"5$	c #F1CC7D",
"6$	c #F1D08B",
"7$	c #F7D18B",
"8$	c #F7CE88",
"9$	c #F5C984",
"0$	c #F2C480",
"a$	c #F4CA84",
"b$	c #FBD68F",
"c$	c #FADA93",
"d$	c #F8D78E",
"e$	c #F7D38C",
"f$	c #EEC27D",
"g$	c #F2C17B",
"h$	c #F1C07A",
"i$	c #E9B875",
"j$	c #E6B573",
"k$	c #EAB976",
"l$	c #EDBC78",
"m$	c #F2C27C",
"n$	c #F7C97F",
"o$	c #F9CA7F",
"p$	c #F9CB7F",
"q$	c #F9CF7F",
"r$	c #F2CE7F",
"s$	c #ECC280",
"t$	c #F0C380",
"u$	c #F6CA83",
"v$	c #FBD088",
"w$	c #F7CC88",
"x$	c #F5CB87",
"y$	c #F3C984",
"z$	c #F2C883",
"A$	c #EDC17C",
"B$	c #EBBD7A",
"C$	c #EABC79",
"D$	c #E6B877",
"E$	c #E5B676",
"F$	c #E6B674",
"G$	c #E8B876",
"H$	c #EFC47D",
"I$	c #F4CC82",
"J$	c #F8D388",
"K$	c #FBD88C",
"L$	c #FBD589",
"M$	c #FCD185",
"N$	c #F9CE81",
"O$	c #F9D284",
"P$	c #F3D285",
"Q$	c #EBC07E",
"R$	c #F1C581",
"S$	c #F0C480",
"T$	c #F4C682",
"U$	c #F3C581",
"V$	c #E8BB78",
"W$	c #E7B977",
"X$	c #E2B474",
"Y$	c #E1B374",
"Z$	c #E6B775",
"`$	c #EABC78",
" %	c #F1C981",
".%	c #F6D388",
"+%	c #F9D88C",
"@%	c #FCDC90",
"#%	c #FCD88B",
"$%	c #FBD386",
"%%	c #FAD185",
"&%	c #F9D083",
"*%	c #F9D385",
"=%	c #F3D286",
"-%	c #F2C882",
";%	c #F8CD87",
">%	c #F8CC88",
",%	c #F7CB87",
"'%	c #F7CA85",
")%	c #F9CA85",
"!%	c #F5C681",
"~%	c #ECBC79",
"{%	c #E7B774",
"]%	c #E4B775",
"^%	c #E1B170",
"/%	c #E2B372",
"(%	c #EBBF79",
"_%	c #F1C77F",
":%	c #F6D28A",
"<%	c #F9DA91",
"[%	c #FAD98F",
"}%	c #F9D68A",
"|%	c #FAD386",
"1%	c #FAD388",
"2%	c #FAD286",
"3%	c #F4CD82",
"4%	c #F5CC84",
"5%	c #FAD08A",
"6%	c #F9CC88",
"7%	c #F7C985",
"8%	c #F7C884",
"9%	c #F7C683",
"0%	c #F3C280",
"a%	c #EDBD79",
"b%	c #EABA77",
"c%	c #E2AF6E",
"d%	c #E2B170",
"e%	c #EABC7A",
"f%	c #EABD7A",
"g%	c #E5B875",
"h%	c #E4B674",
"i%	c #E3B471",
"j%	c #E6B773",
"k%	c #F4CD83",
"l%	c #FBDD94",
"m%	c #F8D88D",
"n%	c #F8D589",
"o%	c #F8D385",
"p%	c #F9D487",
"q%	c #FBD588",
"r%	c #FAD285",
"s%	c #F4CA7F",
"t%	c #F5CB84",
"u%	c #FCD288",
"v%	c #F8CD85",
"w%	c #F3C580",
"x%	c #EEBE7B",
"y%	c #EEBD7B",
"z%	c #EFBE7C",
"A%	c #F0C07D",
"B%	c #EEC07C",
"C%	c #E3B172",
"D%	c #E2B172",
"E%	c #E3B576",
"F%	c #E4B677",
"G%	c #EDC17E",
"H%	c #EFC47F",
"I%	c #F3CA7F",
"J%	c #F5CD80",
"K%	c #F6D084",
"L%	c #F7D287",
"M%	c #F9D68B",
"N%	c #FBD88E",
"O%	c #F8D588",
"P%	c #F9D386",
"Q%	c #FAD284",
"R%	c #F9CF81",
"S%	c #F4C87C",
"T%	c #F5CA84",
"U%	c #F5C981",
"V%	c #EFC17B",
"W%	c #E9B775",
"X%	c #EBBB78",
"Y%	c #F0C27F",
"Z%	c #E5B475",
"`%	c #E4B375",
" &	c #E1B577",
".&	c #E3B779",
"+&	c #F3CA85",
"@&	c #F7CF87",
"#&	c #FDD78A",
"$&	c #FEDA8A",
"%&	c #FBD78A",
"&&	c #FAD68A",
"*&	c #FAD58A",
"=&	c #FBD488",
"-&	c #F9D080",
";&	c #F8CC7D",
">&	c #F2C477",
",&	c #F3C884",
"'&	c #F5C882",
")&	c #F3C47E",
"!&	c #F1C37D",
"~&	c #F0C27C",
"{&	c #F0C17B",
"]&	c #F1C47D",
"^&	c #EFC07B",
"/&	c #E9B976",
"(&	c #E9B977",
"_&	c #ECBD7C",
":&	c #EDC07D",
"<&	c #F0CB87",
"[&	c #F1CC88",
"}&	c #F8D58D",
"|&	c #FAD78E",
"1&	c #FCD98F",
"2&	c #FCDA8F",
"3&	c #FBD78B",
"4&	c #FAD589",
"5&	c #FBD286",
"6&	c #FBD084",
"7&	c #F9D285",
"8&	c #F8D386",
"9&	c #F7CA7C",
"0&	c #F4C578",
"a&	c #EBBC71",
"b&	c #ECBA78",
"c&	c #E9B876",
"d&	c #F3C77F",
"e&	c #EDBF79",
"f&	c #E1AF6E",
"g&	c #E5B573",
"h&	c #F4C983",
"i&	c #F5CD86",
"j&	c #FCDB92",
"k&	c #FDDC93",
"l&	c #FCDB91",
"m&	c #FBD991",
"n&	c #FAD890",
"o&	c #F9D38A",
"p&	c #FBCF81",
"q&	c #F9D388",
"r&	c #FAD081",
"s&	c #F9CC7D",
"t&	c #F6C579",
"u&	c #F1BF74",
"v&	c #E5B46C",
"w&	c #EFC17D",
"x&	c #F1C27D",
"y&	c #EEBF7C",
"z&	c #E8B776",
"A&	c #E5B474",
"B&	c #E8B977",
"C&	c #E8B976",
"D&	c #E8B975",
"E&	c #E8BA77",
"F&	c #ECC07B",
"G&	c #F8D38A",
"H&	c #FAD68C",
"I&	c #FAD78C",
"J&	c #FAD488",
"K&	c #FAD288",
"L&	c #F9D087",
"M&	c #F7CB81",
"N&	c #F6CA7E",
"O&	c #F8CB7F",
"P&	c #F8CD81",
"Q&	c #F9D387",
"R&	c #FAD385",
"S&	c #FACD7E",
"T&	c #F9CA7D",
"U&	c #F8C67A",
"V&	c #F3C175",
"W&	c #E7B76C",
"X&	c #EBBC77",
"Y&	c #E6B677",
"Z&	c #DFAC70",
"`&	c #DEAC70",
" *	c #DFAE71",
".*	c #DFAE6F",
"+*	c #DEAE6C",
"@*	c #E5B673",
"#*	c #F0C581",
"$*	c #F3CB84",
"%*	c #FBD98D",
"&*	c #FAD98C",
"**	c #F8D286",
"=*	c #F8D185",
"-*	c #F9CD7F",
";*	c #F8C97E",
">*	c #F7C67C",
",*	c #F3C277",
"'*	c #F1C175",
")*	c #F3C67C",
"!*	c #F4CB81",
"~*	c #F7D388",
"{*	c #F9C97B",
"]*	c #F8C87A",
"^*	c #F4C375",
"/*	c #EBBB6E",
"(*	c #E3B371",
"_*	c #EBBC78",
":*	c #EBBE7B",
"<*	c #E6B874",
"[*	c #E7B874",
"}*	c #E7B873",
"|*	c #EBC07B",
"1*	c #F5CF88",
"2*	c #F6D289",
"3*	c #FBD78C",
"4*	c #F8D183",
"5*	c #F8D082",
"6*	c #F5C679",
"7*	c #EEBD72",
"8*	c #EBBB71",
"9*	c #EDC077",
"0*	c #EFC67C",
"a*	c #F4CE83",
"b*	c #F9D488",
"c*	c #F8CE81",
"d*	c #F7C779",
"e*	c #F8C879",
"f*	c #F9C978",
"g*	c #F7C776",
"h*	c #F0C171",
"i*	c #D2A466",
"j*	c #DDAF6F",
"k*	c #DFB372",
"l*	c #E2B673",
"m*	c #E4B974",
"n*	c #E5BA74",
"o*	c #E5BB74",
"p*	c #E6BC75",
"q*	c #E7BC76",
"r*	c #EBC47D",
"s*	c #F1D18B",
"t*	c #F1D18A",
"u*	c #F2CE85",
"v*	c #F2CC83",
"w*	c #F1C77B",
"x*	c #F1C77A",
"y*	c #F4C67B",
"z*	c #F2C57A",
"A*	c #E7B86D",
"B*	c #E0B06A",
"C*	c #DEAD69",
"D*	c #E1B46E",
"E*	c #E4BA73",
"F*	c #E9C27A",
"G*	c #EEC87F",
"H*	c #EDC379",
"I*	c #EDBE73",
"J*	c #EFC173",
"K*	c #F1C473",
"L*	c #EEC071",
"  . + @ # $ $ % & * * = - ; > , ' ) ! ~ { ] ^ / ~ ( _ : < [ } | ",
"1 2 3 4 5 6 7 8 9 0 a b c d e f g h i j k l m n o p q r r s t u ",
"v w x 4 y 4 z A B C D E F G H I J K L M k N O P Q R S T U V W ~ ",
"X Y 4 Z `  ...+.@.#.$.d %.&.h *.=.j -.;.>.,.n n '.).!.~.{.].^./.",
"(._.:.<.[.}.|.1.2.c 3.4.5.g 6.7.8.9.0.a.b.c.d.e.f.g.!.h.i.j.k.l.",
"* 3 m.n.o.p.q.c r.6 s.t.t.u.v.w.x.y.z.A.d.,.B.C.D.E.F.G.H.I.J.K.",
"L.M.z N.O.P.Q.R.S.T.U.U.V.W.X.Y.Z.`. +.+++@+#+$+%+y.q &+*+=+-+;+",
"@ >+,+'+)+'+!+~+{+]+^+/+(+_+:+:+<+[+}+|+1+2+3+4+5+6+7+8+9+0+n a+",
"@ b+c+d+e+f+!+4.g+h+i+j+k+k+l+m+n+o+n+p+2+q+q+r+s+t+u+v+w+x+y+z+",
"A+'+B+C+D+E+F+G+H+I+J+K+0.L+8.M+N+O+++P+Q+!.R+S+T+U+V+W+X+Q.Y+Z+",
"`+ @.@+@@@#@$@%@&@*@=@-@;@>@,@,@'@,@S R+)@!@~@@+{@]@^@/@(@_@:@<@",
"[@}@}@|@1@H+2@3@4@5@6@7@8@9@O+O+O+,@0@a@b@c@d@e@f@g@h@/@L i@j@k@",
"l@E+m@n@o@p@q@-@J+i+r@s@t@u@v@v@J w@c.x@y@z@A@B@C@D@E@F@G@H@I@J@",
"K@G+L@M@N@O@P@Q@R@S@X+T@U@U@V@V@W@w@X@Y@O Z@`@ #.#+#D@@###$#%#&#",
"*#x z =#-#;#>#,#'#g )#W@!#~#{#]#^#/#(#_#:#<#[#}#7+)@f@|#1#2#3#4#",
"5#3 6#=#7#7#8#,#'#9#U@0#a#]+b#]#c#d# +e.:#e#f#g#h#i#T |#j#k#l#m#",
"n##.o#p#q#r#s#t#u#v#w#]#x#6#S.y#z#A#B#C#D#E#F#G#H#I#J#j#K#L#M#N#",
"n#O#P#p#q#Q#R#S#T#v#_.U#V#W#~+@@Z.X#Y#B@Z#`# $.$+$@$#$$$%$&$*$=$",
"-$;$>$8#,$'$)$!$p#e ~$~${$]$^$/$($($_$:$<$[ [$Y#}$|$1$2$3$=+4$5$",
"6$7$8$9$L 0$9.a$]+b$c$_.d$e$f$Z.g#g#g$h$i$j$k$l$m$a@n$o$p$*$q$r$",
"s$6@J+t$x.9.E#u$v$9@w$x$y$z$A$:#B$C$D$E$F$G$H$I$J$K$L$M$o N$O$P$",
"Q$j+R$S$=@E#j+i Y@ +T$U$D#x.Z.:#V$W$X$Y$Z$`$ %.%+%@%#%$%%%&%*%=%",
"-%n+n+;%>%,%;#'%)%!%[#~%j${%%+%+]%G#^%/%(%_%:%<%<%[%}%*%|%1%2%3%",
"4%U.U.u.5%6%7%8%9%0%a%b%c%d%e%f%g%h%i%j%/ k%d$l%<%m%n%o%p%q%r%s%",
"t%u%U@N+v%w%x%y%z%A%0$B%C%D%E%F%G%H%I%J%K%L%M%N%M%O%O%p%P%Q%R%S%",
"T%w@w+d.U%V%W%i$X%[#T$Y%Z%`% &.&+&@&#&$&%&&&*&=&P%o%p%p%O$-&;&>&",
",&'&)&!&~&~&{&~&]&^&/&(&_&:&<&[&}&|&1&2&3&4&5&6&7&8&P%Q%R%9&0&a&",
"q@A%b&C#c&r u d&d&e&f&g&h&i&j&k&j&l&m&n&o&%%p&J.%%q&r%r&s&t&u&v&",
"w&x&y&z&C%A&B&C&D&D&E&F&t#G&H&I&=&J&K&L&M&N&O&P&Q&3&R&S&T&U&V&W&",
"X&D.=@Y&Z&`& *.*+*@*#*$*%*&***=*R -*;*>*,*'*)*!*~*%*r%{*{*]*^*/*",
"(*_*:*B&@*@*<*[*}*|*1*2*3*&&4*5*R *$6*,*7*8*9*0*a*b*c*d*e*f*g*h*",
"i*j*k*l*m*n*o*p*q*r*s*t*u*v*w*x*y*z*a&A*B*C*D*E*F*G*H*I*J*K*K*L*"};
