/* XPM */
static char * 1_xpm[] = {
"32 32 727 2",
"  	c #DBC09F",
". 	c #DCC09D",
"+ 	c #DCC19E",
"@ 	c #D6BA99",
"# 	c #C9AB8C",
"$ 	c #C0A284",
"% 	c #C5A98A",
"& 	c #D3B896",
"* 	c #DBBF9D",
"= 	c #D9BD9A",
"- 	c #D2B693",
"; 	c #C3A786",
"> 	c #BA9D7F",
", 	c #C6A78B",
"' 	c #D2B699",
") 	c #D5BA9B",
"! 	c #BB9C7F",
"~ 	c #B39478",
"{ 	c #B09075",
"] 	c #B5987C",
"^ 	c #C8AD8F",
"/ 	c #CDB394",
"( 	c #C9AF8F",
"_ 	c #CBAE8F",
": 	c #CDB092",
"< 	c #CAAD8F",
"[ 	c #C2A488",
"} 	c #B89A7F",
"| 	c #B4977B",
"1 	c #BFA485",
"2 	c #C8AE8F",
"3 	c #D9BB96",
"4 	c #DABC96",
"5 	c #DBBD97",
"6 	c #D4B691",
"7 	c #C5A481",
"8 	c #B59372",
"9 	c #B49472",
"0 	c #C3A480",
"a 	c #CBAE89",
"b 	c #C8AA85",
"c 	c #C0A17C",
"d 	c #B39370",
"e 	c #B69676",
"f 	c #CFB090",
"g 	c #DFC3A2",
"h 	c #E3C8A5",
"i 	c #D6B995",
"j 	c #C6A583",
"k 	c #BE9A7A",
"l 	c #BD9A7A",
"m 	c #C9AB8B",
"n 	c #DCC19F",
"o 	c #DFC6A1",
"p 	c #DAC09B",
"q 	c #D7BA95",
"r 	c #D5B894",
"s 	c #D0B390",
"t 	c #C8A886",
"u 	c #C19F7F",
"v 	c #B89776",
"w 	c #B0906E",
"x 	c #B49676",
"y 	c #D7B893",
"z 	c #DABB95",
"A 	c #D4B590",
"B 	c #C5A381",
"C 	c #B99676",
"D 	c #B49372",
"E 	c #AF906E",
"F 	c #AD8E6B",
"G 	c #AB8B69",
"H 	c #A98966",
"I 	c #B0906F",
"J 	c #E1C6A4",
"K 	c #E6CCA7",
"L 	c #E3C7A2",
"M 	c #D2B28D",
"N 	c #C8A583",
"O 	c #CAA888",
"P 	c #DEC2A0",
"Q 	c #E5CAA6",
"R 	c #E2C6A1",
"S 	c #DDC19B",
"T 	c #DABD98",
"U 	c #D8BC97",
"V 	c #D6B994",
"W 	c #D1B18D",
"X 	c #C7A784",
"Y 	c #A88869",
"Z 	c #CCAD88",
"` 	c #D6B791",
" .	c #D7B892",
"..	c #CEAE89",
"+.	c #C5A482",
"@.	c #CBAC8B",
"#.	c #D3B695",
"$.	c #CDB08E",
"%.	c #C2A481",
"&.	c #BB9B78",
"*.	c #B89877",
"=.	c #C9AD8D",
"-.	c #E1C7A4",
";.	c #E3C7A1",
">.	c #DDC09A",
",.	c #D8BA94",
"'.	c #D0B08B",
").	c #C6A482",
"!.	c #C09E7E",
"~.	c #C7AB89",
"{.	c #D6BA95",
"].	c #DBBD98",
"^.	c #D8BB96",
"/.	c #D8BA95",
"(.	c #D9BA94",
"_.	c #D5B58F",
":.	c #C9A985",
"<.	c #BB9978",
"[.	c #AF8E6F",
"}.	c #BE9E79",
"|.	c #CBAC86",
"1.	c #CAAB85",
"2.	c #BF9E79",
"3.	c #BF9E7C",
"4.	c #D1B391",
"5.	c #E1C5A1",
"6.	c #E1C5A0",
"7.	c #DABC97",
"8.	c #CFB08C",
"9.	c #C5A483",
"0.	c #CAAD8E",
"a.	c #D9C09D",
"b.	c #DEC29D",
"c.	c #DCBF99",
"d.	c #D8BA93",
"e.	c #CFB08A",
"f.	c #C0A07B",
"g.	c #BA9876",
"h.	c #B69272",
"i.	c #AF8E6D",
"j.	c #BB9D7A",
"k.	c #C6A783",
"l.	c #C8A884",
"m.	c #C6A884",
"n.	c #D2B38D",
"o.	c #C7A782",
"p.	c #BB9A76",
"q.	c #BF9C7C",
"r.	c #C3A587",
"s.	c #B89673",
"t.	c #BD9C77",
"u.	c #B99974",
"v.	c #B08F6C",
"w.	c #B89574",
"x.	c #C7A785",
"y.	c #D3B692",
"z.	c #D9BB95",
"A.	c #D0AF8B",
"B.	c #C19F7E",
"C.	c #B79777",
"D.	c #BEA27F",
"E.	c #CEB18C",
"F.	c #D1B38D",
"G.	c #CDAE89",
"H.	c #BFA07B",
"I.	c #B2906F",
"J.	c #BB9879",
"K.	c #BE9D7D",
"L.	c #B89A78",
"M.	c #B89876",
"N.	c #B89775",
"O.	c #B2916E",
"P.	c #B89874",
"Q.	c #C3A47E",
"R.	c #C4A47E",
"S.	c #B89773",
"T.	c #B39271",
"U.	c #C8A989",
"V.	c #D6BB9C",
"W.	c #BB9A78",
"X.	c #B08F6D",
"Y.	c #AE8D6B",
"Z.	c #B28F6F",
"`.	c #B99775",
" +	c #BFA07C",
".+	c #CEB08B",
"++	c #D4B58F",
"@+	c #CAAA85",
"#+	c #BE9C7B",
"$+	c #B29271",
"%+	c #B79775",
"&+	c #BA9A77",
"*+	c #B79774",
"=+	c #AE8E6B",
"-+	c #AF8D6C",
";+	c #B79574",
">+	c #C7A686",
",+	c #D8BC9B",
"'+	c #CBAD89",
")+	c #C5A582",
"!+	c #B79674",
"~+	c #AE8D6A",
"{+	c #AF8F6B",
"]+	c #B3916E",
"^+	c #B49270",
"/+	c #C1A282",
"(+	c #D9BE9C",
"_+	c #DFC6A5",
":+	c #CBAC89",
"<+	c #B99977",
"[+	c #BB9C7B",
"}+	c #CCAD8D",
"|+	c #CCAD8C",
"1+	c #BE9D7C",
"2+	c #B49471",
"3+	c #BA9B78",
"4+	c #C0A07C",
"5+	c #BD9B78",
"6+	c #BF9D7B",
"7+	c #C8A888",
"8+	c #CAAD8C",
"9+	c #BFA280",
"0+	c #BE9F7C",
"a+	c #BC9C79",
"b+	c #BC9B7A",
"c+	c #C9A989",
"d+	c #D9BD9C",
"e+	c #E6CCA9",
"f+	c #D7B793",
"g+	c #CBAA87",
"h+	c #AD8B69",
"i+	c #B3906F",
"j+	c #C4A584",
"k+	c #D9BD9B",
"l+	c #E2C7A4",
"m+	c #DFC4A3",
"n+	c #D9BA96",
"o+	c #CBAB88",
"p+	c #CFB190",
"q+	c #E1C5A3",
"r+	c #E1C4A1",
"s+	c #D2B28F",
"t+	c #BE9D7B",
"u+	c #AF8E6C",
"v+	c #B39372",
"w+	c #C0A07F",
"x+	c #CAAA88",
"y+	c #DBBE9C",
"z+	c #E5CAA7",
"A+	c #D6B792",
"B+	c #D0B08C",
"C+	c #CFB291",
"D+	c #DCC2A0",
"E+	c #E1C6A1",
"F+	c #DCC099",
"G+	c #D9BC96",
"H+	c #D5B690",
"I+	c #C7A683",
"J+	c #BC9878",
"K+	c #C09D7D",
"L+	c #D5B896",
"M+	c #DEC19D",
"N+	c #CEAD8B",
"O+	c #DCBE9A",
"P+	c #DFC19C",
"Q+	c #D9BA95",
"R+	c #CCAC89",
"S+	c #C09F7E",
"T+	c #CBAE8D",
"U+	c #DCBF9B",
"V+	c #E0C49F",
"W+	c #DEC09A",
"X+	c #D8B993",
"Y+	c #CFB08B",
"Z+	c #BB9B7B",
"`+	c #C1A583",
" @	c #D0B38E",
".@	c #D0B28B",
"+@	c #D1B38C",
"@@	c #D4B68F",
"#@	c #CDAE88",
"$@	c #C2A17E",
"%@	c #BD9978",
"&@	c #BF9C7B",
"*@	c #CEAF8C",
"=@	c #DBBE99",
"-@	c #D7BA97",
";@	c #D0B18C",
">@	c #CAA885",
",@	c #D1B28D",
"'@	c #C8A786",
")@	c #D4B794",
"!@	c #E4C8A3",
"~@	c #E1C49E",
"{@	c #DCBE99",
"]@	c #D7B993",
"^@	c #CDAF8A",
"/@	c #BE9E7B",
"(@	c #BA9877",
"_@	c #B59272",
":@	c #BA9B77",
"<@	c #BD9D78",
"[@	c #C4A47F",
"}@	c #C9A983",
"|@	c #BD9E79",
"1@	c #B79673",
"2@	c #BB9877",
"3@	c #BC9978",
"4@	c #BD9C79",
"5@	c #C7A984",
"6@	c #D5B791",
"7@	c #D5B996",
"8@	c #BE9C7A",
"9@	c #C8A684",
"0@	c #D3B590",
"a@	c #C9A987",
"b@	c #C3A180",
"c@	c #D8BB95",
"d@	c #CAAB87",
"e@	c #C3A484",
"f@	c #C6A685",
"g@	c #BF9F7D",
"h@	c #B39371",
"i@	c #B18F6C",
"j@	c #B69470",
"k@	c #B89873",
"l@	c #AF8F6C",
"m@	c #B99978",
"n@	c #C3A281",
"o@	c #B59572",
"p@	c #B59573",
"q@	c #CFB18F",
"r@	c #B1916E",
"s@	c #CBAA88",
"t@	c #D2B48F",
"u@	c #C1A37F",
"v@	c #B59171",
"w@	c #BA9776",
"x@	c #D1B48E",
"y@	c #C4A782",
"z@	c #B0916F",
"A@	c #B1906F",
"B@	c #C8AA89",
"C@	c #DFC5A3",
"D@	c #E1C6A3",
"E@	c #B39170",
"F@	c #AC8B69",
"G@	c #D4B796",
"H@	c #E0C4A1",
"I@	c #D8BA96",
"J@	c #B89674",
"K@	c #BC9D7B",
"L@	c #B89777",
"M@	c #D9BC99",
"N@	c #D2B590",
"O@	c #B2926F",
"P@	c #B99776",
"Q@	c #B69473",
"R@	c #B59773",
"S@	c #B39573",
"T@	c #B29171",
"U@	c #B79676",
"V@	c #E0C4A2",
"W@	c #E6CBA7",
"X@	c #E3C8A2",
"Y@	c #DEC19B",
"Z@	c #D9BC95",
"`@	c #C4A280",
" #	c #D2B695",
".#	c #E2C6A4",
"+#	c #E1C4A0",
"@#	c #D5B590",
"##	c #C8A783",
"$#	c #B89573",
"%#	c #AC8C6C",
"&#	c #BD9B7C",
"*#	c #CBAC8C",
"=#	c #CEB18F",
"-#	c #C2A480",
";#	c #CFAF8E",
">#	c #C5A583",
",#	c #B99C79",
"'#	c #BA9B7B",
")#	c #B99778",
"!#	c #BE9C7D",
"~#	c #D0B190",
"{#	c #E5CBA6",
"]#	c #E2C7A1",
"^#	c #D3B58F",
"/#	c #CAA985",
"(#	c #C7A685",
"_#	c #C09E7B",
":#	c #AF8E6E",
"<#	c #C19F80",
"[#	c #C1A180",
"}#	c #CBAD8C",
"|#	c #D9BC97",
"1#	c #D4B793",
"2#	c #D3B794",
"3#	c #BF9C7D",
"4#	c #BD9A7B",
"5#	c #DBBF99",
"6#	c #D6B892",
"7#	c #C6A581",
"8#	c #C3A17F",
"9#	c #CEB08C",
"0#	c #D0B18B",
"a#	c #C2A17D",
"b#	c #D7BB9A",
"c#	c #D5B897",
"d#	c #DEC39F",
"e#	c #DCC09C",
"f#	c #DDC29D",
"g#	c #D9BE99",
"h#	c #D8BC98",
"i#	c #D0B28F",
"j#	c #BF9D7D",
"k#	c #BA9777",
"l#	c #B79575",
"m#	c #BB9E7A",
"n#	c #D0B28D",
"o#	c #D5B790",
"p#	c #CEB089",
"q#	c #C3A17D",
"r#	c #B39472",
"s#	c #C3A581",
"t#	c #D2B38E",
"u#	c #CCAE86",
"v#	c #C1A27C",
"w#	c #B1906D",
"x#	c #B59477",
"y#	c #E4CAA8",
"z#	c #CBAB89",
"A#	c #C8A887",
"B#	c #DBBE9B",
"C#	c #E3C7A3",
"D#	c #D9BD98",
"E#	c #D7BB96",
"F#	c #D3B591",
"G#	c #CAA887",
"H#	c #B79875",
"I#	c #B4946F",
"J#	c #B59371",
"K#	c #B08E6E",
"L#	c #B29170",
"M#	c #B89875",
"N#	c #B89774",
"O#	c #B5946F",
"P#	c #B3916F",
"Q#	c #C1A183",
"R#	c #E3C8A4",
"S#	c #D0AF8C",
"T#	c #C5A382",
"U#	c #CBAD8A",
"V#	c #D9BD97",
"W#	c #CFAF8A",
"X#	c #C4A17F",
"Y#	c #BB9777",
"Z#	c #B99878",
"`#	c #BB9E7D",
" $	c #BA9D7B",
".$	c #B99B77",
"+$	c #BA9975",
"@$	c #B69773",
"#$	c #BB9C79",
"$$	c #C2A17F",
"%$	c #BC9A79",
"&$	c #B18D6D",
"*$	c #AC8968",
"=$	c #AF8C6B",
"-$	c #B49370",
";$	c #BA9A78",
">$	c #C4A481",
",$	c #CEB090",
"'$	c #D2B48E",
")$	c #C7A783",
"!$	c #B69675",
"~$	c #C1A380",
"{$	c #D0B38F",
"]$	c #D5B792",
"^$	c #C9A884",
"/$	c #C19E7C",
"($	c #BF9B7B",
"_$	c #D7BD9B",
":$	c #D8BD9A",
"<$	c #D4B692",
"[$	c #CFB18C",
"}$	c #CEB08A",
"|$	c #D1B48F",
"1$	c #BA9676",
"2$	c #B79373",
"3$	c #BC9979",
"4$	c #C9A986",
"5$	c #D4B591",
"6$	c #CFB18D",
"7$	c #B59471",
"8$	c #B69573",
"9$	c #C2A280",
"0$	c #D1B38E",
"a$	c #D1B28B",
"b$	c #CDAD88",
"c$	c #C2A27E",
"d$	c #B69673",
"e$	c #B89672",
"f$	c #CBAB8B",
"g$	c #E6CAA6",
"h$	c #DCBE98",
"i$	c #C9A886",
"j$	c #D0B08D",
"k$	c #DDBF99",
"l$	c #DBBC97",
"m$	c #D8BB9A",
"n$	c #BC9D7A",
"o$	c #B18F6D",
"p$	c #C1A27F",
"q$	c #C5A684",
"r$	c #BB9B76",
"s$	c #B69571",
"t$	c #AF8E6B",
"u$	c #AB8968",
"v$	c #B28F6E",
"w$	c #D1B291",
"x$	c #E8CCA8",
"y$	c #E4C7A1",
"z$	c #DBBC96",
"A$	c #CFAF8C",
"B$	c #C3A582",
"C$	c #C4A682",
"D$	c #C2A37F",
"E$	c #BFA383",
"F$	c #BC9B79",
"G$	c #D1B490",
"H$	c #D4B693",
"I$	c #CAAB89",
"J$	c #AE8C6A",
"K$	c #B2916F",
"L$	c #B69775",
"M$	c #BB9C7A",
"N$	c #DBBE98",
"O$	c #DABB96",
"P$	c #D8B994",
"Q$	c #CAAA87",
"R$	c #B29472",
"S$	c #B69977",
"T$	c #B19472",
"U$	c #AB8F70",
"V$	c #C7A987",
"W$	c #CDAF8B",
"X$	c #D3B592",
"Y$	c #D6BA96",
"Z$	c #D5B893",
"`$	c #CDAE8A",
" %	c #B59271",
".%	c #B69373",
"+%	c #D1B694",
"@%	c #D6BA97",
"#%	c #C09D7C",
"$%	c #BFA17D",
"%%	c #C4A27F",
"&%	c #BA9878",
"*%	c #C7AB8A",
"=%	c #D2B896",
"-%	c #C9AD8A",
";%	c #B99C7D",
">%	c #D7BA94",
",%	c #D3B792",
"'%	c #C5A984",
")%	c #BC9D78",
"!%	c #B99774",
"~%	c #CAAA8B",
"{%	c #DBBF9E",
"]%	c #E4C9A6",
"^%	c #D6B893",
"/%	c #C9A885",
"(%	c #B59270",
"_%	c #B1906E",
":%	c #BB9C78",
"<%	c #CBAC88",
"[%	c #BF9F7A",
"}%	c #C2A080",
"|%	c #D0B393",
"1%	c #DFC4A2",
"2%	c #E3C9A6",
"3%	c #D9BD99",
"4%	c #C6A888",
"5%	c #CDB08C",
"6%	c #DDC19F",
"7%	c #E7CCA8",
"8%	c #E5C9A4",
"9%	c #DFC29C",
"0%	c #D4B490",
"a%	c #CAA986",
"b%	c #C09D7B",
"c%	c #B49170",
"d%	c #AC8A69",
"e%	c #B99875",
"f%	c #C6A782",
"g%	c #C6A681",
"h%	c #C2A27C",
"i%	c #BC9B77",
"j%	c #B0906D",
"k%	c #BB9B7A",
"l%	c #D1B393",
"m%	c #E0C5A4",
"n%	c #E4CAA7",
"o%	c #DBC09C",
"p%	c #CDB08D",
"q%	c #BFA182",
"r%	c #D8BC99",
"s%	c #C4A581",
"t%	c #B99574",
"u%	c #DCC09E",
"v%	c #BC9A7A",
"w%	c #B49571",
"x%	c #B49470",
"y%	c #B1906C",
"z%	c #AC8A67",
"A%	c #CDAF8F",
"B%	c #DDC2A1",
"C%	c #DBC09E",
"D%	c #D5BA96",
"E%	c #C9AC89",
"F%	c #B69776",
"G%	c #B29274",
"H%	c #D1B592",
"I%	c #C3A580",
"J%	c #B69672",
"K%	c #C7A583",
"L%	c #D6B895",
"M%	c #E4C8A4",
"N%	c #DFC19B",
"O%	c #C5A584",
"P%	c #D4B896",
"Q%	c #D6B896",
"R%	c #C1A27E",
"S%	c #BC9B78",
"T%	c #D1B392",
"U%	c #D7BC9A",
"V%	c #C6AA88",
"W%	c #BC9E7C",
"X%	c #BC9C7A",
"Y%	c #B29174",
"Z%	c #C2A583",
"`%	c #BE9F7B",
" &	c #B39470",
".&	c #AD8C6A",
"+&	c #B99675",
"@&	c #CCAB88",
"#&	c #E2C59F",
"$&	c #E0C39D",
"%&	c #C7A884",
"&&	c #C4A480",
"*&	c #BC9C7C",
"=&	c #DCBF9A",
"-&	c #CEAF8B",
";&	c #C4A381",
">&	c #C4A583",
",&	c #C4A685",
"'&	c #B69877",
")&	c #B99B7A",
"!&	c #C6A988",
"~&	c #C6A786",
"{&	c #C2A384",
"]&	c #BA9C7B",
"^&	c #B2936F",
"/&	c #D1B28E",
"(&	c #CEAF8A",
"_&	c #BD9E7B",
":&	c #B69472",
"<&	c #BD9C7A",
"[&	c #CEB190",
"}&	c #E4C9A7",
"|&	c #E5CAA5",
"1&	c #E1C59F",
"2&	c #D7B894",
"3&	c #D0B18E",
"4&	c #B69677",
"5&	c #BEA081",
"6&	c #D2B696",
"7&	c #DFC5A2",
"8&	c #D4B795",
"9&	c #C9AA85",
"0&	c #C3A27F",
"a&	c #BE9B7A",
"b&	c #BC9D79",
"c&	c #BB9B77",
"d&	c #B99975",
"e&	c #BA9A76",
"f&	c #B59370",
"g&	c #B08C6B",
"h&	c #BA9775",
"i&	c #CAA987",
"j&	c #D9BC98",
"k&	c #DBBE97",
"l&	c #B99877",
"m&	c #C0A081",
"n&	c #D5B998",
"o&	c #E6CAA5",
"p&	c #E0C29D",
"q&	c #DDC19D",
"r&	c #D6B997",
"s&	c #C3A385",
"t&	c #C2A588",
"u&	c #C5AB8C",
"v&	c #C5AA8A",
"w&	c #BFA382",
"x&	c #BC9F7F",
"y&	c #BFA181",
"z&	c #C09F81",
"A&	c #BE9C80",
"B&	c #C1A083",
"C&	c #C7AA8A",
"D&	c #D1B593",
"E&	c #DABE9B",
"F&	c #DBBF9C",
"G&	c #DBBF9B",
"H&	c #D9BC9A",
"I&	c #D6B996",
"J&	c #D7BB98",
"K&	c #D7BA99",
"L&	c #D0B593",
"M&	c #C2A685",
"N&	c #BD9F81",
"O&	c #CCAF91",
"P&	c #E0C5A5",
"Q&	c #E6CCAA",
"R&	c #DBC0A0",
"  . + @ # $ % & * = - ; > , ' ) # ! ~ { ] ^ / ( _ : < [ } | 1 2 ",
"3 4 5 6 7 8 9 0 a b c d e f g h i j k l m n o p q r s t u v w x ",
"y z 4 A B C D E F G H I m J K L 5 M N O P Q R S T U V A W X 8 Y ",
"Z `  ...+.@.#.$.%.&.*.=.-.K ;.>.,.'.).!.~.{.].4 3 ^./.(._.:.<.[.",
"}.|.1.2.3.4.5.6.7.8.9.0.a.b.c.d.e.f.g.h.i.j.k.l.m.Z n.n.o.p.q.r.",
"s.t.u.v.w.x.y.T z.A.B.C.D.E.F.G.H.v.I.J.K.L.M.N.O.P.Q.R.S.T.U.V.",
"W.X.Y.Z.w.`. +.+++@+#+8 $+%+&+*+=+-+;+>+,+- '+)+!+~+{+]+^+/+(+_+",
":+<+[+}+|+1+2+3+4+5+6+7+8+9+0+a+N.b+c+d+e+L c.f+g+N.h+i+j+k+l+m+",
"n+o+p+q+r+s+t+u+v+w+x+y+z+S z.A+B+j C+D+E+F+G+z.H+I+J+K+L+Q M+k+",
"y g+N+O+P+Q+R+S+T+. U+M+V+W+5 X+Y+B.Z+`+ @.@+@@@#@$@%@&@*@=@7.-@",
";@).>@ .5 z.,@'@)@!@~@{@7.z.]@^@/@(@_@$+:@<@[@}@|@1@2@3@4@5@6@7@",
"[@8@9@A+3 0@a@b@R+c@5 4 6 ^@d@/@$+e@f@g@h@i@j@k@l@m@f@n@o@p@d@q@",
"r@v s@f+t@u@T.v@w@4+G.x@y@z@A@!+B@C@D@=@W $@E@F@m@G@H@I@I+J@s.K@",
"L@T+M@N@ +O@E@P@2@Q@o@R@S@T@U@B@V@W@X@Y@Z@W `@K. #.#+#{@@###$#%#",
"&#*#=#-#d I.K.|+;#>#K@,#'#)#!#~#{#]#Y@5 z.^#/#(#k+E+c.4 (.;@_#:#",
"<#1+D w <+[#}#+ E+|#1#2#$.3#4#x+=@5#5 z 6#e.7#8#9#/.z.c@]@0#a#L@",
"b#|+C K.c#d#e#f#b.5#g#h#i#j#k#l#m#n#]@o#p#}@q#(@r#s#t#0#u#v#w#x#",
"y#U+z#A#B#C#b.T T D#U E#F#G#K+_@i.H#3+:@k@I#J#Q@K#L#M#N#O#v.P#Q#",
"R#>.S#T#U#r |#T |#V#U c@6#W#X#Y#Z#`# $.$+$@$#$$$%$&$*$=$-$;$>$,$",
"=@'$)$<.!$~${$/.^.,.]@]$;@^$/$($B@_$:$<$[$}$|$0@X 1$2$3$4$0@5$c#",
"6$}.7$J#T.8$9$0$6@a$b$c$d$e$%$f$V@g$]#>.4 z.5 h$y i$T#j$3 k$l$m$",
"n$o$D p$q$K.v n$H.r$s$t$u$v$3$w$x$y$Y@5 4 4 z$h${@A$$$B$C$D$u@E$",
"*.F$q$G$H$I$W.J$h+K$L$M$l 1$3$t |#N$5 4 4 4 4 O$P$Q$w@A@R$S$T$U$",
"V$W$X$Y$Z$`$4+ %.%e@+%@%N+#%2@g.$%n#y ,.z.z.z.y '.%%Y#&%*%=%-%;%",
")@>%U ,%'%)%!%<.~%{%]%]#^%/%($(%_%:%D$<%]@ .++e.[%s.}%|%1%2%3%4%",
"3%|#U 5%M.h+.%c+6%7%8%9%O$0%a%b%c%d%=$e%f%g%h%i%j%k%l%m%n%o%p%q%",
"r%q 0$s%`.t%>+u%7%!@9%5 4 X+;@7 3$v%v%g.w%x%y%z%E@A%B%C%D%E%F%G%",
"H%n#I%J%`.K%L%M%8%N%5 /.]@t@C$F$O%P%Q%*@0 R%S%E@k#T%U%V%W%X%D Y%",
"Z%`% &.&+&@&h$#&$&h$/.[$%&&&N.*&c#]%C#=&^%6 -&;&#+>&,&'&)&!&~&{&",
"]&^&l@i+2@I+/&6@0@t@(&_&u+:&<&[&}&|&1&k$5 3 2&3&n@U@4&5&6&7&B#8&",
"i#9&0&a&2@(@3+b&c&d&e&f&g&h&i&j&5.Y@k&z ,.,./.<$X l&m&n&}&o&p&B#",
"D@q&r&*#s&t&u&v&w&x&y&z&A&B&C&D&E&F&G&H&I&J&K&L&M&N&O&P&Q&H@. R&"};
