/* XPM */
static char * C_xpm[] = {
"32 32 849 2",
"  	c #F3D692",
". 	c #F7D892",
"+ 	c #F5D58F",
"@ 	c #F6D28D",
"# 	c #F6D18D",
"$ 	c #F7D08D",
"% 	c #F7D28E",
"& 	c #F8D48F",
"* 	c #F7D48F",
"= 	c #F7D591",
"- 	c #F7D898",
"; 	c #F6D898",
"> 	c #F5D997",
", 	c #F5D996",
"' 	c #F7D58B",
") 	c #F7D288",
"! 	c #F5CB83",
"~ 	c #F3C880",
"{ 	c #ECC07C",
"] 	c #E9BD7A",
"^ 	c #ECC17B",
"/ 	c #EFC47C",
"( 	c #F6CA82",
"_ 	c #F1C57F",
": 	c #EABE7B",
"< 	c #E8BA78",
"[ 	c #E7B775",
"} 	c #EBBB77",
"| 	c #ECBE79",
"1 	c #F8D996",
"2 	c #FDDB95",
"3 	c #FCD892",
"4 	c #FAD690",
"5 	c #F9D68F",
"6 	c #FAD590",
"7 	c #FCD590",
"8 	c #FCD893",
"9 	c #FBDC98",
"0 	c #FBDD98",
"a 	c #FADD99",
"b 	c #FADC98",
"c 	c #FAD894",
"d 	c #FAD893",
"e 	c #FBD790",
"f 	c #FBD78F",
"g 	c #FBD389",
"h 	c #FAD287",
"i 	c #F6C983",
"j 	c #F4C781",
"k 	c #F0C47D",
"l 	c #F0C37C",
"m 	c #F6C981",
"n 	c #F9CD83",
"o 	c #FACF83",
"p 	c #FACE82",
"q 	c #F5C77F",
"r 	c #EEBF7A",
"s 	c #EEC079",
"t 	c #F1C47C",
"u 	c #F2C67E",
"v 	c #F8D897",
"w 	c #FDDA95",
"x 	c #FDD791",
"y 	c #F7D68F",
"z 	c #FDD691",
"A 	c #FCDA96",
"B 	c #FBDF9B",
"C 	c #FBE09C",
"D 	c #FBE19D",
"E 	c #FADF9A",
"F 	c #FAD691",
"G 	c #F9D58F",
"H 	c #FBD289",
"I 	c #FBD288",
"J 	c #FBD086",
"K 	c #F9CE85",
"L 	c #F3C681",
"M 	c #F1C380",
"N 	c #F1C57C",
"O 	c #F8CC82",
"P 	c #FDD186",
"Q 	c #FCD184",
"R 	c #FACE80",
"S 	c #F4C67D",
"T 	c #EEBD79",
"U 	c #EFC07A",
"V 	c #F0C47B",
"W 	c #F3C77E",
"X 	c #F8D793",
"Y 	c #FCD993",
"Z 	c #F9DA95",
"` 	c #F9DD99",
" .	c #FBDD9A",
"..	c #FCDC9B",
"+.	c #FCDC9A",
"@.	c #FBDC99",
"#.	c #FADB98",
"$.	c #FAD995",
"%.	c #FBD48C",
"&.	c #FAD48B",
"*.	c #F9D187",
"=.	c #F5C982",
"-.	c #F1C27F",
";.	c #F1C280",
">.	c #F6C982",
",.	c #F8CB83",
"'.	c #F8CB81",
").	c #F7C880",
"!.	c #F4C47C",
"~.	c #F1C179",
"{.	c #F3C57B",
"].	c #F4C87E",
"^.	c #F7CB7F",
"/.	c #F5CB7F",
"(.	c #F7D792",
"_.	c #FAD992",
":.	c #F8D690",
"<.	c #F8DC98",
"[.	c #F9E09F",
"}.	c #FBE0A0",
"|.	c #FCE0A0",
"1.	c #FCDD9C",
"2.	c #FBDA97",
"3.	c #FAD48F",
"4.	c #FAD48E",
"5.	c #FCD38A",
"6.	c #F9D288",
"7.	c #F8D187",
"8.	c #F2C680",
"9.	c #F0C37F",
"0.	c #F0C07E",
"a.	c #F2C27F",
"b.	c #F9CB85",
"c.	c #FBCF86",
"d.	c #F8CC83",
"e.	c #F6CA81",
"f.	c #F6C781",
"g.	c #F5C480",
"h.	c #F3C47A",
"i.	c #F5C77C",
"j.	c #F6CA7F",
"k.	c #F8CD80",
"l.	c #F6CC7F",
"m.	c #FBD690",
"n.	c #F8D593",
"o.	c #F5D595",
"p.	c #F7D696",
"q.	c #F9D796",
"r.	c #FBD792",
"s.	c #FAD28B",
"t.	c #FBD28A",
"u.	c #FBD189",
"v.	c #F7CC85",
"w.	c #F7CB83",
"x.	c #F1C37E",
"y.	c #F0C37D",
"z.	c #F5C781",
"A.	c #F7C983",
"B.	c #F2C67F",
"C.	c #EFC27C",
"D.	c #F0C27D",
"E.	c #F2C37E",
"F.	c #F5C57E",
"G.	c #F8C97F",
"H.	c #F8CA7F",
"I.	c #F9CC7F",
"J.	c #FBCD80",
"K.	c #F8CC7F",
"L.	c #F7D38E",
"M.	c #FDD891",
"N.	c #F7D08F",
"O.	c #F2CB8C",
"P.	c #F4CD8D",
"Q.	c #F7D18D",
"R.	c #F9D38E",
"S.	c #FBD58F",
"T.	c #FBD48D",
"U.	c #FBD188",
"V.	c #FBD087",
"W.	c #FBD08C",
"X.	c #FCD08F",
"Y.	c #FAC883",
"Z.	c #FAC57A",
"`.	c #F8C377",
" +	c #F7C475",
".+	c #FBCA78",
"++	c #FCCE7D",
"@+	c #F5C880",
"#+	c #EEC27B",
"$+	c #EABD79",
"%+	c #ECBF7B",
"&+	c #EFC27D",
"*+	c #FCCC82",
"=+	c #FBCC80",
"-+	c #FBCC7E",
";+	c #FDCD7F",
">+	c #FACC7F",
",+	c #F9D48E",
"'+	c #F8D18C",
")+	c #F4CC89",
"!+	c #F1C887",
"~+	c #F7D08B",
"{+	c #FAD38D",
"]+	c #FCD68F",
"^+	c #FAD38C",
"/+	c #F9D297",
"(+	c #FBE3C3",
"_+	c #FDECD9",
":+	c #FEECD8",
"<+	c #FEE6C8",
"[+	c #FDD5A4",
"}+	c #FBB667",
"|+	c #FBA742",
"1+	c #FBA941",
"2+	c #FCB348",
"3+	c #FBC158",
"4+	c #F7C86A",
"5+	c #F0C177",
"6+	c #EDBE79",
"7+	c #EFC07C",
"8+	c #F3C37F",
"9+	c #F7C780",
"0+	c #FBCC82",
"a+	c #FBCE84",
"b+	c #FACF85",
"c+	c #F4C87D",
"d+	c #F6D08B",
"e+	c #F2CC86",
"f+	c #F2C884",
"g+	c #F1C583",
"h+	c #F4CB87",
"i+	c #FBD9A3",
"j+	c #FCEEDE",
"k+	c #FFF9F2",
"l+	c #FFF7EC",
"m+	c #FFF0DC",
"n+	c #FEE8CA",
"o+	c #FEDEB3",
"p+	c #FCCA8F",
"q+	c #FAA34B",
"r+	c #F99105",
"s+	c #F9950C",
"t+	c #FBA217",
"u+	c #FBB528",
"v+	c #F8C14F",
"w+	c #F2C172",
"x+	c #F3C27E",
"y+	c #F7C482",
"z+	c #F8C781",
"A+	c #FACB82",
"B+	c #FAD38B",
"C+	c #F6CE86",
"D+	c #EDC37B",
"E+	c #F3CC8B",
"F+	c #F1C885",
"G+	c #F3C986",
"H+	c #F4CA86",
"I+	c #F5CC88",
"J+	c #F6CE8A",
"K+	c #F7CE8A",
"L+	c #F7D194",
"M+	c #FCEDD9",
"N+	c #FFFBF3",
"O+	c #FFF5E8",
"P+	c #FFEED6",
"Q+	c #FEE5C3",
"R+	c #FEDDB1",
"S+	c #FDD59F",
"T+	c #FDCD8C",
"U+	c #FBB869",
"V+	c #FA9829",
"W+	c #F99003",
"X+	c #F99403",
"Y+	c #FBA103",
"Z+	c #FCB70E",
"`+	c #F9C552",
" @	c #F3C378",
".@	c #F3C17E",
"+@	c #F6C47E",
"@@	c #F8C981",
"#@	c #F8CE87",
"$@	c #F1CA86",
"%@	c #E6BD7B",
"&@	c #EFC587",
"*@	c #F2C687",
"=@	c #F0C384",
"-@	c #F5CB89",
";@	c #F9D18C",
">@	c #F7CF8A",
",@	c #F5CB88",
"'@	c #F2C685",
")@	c #F6D3A9",
"!@	c #FFF9F0",
"~@	c #FFF4E5",
"{@	c #FFECD1",
"]@	c #FEE3BE",
"^@	c #FEDAAC",
"/@	c #FDD39A",
"(@	c #FDCB88",
"_@	c #FCC375",
":@	c #FCBA62",
"<@	c #FA9F35",
"[@	c #F99107",
"}@	c #F99703",
"|@	c #FBA902",
"1@	c #FDC112",
"2@	c #F6C560",
"3@	c #EDBB75",
"4@	c #F1C079",
"5@	c #F6C77E",
"6@	c #F6CB86",
"7@	c #F3CE8E",
"8@	c #EBC587",
"9@	c #DDB67B",
"0@	c #ECC283",
"a@	c #F3C787",
"b@	c #F6CC8A",
"c@	c #F9D18D",
"d@	c #F6CD89",
"e@	c #F3C985",
"f@	c #F4C584",
"g@	c #FDE1C1",
"h@	c #FFF2E2",
"i@	c #FFE9CD",
"j@	c #FEE0B9",
"k@	c #FED9A6",
"l@	c #FDD194",
"m@	c #FDC882",
"n@	c #FCC070",
"o@	c #FCB85E",
"p@	c #FBB04C",
"q@	c #FAA030",
"r@	c #F9920B",
"s@	c #F99203",
"t@	c #FA9E03",
"u@	c #FCB701",
"v@	c #FCC834",
"w@	c #F2C171",
"x@	c #F3C27A",
"y@	c #EEC585",
"z@	c #EABF81",
"A@	c #E0B678",
"B@	c #E9BD7C",
"C@	c #F8D08C",
"D@	c #F8CF8C",
"E@	c #F8CD8D",
"F@	c #F5C888",
"G@	c #F1C482",
"H@	c #F8C67F",
"I@	c #FEE0BB",
"J@	c #FEE8C9",
"K@	c #FEDEB4",
"L@	c #FDD6A2",
"M@	c #FDCE8F",
"N@	c #FCC67D",
"O@	c #FCBE6B",
"P@	c #FBB659",
"Q@	c #FBAE47",
"R@	c #FBA737",
"S@	c #FA9C22",
"T@	c #F99108",
"U@	c #F99103",
"V@	c #FA9803",
"W@	c #FCAF02",
"X@	c #FEC704",
"Y@	c #FACA64",
"Z@	c #F8C77F",
"`@	c #F7C77E",
" #	c #EEBE77",
".#	c #E5B271",
"+#	c #E8B672",
"@#	c #E8B772",
"##	c #ECC281",
"$#	c #FAD28D",
"%#	c #F8CF8D",
"&#	c #F8CD8C",
"*#	c #F6C887",
"=#	c #F4C582",
"-#	c #FBC47A",
";#	c #FDCD96",
">#	c #FEDCAF",
",#	c #FDD49D",
"'#	c #FDCD8B",
")#	c #FCC478",
"!#	c #FCBC66",
"~#	c #FBB454",
"{#	c #FBAC43",
"]#	c #FBA633",
"^#	c #FB9F24",
"/#	c #FA9713",
"(#	c #F99104",
"_#	c #F99503",
":#	c #FBAA02",
"<#	c #FDC401",
"[#	c #FDCE4A",
"}#	c #F7C57E",
"|#	c #F4C37B",
"1#	c #EDBC76",
"2#	c #E6B472",
"3#	c #EAB874",
"4#	c #ECBB74",
"5#	c #F6D28E",
"6#	c #F9CF8B",
"7#	c #F6CA87",
"8#	c #F7CA86",
"9#	c #F8CB89",
"0#	c #FCCC8F",
"a#	c #FBAF5F",
"b#	c #FDCF93",
"c#	c #FDCA85",
"d#	c #FCC173",
"e#	c #FCBA61",
"f#	c #FBB24F",
"g#	c #FBAA3E",
"h#	c #FAA22F",
"i#	c #F89A21",
"j#	c #F99714",
"k#	c #F99207",
"l#	c #FBA904",
"m#	c #FDC618",
"n#	c #FED138",
"o#	c #F1C07B",
"p#	c #E8B573",
"q#	c #E8B674",
"r#	c #EBB875",
"s#	c #F2C178",
"t#	c #F7C87A",
"u#	c #F6D390",
"v#	c #FCD791",
"w#	c #F7CB86",
"x#	c #F9D6A3",
"y#	c #FDE1BD",
"z#	c #FBB05A",
"A#	c #FBB05E",
"B#	c #FCBE6D",
"C#	c #FBB75C",
"D#	c #FBAF4A",
"E#	c #FBA839",
"F#	c #FAA12B",
"G#	c #F28E1C",
"H#	c #E97811",
"I#	c #F18407",
"J#	c #F98F04",
"K#	c #FBAC08",
"L#	c #FECD2B",
"M#	c #FEDA48",
"N#	c #EAB774",
"O#	c #EDBB76",
"P#	c #F3C379",
"Q#	c #F6C87B",
"R#	c #F3D896",
"S#	c #FAD996",
"T#	c #FAD48D",
"U#	c #FAD087",
"V#	c #F8D086",
"W#	c #F9DAA3",
"X#	c #FDE3BF",
"Y#	c #FBAF58",
"Z#	c #F9961F",
"`#	c #FAA641",
" $	c #FBAB43",
".$	c #FBA635",
"+$	c #FBA026",
"@$	c #FA9A19",
"#$	c #EF830E",
"$$	c #DF5705",
"%$	c #ED7B04",
"&$	c #F99802",
"*$	c #FCB109",
"=$	c #FED031",
"-$	c #FBDB54",
";$	c #E1AE6F",
">$	c #F2C179",
",$	c #FACB7E",
"'$	c #F9CB7D",
")$	c #F2C87A",
"!$	c #FADB97",
"~$	c #FBD995",
"{$	c #F8CF86",
"]$	c #F7D494",
"^$	c #FDE5C4",
"/$	c #FBB767",
"($	c #FA940F",
"_$	c #F99619",
":$	c #FA991B",
"<$	c #F9930A",
"[$	c #F68B04",
"}$	c #EF8003",
"|$	c #F58903",
"1$	c #FA9D02",
"2$	c #FDB90E",
"3$	c #FED53A",
"4$	c #F7D557",
"5$	c #E2AF6F",
"6$	c #ECB975",
"7$	c #F3C37A",
"8$	c #FBCC7F",
"9$	c #FACC7E",
"0$	c #F2C97A",
"a$	c #F3D38E",
"b$	c #F9D48F",
"c$	c #FAD18C",
"d$	c #F7CC87",
"e$	c #F5C883",
"f$	c #F3C682",
"g$	c #F1C681",
"h$	c #FCE3C0",
"i$	c #FCC683",
"j$	c #FA9C25",
"k$	c #F99002",
"l$	c #FA9103",
"m$	c #FB9303",
"n$	c #F99603",
"o$	c #FBA802",
"p$	c #FDC10B",
"q$	c #FFD62F",
"r$	c #F9CF5C",
"s$	c #F3C27B",
"t$	c #F7C67D",
"u$	c #F9C97D",
"v$	c #F9CE7E",
"w$	c #F1CC7D",
"x$	c #F1D08B",
"y$	c #F7D18B",
"z$	c #F7CE88",
"A$	c #F5C984",
"B$	c #F2C480",
"C$	c #F9D9A8",
"D$	c #FED79F",
"E$	c #F99307",
"F$	c #FAA102",
"G$	c #FCB602",
"H$	c #FEC901",
"I$	c #FED31D",
"J$	c #F8CB70",
"K$	c #F7C97F",
"L$	c #F9CA7F",
"M$	c #F9CB7F",
"N$	c #F9CF7F",
"O$	c #F2CE7F",
"P$	c #ECC280",
"Q$	c #F2C682",
"R$	c #F2C582",
"S$	c #F0C380",
"T$	c #EFC27E",
"U$	c #F1C480",
"V$	c #F7CD8A",
"W$	c #FDDEA8",
"X$	c #FDC364",
"Y$	c #FB9D15",
"Z$	c #FA9503",
"`$	c #FAA002",
" %	c #FCB302",
".%	c #FDC601",
"+%	c #FED100",
"@%	c #FCD457",
"#%	c #FBD888",
"$%	c #FBD589",
"%%	c #FCD185",
"&%	c #F9CE81",
"*%	c #F9D284",
"=%	c #F3D285",
"-%	c #EBC07E",
";%	c #F2C581",
">%	c #F1C581",
",%	c #F0C480",
"'%	c #EFC27F",
")%	c #FED57C",
"!%	c #FCB532",
"~%	c #FB9F04",
"{%	c #F99303",
"]%	c #FA9B03",
"^%	c #FBA502",
"/%	c #FCB402",
"(%	c #FED003",
"_%	c #FDD53C",
":%	c #FAD87E",
"<%	c #FCDC90",
"[%	c #FCD88B",
"}%	c #FBD386",
"|%	c #FAD185",
"1%	c #F9D083",
"2%	c #F9D385",
"3%	c #F3D286",
"4%	c #F2C882",
"5%	c #F8CE85",
"6%	c #F8CD87",
"7%	c #F8CC88",
"8%	c #F7CB87",
"9%	c #F7CA85",
"0%	c #F9CD79",
"a%	c #FCCC53",
"b%	c #FDBB19",
"c%	c #FCAC03",
"d%	c #FAA203",
"e%	c #FAA103",
"f%	c #FAA302",
"g%	c #FCB202",
"h%	c #FDBD01",
"i%	c #FEC801",
"j%	c #FED005",
"k%	c #FED43A",
"l%	c #FBD97B",
"m%	c #F9DA90",
"n%	c #FAD98F",
"o%	c #F9D68A",
"p%	c #FAD386",
"q%	c #FAD388",
"r%	c #FAD286",
"s%	c #F4CD82",
"t%	c #F5CC84",
"u%	c #FAD08A",
"v%	c #F9CC88",
"w%	c #F7C985",
"x%	c #F7C884",
"y%	c #F7C683",
"z%	c #F3C66A",
"A%	c #F9C945",
"B%	c #FDC414",
"C%	c #FDC002",
"D%	c #FDBD02",
"E%	c #FDBC02",
"F%	c #FDBE01",
"G%	c #FDC301",
"H%	c #FECE01",
"I%	c #FDD219",
"J%	c #FCD34A",
"K%	c #FAD77A",
"L%	c #FBDD93",
"M%	c #F9DA91",
"N%	c #F8D88D",
"O%	c #F8D589",
"P%	c #F8D385",
"Q%	c #F9D487",
"R%	c #FBD588",
"S%	c #FAD285",
"T%	c #F4CA7F",
"U%	c #F5CB84",
"V%	c #FCD288",
"W%	c #FCD289",
"X%	c #FACF86",
"Y%	c #F8CD85",
"Z%	c #F3C580",
"`%	c #EEBE7B",
" &	c #EEBD7B",
".&	c #EFBE7C",
"+&	c #F0C07D",
"@&	c #F1C373",
"#&	c #F0C056",
"$&	c #F6C740",
"%&	c #FCCB2B",
"&&	c #FECE13",
"*&	c #FFD006",
"=&	c #FED019",
"-&	c #FDD232",
";&	c #FCD24C",
">&	c #FAD268",
",&	c #F8D37F",
"'&	c #F9D68B",
")&	c #FBD88E",
"!&	c #F8D588",
"~&	c #F9D386",
"{&	c #FAD284",
"]&	c #F9CF81",
"^&	c #F4C87C",
"/&	c #F5CA84",
"(&	c #FCD087",
"_&	c #F5C981",
":&	c #EFC17B",
"<&	c #E9B775",
"[&	c #E9B875",
"}&	c #EBBB78",
"|&	c #EEBF7B",
"1&	c #F4C682",
"2&	c #F0C27F",
"3&	c #E6B574",
"4&	c #E8B76E",
"5&	c #E8BC6A",
"6&	c #EBBF69",
"7&	c #F6CD73",
"8&	c #F9D176",
"9&	c #FDD77D",
"0&	c #FEDA83",
"a&	c #FBD78A",
"b&	c #FAD68A",
"c&	c #FAD58A",
"d&	c #FBD488",
"e&	c #F9D080",
"f&	c #F8CC7D",
"g&	c #F2C477",
"h&	c #F3C884",
"i&	c #F5C882",
"j&	c #F3C47E",
"k&	c #F1C37D",
"l&	c #F0C27C",
"m&	c #F0C17B",
"n&	c #F1C47D",
"o&	c #EFC07B",
"p&	c #E9B976",
"q&	c #E9B977",
"r&	c #ECBD7C",
"s&	c #EDC07D",
"t&	c #F0CB87",
"u&	c #F1CC88",
"v&	c #F8D58D",
"w&	c #FAD78E",
"x&	c #FCD98F",
"y&	c #FCDA8F",
"z&	c #FBD78B",
"A&	c #FAD589",
"B&	c #FBD286",
"C&	c #FBD084",
"D&	c #F9D285",
"E&	c #F8D386",
"F&	c #F7CA7C",
"G&	c #F4C578",
"H&	c #EBBC71",
"I&	c #ECBA78",
"J&	c #EBB976",
"K&	c #E9B876",
"L&	c #F3C77F",
"M&	c #EDBF79",
"N&	c #E1AF6E",
"O&	c #E5B573",
"P&	c #F4C983",
"Q&	c #F5CD86",
"R&	c #FCDB92",
"S&	c #FDDC93",
"T&	c #FCDB91",
"U&	c #FBD991",
"V&	c #FAD890",
"W&	c #F9D38A",
"X&	c #FBCF81",
"Y&	c #F9D388",
"Z&	c #FAD081",
"`&	c #F9CC7D",
" *	c #F6C579",
".*	c #F1BF74",
"+*	c #E5B46C",
"@*	c #EFC17D",
"#*	c #F1C27D",
"$*	c #EEBF7C",
"%*	c #E8B776",
"&*	c #E3B172",
"**	c #E5B474",
"=*	c #E8B977",
"-*	c #E8B976",
";*	c #E8B975",
">*	c #E8BA77",
",*	c #ECC07B",
"'*	c #F8D289",
")*	c #F8D38A",
"!*	c #FAD68C",
"~*	c #FAD78C",
"{*	c #FAD488",
"]*	c #FAD288",
"^*	c #F9D087",
"/*	c #F7CB81",
"(*	c #F6CA7E",
"_*	c #F8CB7F",
":*	c #F8CD81",
"<*	c #F9D387",
"[*	c #FAD385",
"}*	c #FACD7E",
"|*	c #F9CA7D",
"1*	c #F8C67A",
"2*	c #F3C175",
"3*	c #E7B76C",
"4*	c #EBBC77",
"5*	c #E6B677",
"6*	c #DFAC70",
"7*	c #DEAC70",
"8*	c #DFAE71",
"9*	c #DFAE6F",
"0*	c #DEAE6C",
"a*	c #E5B673",
"b*	c #F0C581",
"c*	c #F3CB84",
"d*	c #FBD98D",
"e*	c #FAD98C",
"f*	c #F8D286",
"g*	c #F8D185",
"h*	c #F9CD7F",
"i*	c #F8C97E",
"j*	c #F7C67C",
"k*	c #F3C277",
"l*	c #F1C175",
"m*	c #F3C67C",
"n*	c #F4CB81",
"o*	c #F7D388",
"p*	c #F9C97B",
"q*	c #F8C87A",
"r*	c #F4C375",
"s*	c #EBBB6E",
"t*	c #E3B371",
"u*	c #EBBC78",
"v*	c #EBBE7B",
"w*	c #E6B874",
"x*	c #E7B874",
"y*	c #E7B873",
"z*	c #EBC07B",
"A*	c #F5CF88",
"B*	c #F6D289",
"C*	c #FBD78C",
"D*	c #F8D183",
"E*	c #F8D082",
"F*	c #F5C679",
"G*	c #EEBD72",
"H*	c #EBBB71",
"I*	c #EDC077",
"J*	c #EFC67C",
"K*	c #F4CE83",
"L*	c #F9D488",
"M*	c #F8CE81",
"N*	c #F7C779",
"O*	c #F8C879",
"P*	c #F9C978",
"Q*	c #F7C776",
"R*	c #F0C171",
"S*	c #D2A466",
"T*	c #DDAF6F",
"U*	c #DFB372",
"V*	c #E2B673",
"W*	c #E4B974",
"X*	c #E5BA74",
"Y*	c #E5BB74",
"Z*	c #E6BC75",
"`*	c #E7BC76",
" =	c #EBC47D",
".=	c #F1D18B",
"+=	c #F1D18A",
"@=	c #F2CE85",
"#=	c #F2CC83",
"$=	c #F1C77B",
"%=	c #F1C77A",
"&=	c #F4C67B",
"*=	c #F2C57A",
"==	c #E7B86D",
"-=	c #E0B06A",
";=	c #DEAD69",
">=	c #E1B46E",
",=	c #E4BA73",
"'=	c #E9C27A",
")=	c #EEC87F",
"!=	c #EDC379",
"~=	c #EDBE73",
"{=	c #EFC173",
"]=	c #F1C473",
"^=	c #EEC071",
"  . + @ # $ $ % & * * = - ; > , ' ) ! ~ { ] ^ / ~ ( _ : < [ } | ",
"1 2 3 4 5 6 7 8 9 0 a b c d e f g h i j k l m n o p q r r s t u ",
"v w x 4 y 4 z A B C D E F G H I J K L M k N O P Q R S T U V W ~ ",
"X Y 4 Z `  ...+.@.#.$.d %.&.h *.=.j -.;.>.,.n n '.).!.~.{.].^./.",
"(._.:.<.[.}.|.1.2.c 3.4.5.g 6.7.8.9.0.a.b.c.d.e.f.g.!.h.i.j.k.l.",
"* 3 m.n.o.p.q.c r.6 s.t.t.u.v.w.x.y.z.A.d.,.B.C.D.E.F.G.H.I.J.K.",
"L.M.z N.O.P.Q.R.S.T.U.V.W.X.Y.Z.`. +.+++k.@+#+$+%+&+q *+=+-+;+>+",
"@ ,+'+)+!+)+~+{+]+^+/+(+_+:+<+[+}+|+1+2+3+4+5+6+7+8+9+0+a+b+n c+",
"@ d+e+f+g+h+~+4.x i+j+k+l+m+n+o+p+q+r+s+t+u+v+w+x+y+z+A+V.B+C+D+",
"E+)+F+G+H+I+J+K+L+M+N+O+P+Q+R+S+T+U+V+W+X+Y+Z+`+ @.@+@@@#@Q.$@%@",
"&@*@=@-@;@>@,@'@)@!@~@{@]@^@/@(@_@:@<@[@W+}@|@1@2@3@4@5@6@7@8@9@",
"0@a@a@b@c@d@e@f@g@h@i@j@k@l@m@n@o@p@q@r@W+s@t@u@v@w@x@5@L y@z@A@",
"B@I+C@D@E@F@G@H@I@J@K@L@M@N@O@P@Q@R@S@T@W+U@V@W@X@Y@Z@`@ #.#+#@#",
"##K+$#%#&#*#=#-#;#>#,#'#)#!#~#{#]#^#/#(#W+W+_#:#<#[#}#|#1#2#3#4#",
"5#x z 6#7#8#9#0#a#b#c#d#e#f#g#h#i#j#k#W+W+W+X+l#m#n#o#p#q#r#s#t#",
"u#3 v#6#w#w#x#y#z#A#B#C#D#E#F#G#H#I#J#W+W+W+_#K#L#M#T p#N#O#P#Q#",
"R##.S#T#U#V#W#X#Y#Z#`# $.$+$@$#$$$%$U@W+W+W+&$*$=$-$;$N#>$,$'$)$",
"R#!$~$T#U#{$]$^$/$($[@_$:$/#<$[$}$|$W+W+W+s@1$2$3$4$5$6$7$8$9$0$",
"a$b$c$d$e$f$g$h$i$j$W+k$k$k$W+l$m$l$W+W+W+n$o$p$q$r$s$t$u$-+v$w$",
"x$y$z$A$L B$9.C$D$ $E$W+W+W+W+W+W+W+W+W+X+F$G$H$I$J$K$L$M$9$N$O$",
"P$Q$R$S$T$9.U$V$W$X$Y$s@W+W+W+W+W+W+U@Z$`$ %.%+%@%#%$%%%o &%*%=%",
"-%;%>%,%'%U$;%i 5.)%!%~%}@X+s@s@{%_#]%^%/%<#(%_%:%<%[%}%|%1%2%3%",
"4%5%5%6%7%8%8#9%b.0%a%b%c%^%d%e%f%|@g%h%i%j%k%l%m%n%o%2%p%q%r%s%",
"t%U.U.u.u%v%w%x%y%8+z%A%B%C%D%E%F%G%i%H%I%J%K%L%M%N%O%P%Q%R%S%T%",
"U%V%W%X%Y%Z%`% &.&+&B$@&#&$&%&&&*&=&-&;&>&,&'&)&'&!&!&Q%~&{&]&^&",
"/&(&V.d._&:&<&[&}&|&1&2&3&4&5&6&7&8&9&0&a&b&c&d&~&P%Q%Q%*%e&f&g&",
"h&i&j&k&l&l&m&l&n&o&p&q&r&s&t&u&v&w&x&y&z&A&B&C&D&E&~&{&]&F&G&H&",
"G@+&I&J&K&r u L&L&M&N&O&P&Q&R&S&R&T&U&V&W&|%X&J.|%Y&S%Z&`& *.*+*",
"@*#*$*%*&***=*-*;*;*>*,*'*)*!*~*d&{*]*^*/*(*_*:*<*z&[*}*|*1*2*3*",
"4*D.'%5*6*7*8*9*0*a*b*c*d*e*f*g*R h*i*j*k*l*m*n*o*d*S%p*p*q*r*s*",
"t*u*v*=*a*a*w*x*y*z*A*B*C*b&D*E*R 9$F*k*G*H*I*J*K*L*M*N*O*P*Q*R*",
"S*T*U*V*W*X*Y*Z*`* =.=+=@=#=$=%=&=*=H&==-=;=>=,='=)=!=~={=]=]=^="};
