/* XPM */
static char * E1_xpm[] = {
"32 32 924 2",
"  	c #F3D692",
". 	c #F7D892",
"+ 	c #F5D58F",
"@ 	c #F6D28D",
"# 	c #F6D18D",
"$ 	c #F7D08D",
"% 	c #F7D28E",
"& 	c #F8D48F",
"* 	c #F7D48F",
"= 	c #F7D591",
"- 	c #F7D898",
"; 	c #F6D898",
"> 	c #F5D997",
", 	c #F5D996",
"' 	c #F7D58B",
") 	c #F7D288",
"! 	c #F5CB83",
"~ 	c #F3C880",
"{ 	c #ECC07C",
"] 	c #E9BD7A",
"^ 	c #ECC17B",
"/ 	c #EFC47C",
"( 	c #F6CA82",
"_ 	c #F1C57F",
": 	c #EABE7B",
"< 	c #E8BA78",
"[ 	c #E7B775",
"} 	c #EBBB77",
"| 	c #ECBE79",
"1 	c #F8D996",
"2 	c #FDDB95",
"3 	c #FCD892",
"4 	c #FAD690",
"5 	c #F9D68F",
"6 	c #FAD590",
"7 	c #FCD590",
"8 	c #FCD893",
"9 	c #FBDC98",
"0 	c #FBDD98",
"a 	c #FADD99",
"b 	c #FADC98",
"c 	c #FAD894",
"d 	c #FAD893",
"e 	c #FBD790",
"f 	c #FBD78F",
"g 	c #FBD389",
"h 	c #FAD287",
"i 	c #F6C983",
"j 	c #F4C781",
"k 	c #F0C47D",
"l 	c #F0C37C",
"m 	c #F6C981",
"n 	c #F9CD83",
"o 	c #FACF83",
"p 	c #FACE82",
"q 	c #F5C77F",
"r 	c #EEBF7A",
"s 	c #EEC079",
"t 	c #F1C47C",
"u 	c #F2C67E",
"v 	c #F8D897",
"w 	c #FDDA95",
"x 	c #FDD791",
"y 	c #F7D68F",
"z 	c #FDD691",
"A 	c #FCDA96",
"B 	c #FBDF9B",
"C 	c #FBE09C",
"D 	c #FBE19D",
"E 	c #FADF9A",
"F 	c #FAD691",
"G 	c #F9D58F",
"H 	c #FBD289",
"I 	c #FBD288",
"J 	c #FBD086",
"K 	c #F9CE85",
"L 	c #F3C681",
"M 	c #F1C380",
"N 	c #F1C57C",
"O 	c #F8CC82",
"P 	c #FDD186",
"Q 	c #FCD184",
"R 	c #FACE80",
"S 	c #F4C67D",
"T 	c #EEBD79",
"U 	c #EFC07A",
"V 	c #F0C47B",
"W 	c #F3C77E",
"X 	c #F8D793",
"Y 	c #FCD993",
"Z 	c #F9DA95",
"` 	c #F9DD99",
" .	c #FBDD9A",
"..	c #FCDC9B",
"+.	c #FCDC9A",
"@.	c #FBDC99",
"#.	c #FADB98",
"$.	c #FAD995",
"%.	c #FBD48C",
"&.	c #FAD48B",
"*.	c #F9D187",
"=.	c #F5C982",
"-.	c #F1C27F",
";.	c #F1C280",
">.	c #F6C982",
",.	c #F8CB83",
"'.	c #F8CB81",
").	c #F7C880",
"!.	c #F4C47C",
"~.	c #F1C179",
"{.	c #F3C57B",
"].	c #F4C87E",
"^.	c #F7CB7F",
"/.	c #F5CB7F",
"(.	c #F7D792",
"_.	c #FAD992",
":.	c #F8D690",
"<.	c #F8DC98",
"[.	c #F9E09F",
"}.	c #FBE0A0",
"|.	c #FCE0A0",
"1.	c #FCDD9C",
"2.	c #FBDA97",
"3.	c #FAD48F",
"4.	c #FAD48E",
"5.	c #FCD38A",
"6.	c #F9D288",
"7.	c #F8D187",
"8.	c #F2C680",
"9.	c #F0C37F",
"0.	c #F0C07E",
"a.	c #F2C27F",
"b.	c #F9CB85",
"c.	c #FBCF86",
"d.	c #F8CC83",
"e.	c #F6CA81",
"f.	c #F6C781",
"g.	c #F5C480",
"h.	c #F3C47A",
"i.	c #F5C77C",
"j.	c #F6CA7F",
"k.	c #F8CD80",
"l.	c #F6CC7F",
"m.	c #FBD690",
"n.	c #39406A",
"o.	c #61605D",
"p.	c #838056",
"q.	c #828077",
"r.	c #FBD792",
"s.	c #FAD28B",
"t.	c #FBD28A",
"u.	c #FBD189",
"v.	c #F7CC86",
"w.	c #F6CB84",
"x.	c #EFC27E",
"y.	c #EFC27D",
"z.	c #F5C781",
"A.	c #F7C983",
"B.	c #F2C67F",
"C.	c #EFC27C",
"D.	c #F0C27D",
"E.	c #F2C37E",
"F.	c #F5C57E",
"G.	c #F8C97F",
"H.	c #F8CA7F",
"I.	c #F9CC7F",
"J.	c #FBCD80",
"K.	c #F8CC7F",
"L.	c #F7D38E",
"M.	c #FDD891",
"N.	c #DDBC8B",
"O.	c #9C9B38",
"P.	c #CBBB2B",
"Q.	c #D8C44B",
"R.	c #D7C65E",
"S.	c #B5AF6D",
"T.	c #FBD58F",
"U.	c #FBD48D",
"V.	c #FBD188",
"W.	c #FBD18B",
"X.	c #FBD08A",
"Y.	c #F6C784",
"Z.	c #F5C682",
"`.	c #EDC07C",
" +	c #EEC17C",
".+	c #F9CC84",
"++	c #FBCE86",
"@+	c #F7CB82",
"#+	c #F5C880",
"$+	c #EEC27B",
"%+	c #EABD79",
"&+	c #ECBF7B",
"*+	c #FCCC82",
"=+	c #FBCC80",
"-+	c #FBCC7E",
";+	c #FDCD7F",
">+	c #FACC7F",
",+	c #F9D48E",
"'+	c #F8D18C",
")+	c #484F61",
"!+	c #B6B130",
"~+	c #D8C442",
"{+	c #DAC653",
"]+	c #D9C75A",
"^+	c #CCC16C",
"/+	c #868071",
"(+	c #F8CD86",
"_+	c #F7CB85",
":+	c #F4C783",
"<+	c #F4C683",
"[+	c #F2C380",
"}+	c #F3C780",
"|+	c #F4C881",
"1+	c #F8CD84",
"2+	c #F9CE84",
"3+	c #F5C87F",
"4+	c #F2C47C",
"5+	c #EFC079",
"6+	c #EDBE79",
"7+	c #EFC07C",
"8+	c #F3C37F",
"9+	c #F7C780",
"0+	c #FBCC82",
"a+	c #FBCE84",
"b+	c #FACF85",
"c+	c #F4C87D",
"d+	c #F6D08B",
"e+	c #F2CC86",
"f+	c #F2C884",
"g+	c #626C55",
"h+	c #C5BD35",
"i+	c #D9C749",
"j+	c #D3C15F",
"k+	c #988C46",
"l+	c #AFA561",
"m+	c #A6A572",
"n+	c #F2C581",
"o+	c #ECBB7A",
"p+	c #EEC07D",
"q+	c #EFC17E",
"r+	c #F8CE85",
"s+	c #F9CF86",
"t+	c #F7CD82",
"u+	c #F0C078",
"v+	c #F0C079",
"w+	c #F3C27E",
"x+	c #F7C482",
"y+	c #F8C781",
"z+	c #FACB82",
"A+	c #FBD087",
"B+	c #FAD38B",
"C+	c #F6CE86",
"D+	c #EDC37B",
"E+	c #F3CC8B",
"F+	c #F4CC89",
"G+	c #F1C885",
"H+	c #F3C986",
"I+	c #F4CA86",
"J+	c #818749",
"K+	c #CCC131",
"L+	c #AB9F49",
"M+	c #696045",
"N+	c #655837",
"O+	c #CDC25E",
"P+	c #C2BB71",
"Q+	c #73747C",
"R+	c #F0C17E",
"S+	c #F3C781",
"T+	c #FACF86",
"U+	c #FAD086",
"V+	c #F5C980",
"W+	c #F5C67D",
"X+	c #F3C47C",
"Y+	c #F2C37C",
"Z+	c #F2C27D",
"`+	c #F3C17E",
" @	c #F6C47E",
".@	c #F8C981",
"+@	c #F8CE87",
"@@	c #F7D18D",
"#@	c #F1CA86",
"$@	c #E6BD7B",
"%@	c #EFC587",
"&@	c #F2C687",
"*@	c #F0C384",
"=@	c #F5CB89",
"-@	c #F9D18C",
";@	c #C6AA86",
">@	c #999B33",
",@	c #B6AE37",
"'@	c #5F4C2A",
")@	c #7C693B",
"!@	c #D5C562",
"~@	c #D9CA61",
"{@	c #D4C76F",
"]@	c #9F9B70",
"^@	c #5A6A8A",
"/@	c #F9CF85",
"(@	c #F9D086",
"_@	c #F9C981",
":@	c #FBCB83",
"<@	c #F8CA82",
"[@	c #F1C17B",
"}@	c #EDBA77",
"|@	c #F1C079",
"1@	c #F6C77E",
"2@	c #F6CB86",
"3@	c #F3CE8E",
"4@	c #EBC587",
"5@	c #DDB67B",
"6@	c #ECC283",
"7@	c #F3C787",
"8@	c #F6CC8A",
"9@	c #F9D18D",
"0@	c #F6CD89",
"a@	c #3F5673",
"b@	c #ADB030",
"c@	c #CBBF3D",
"d@	c #D6C457",
"e@	c #D9C759",
"f@	c #DCC85A",
"g@	c #D1C04A",
"h@	c #D5C33D",
"i@	c #D2C452",
"j@	c #B1AC67",
"k@	c #6D7882",
"l@	c #F6C880",
"m@	c #F6C77F",
"n@	c #FACB83",
"o@	c #FBCC83",
"p@	c #F6C780",
"q@	c #F3C47D",
"r@	c #F1C07B",
"s@	c #F0BE79",
"t@	c #F3C27A",
"u@	c #EEC585",
"v@	c #EABF81",
"w@	c #E0B678",
"x@	c #E9BD7C",
"y@	c #F5CC88",
"z@	c #F8D08C",
"A@	c #F8CF8C",
"B@	c #F8CD8D",
"C@	c #F5C888",
"D@	c #F1C482",
"E@	c #586A66",
"F@	c #C0BD27",
"G@	c #CDC22A",
"H@	c #C6B63D",
"I@	c #BAA930",
"J@	c #CBBC23",
"K@	c #D0C120",
"L@	c #C9B922",
"M@	c #BCAD23",
"N@	c #C7BA4C",
"O@	c #B0AD6A",
"P@	c #727A82",
"Q@	c #FBCF85",
"R@	c #FBCF84",
"S@	c #FACD82",
"T@	c #F1C17A",
"U@	c #ECB976",
"V@	c #F2BF7A",
"W@	c #F7C57E",
"X@	c #F8C77F",
"Y@	c #F7C77E",
"Z@	c #EEBE77",
"`@	c #E5B271",
" #	c #E8B672",
".#	c #E8B772",
"+#	c #ECC281",
"@#	c #F7CE8A",
"##	c #FAD28D",
"$#	c #F8CF8D",
"%#	c #F8CD8C",
"&#	c #F6C887",
"*#	c #F3C583",
"=#	c #C4A582",
"-#	c #737C43",
";#	c #94861E",
">#	c #A18D2D",
",#	c #BFAE2B",
"'#	c #C6B531",
")#	c #C9B640",
"!#	c #CFB94F",
"~#	c #D7BF58",
"{#	c #DAC45B",
"]#	c #D8C55C",
"^#	c #D0C36D",
"/#	c #7C7666",
"(#	c #C7C8D4",
"_#	c #A6ABC9",
":#	c #5D76AF",
"<#	c #AD9598",
"[#	c #F3C17C",
"}#	c #F8C67F",
"|#	c #F4C37B",
"1#	c #EDBC76",
"2#	c #E6B472",
"3#	c #EAB874",
"4#	c #ECBB74",
"5#	c #F6D28E",
"6#	c #F9CF8B",
"7#	c #F6CA87",
"8#	c #8B9569",
"9#	c #ADAC5F",
"0#	c #C1B85D",
"a#	c #CFC164",
"b#	c #DAC560",
"c#	c #DDC75C",
"d#	c #DBC758",
"e#	c #DBC759",
"f#	c #D8C256",
"g#	c #D5BE54",
"h#	c #D7C058",
"i#	c #D7C25A",
"j#	c #DBC66B",
"k#	c #7F734E",
"l#	c #A5A2B4",
"m#	c #B7B4CF",
"n#	c #C7C7E2",
"o#	c #9BA7C9",
"p#	c #4069A6",
"q#	c #E8B573",
"r#	c #E8B674",
"s#	c #EBB875",
"t#	c #F2C178",
"u#	c #F7C87A",
"v#	c #F6D390",
"w#	c #FCD791",
"x#	c #6D876B",
"y#	c #C3BB46",
"z#	c #D3C63C",
"A#	c #D5C53D",
"B#	c #D5C53B",
"C#	c #D3C337",
"D#	c #D3C232",
"E#	c #CAB936",
"F#	c #D0BC4D",
"G#	c #DEC85E",
"H#	c #CAB44D",
"I#	c #CFB953",
"J#	c #D6C05B",
"K#	c #DAC461",
"L#	c #E0CB70",
"M#	c #928452",
"N#	c #8D88A8",
"O#	c #9091C2",
"P#	c #9192C0",
"Q#	c #A7ADD0",
"R#	c #A5B1D6",
"S#	c #3C6DAD",
"T#	c #EAB774",
"U#	c #EDBB76",
"V#	c #F3C379",
"W#	c #F6C87B",
"X#	c #F3D896",
"Y#	c #FAD996",
"Z#	c #21555D",
"`#	c #3A5F3F",
" $	c #9FA228",
".$	c #C2B419",
"+$	c #C3B11B",
"@$	c #BEAD1A",
"#$	c #BFB019",
"$$	c #C2B324",
"%$	c #D4C251",
"&$	c #DCC662",
"*$	c #D6BF5F",
"=$	c #CCB759",
"-$	c #CAB55C",
";$	c #C3AD5C",
">$	c #B29B56",
",$	c #C0AA5E",
"'$	c #AF9F62",
")$	c #7D7992",
"!$	c #8E92C3",
"~$	c #8D92C5",
"{$	c #9293C1",
"]$	c #B2AED1",
"^$	c #8B9CC9",
"/$	c #C5A084",
"($	c #F2C179",
"_$	c #FACB7E",
":$	c #F9CB7D",
"<$	c #F2C87A",
"[$	c #FADB97",
"}$	c #FBD995",
"|$	c #194C67",
"1$	c #304F44",
"2$	c #696343",
"3$	c #6C5512",
"4$	c #8C7513",
"5$	c #BAA81B",
"6$	c #AD9736",
"7$	c #AA9444",
"8$	c #9F8648",
"9$	c #907736",
"0$	c #9C8343",
"a$	c #B49E4F",
"b$	c #C8B35D",
"c$	c #AA9454",
"d$	c #A18A52",
"e$	c #B7A15A",
"f$	c #CAB567",
"g$	c #6B6775",
"h$	c #8F91C0",
"i$	c #8E91C5",
"j$	c #9292C2",
"k$	c #B2ACCD",
"l$	c #B5B2D4",
"m$	c #5074AD",
"n$	c #ECB975",
"o$	c #F3C37A",
"p$	c #FBCC7F",
"q$	c #FACC7E",
"r$	c #F2C97A",
"s$	c #F3D38E",
"t$	c #F9D48F",
"u$	c #FAD18C",
"v$	c #7E7C86",
"w$	c #A9A9B0",
"x$	c #CCBCAF",
"y$	c #B9A838",
"z$	c #CDBB17",
"A$	c #CEBD22",
"B$	c #B69C4E",
"C$	c #C2A953",
"D$	c #CAB453",
"E$	c #C4AE4B",
"F$	c #DBC55F",
"G$	c #E0C960",
"H$	c #CFB956",
"I$	c #CEB756",
"J$	c #CDB752",
"K$	c #D8C454",
"L$	c #D6C454",
"M$	c #5D5647",
"N$	c #8F8FB8",
"O$	c #8D91C1",
"P$	c #9394C1",
"Q$	c #B3ADD0",
"R$	c #CAC3DE",
"S$	c #7D8BBE",
"T$	c #F7C67D",
"U$	c #F9C97D",
"V$	c #F9CE7E",
"W$	c #F1CC7D",
"X$	c #F1D08B",
"Y$	c #F7D18B",
"Z$	c #F7CE88",
"`$	c #9EA0AC",
" %	c #C0ABB1",
".%	c #C9AEB0",
"+%	c #B39F44",
"@%	c #CDBB13",
"#%	c #CFBD1D",
"$%	c #D9C343",
"%%	c #D5C13F",
"&%	c #D2BF37",
"*%	c #D3C138",
"=%	c #D5C238",
"-%	c #D5C236",
";%	c #D3C030",
">%	c #D3C029",
",%	c #D1BF25",
"'%	c #D1BF22",
")%	c #CFC01E",
"!%	c #A69B28",
"~%	c #676167",
"{%	c #8885A2",
"]%	c #938FB3",
"^%	c #C3BEDA",
"/%	c #CEC6D8",
"(%	c #9BA1CB",
"_%	c #F9CA7F",
":%	c #F9CB7F",
"<%	c #F9CF7F",
"[%	c #F2CE7F",
"}%	c #ECC280",
"|%	c #F2C682",
"1%	c #48668A",
"2%	c #BFB5C1",
"3%	c #BBA1AB",
"4%	c #CDAFB2",
"5%	c #B19856",
"6%	c #CDBC12",
"7%	c #CBBA16",
"8%	c #B3A01B",
"9%	c #A59319",
"0%	c #A59119",
"a%	c #AE9A1F",
"b%	c #B7A419",
"c%	c #C3AF1D",
"d%	c #C9B41F",
"e%	c #CCB91C",
"f%	c #CBB917",
"g%	c #CAB915",
"h%	c #CABA16",
"i%	c #CAB91F",
"j%	c #BCAA2B",
"k%	c #9A8C2E",
"l%	c #746968",
"m%	c #B7AEBE",
"n%	c #D1CEDE",
"o%	c #9199C5",
"p%	c #FCD185",
"q%	c #F9CE81",
"r%	c #F9D284",
"s%	c #F3D285",
"t%	c #EBC07E",
"u%	c #657697",
"v%	c #C3ABB9",
"w%	c #BD9CA4",
"x%	c #D0B0A3",
"y%	c #B3995A",
"z%	c #C1AD19",
"A%	c #90761C",
"B%	c #836A2E",
"C%	c #AA9821",
"D%	c #C1AF1D",
"E%	c #C3B120",
"F%	c #BEAB21",
"G%	c #BCA71F",
"H%	c #B59F24",
"I%	c #B1982B",
"J%	c #B59F23",
"K%	c #BDA81F",
"L%	c #B7A11B",
"M%	c #BEAA20",
"N%	c #C4B11D",
"O%	c #CEBF1B",
"P%	c #B9AB30",
"Q%	c #867A82",
"R%	c #A9ADC8",
"S%	c #5371B0",
"T%	c #FBD386",
"U%	c #FAD185",
"V%	c #F9D083",
"W%	c #F9D385",
"X%	c #F3D286",
"Y%	c #F2C882",
"Z%	c #355069",
"`%	c #A49676",
" &	c #BCA24D",
".&	c #C3AB33",
"+&	c #C5AF1F",
"@&	c #C4B01C",
"#&	c #AA9025",
"$&	c #897337",
"%&	c #938551",
"&&	c #97904B",
"*&	c #827C33",
"=&	c #7E761F",
"-&	c #7F6B0E",
";&	c #7A5F09",
">&	c #745708",
",&	c #856B11",
"'&	c #A68D20",
")&	c #C4AB33",
"!&	c #D5BE48",
"~&	c #CEB548",
"{&	c #CDB540",
"]&	c #BCAC37",
"^&	c #726932",
"/&	c #45628B",
"(&	c #F9D68A",
"_&	c #FAD386",
":&	c #FAD388",
"<&	c #FAD286",
"[&	c #F4CD82",
"}&	c #F5CC84",
"|&	c #225170",
"1&	c #526C6B",
"2&	c #647267",
"3&	c #676C61",
"4&	c #7C7A64",
"5&	c #A19780",
"6&	c #AB9D2E",
"7&	c #C7B323",
"8&	c #B29F85",
"9&	c #978DB1",
"0&	c #8187B0",
"a&	c #485577",
"b&	c #434D38",
"c&	c #68590D",
"d&	c #AC9925",
"e&	c #BEAC23",
"f&	c #C9B433",
"g&	c #DCC545",
"h&	c #BCA52D",
"i&	c #D4C041",
"j&	c #A48D35",
"k&	c #D4BF6A",
"l&	c #BCB799",
"m&	c #F9DA91",
"n&	c #F8D88D",
"o&	c #F8D589",
"p&	c #F8D385",
"q&	c #F9D487",
"r&	c #FBD588",
"s&	c #FAD285",
"t&	c #F4CA7F",
"u&	c #F5CB84",
"v&	c #FCD288",
"w&	c #FCD289",
"x&	c #F8CD85",
"y&	c #F3C580",
"z&	c #315783",
"A&	c #5C653F",
"B&	c #84721B",
"C&	c #776558",
"D&	c #847FA5",
"E&	c #7078A6",
"F&	c #3D4763",
"G&	c #3F4221",
"H&	c #66550E",
"I&	c #8A7519",
"J&	c #C4B329",
"K&	c #D9C63B",
"L&	c #D8C43A",
"M&	c #B9A729",
"N&	c #978426",
"O&	c #92822D",
"P&	c #9DA47D",
"Q&	c #FBD88E",
"R&	c #F9D68B",
"S&	c #F8D588",
"T&	c #F9D386",
"U&	c #FAD284",
"V&	c #F9CF81",
"W&	c #F4C87C",
"X&	c #F5CA84",
"Y&	c #FCD087",
"Z&	c #F5C981",
"`&	c #EFC17B",
" *	c #E9B775",
".*	c #879852",
"+*	c #CABE3B",
"@*	c #ACA12F",
"#*	c #5F583A",
"$*	c #7E7B44",
"%*	c #7D742F",
"&*	c #7F7626",
"**	c #7D742B",
"=*	c #797138",
"-*	c #9B9429",
";*	c #C3B921",
">*	c #CBBF1A",
",*	c #C7BB2C",
"'*	c #675D35",
")*	c #CAB282",
"!*	c #FAD58A",
"~*	c #FBD488",
"{*	c #F9D080",
"]*	c #F8CC7D",
"^*	c #F2C477",
"/*	c #F3C884",
"(*	c #F5C882",
"_*	c #F3C47E",
":*	c #F1C37D",
"<*	c #F0C27C",
"[*	c #18344D",
"}*	c #383F28",
"|*	c #72692B",
"1*	c #55470E",
"2*	c #4D412E",
"3*	c #544B38",
"4*	c #666457",
"5*	c #5C605F",
"6*	c #697179",
"7*	c #606879",
"8*	c #686D6E",
"9*	c #5E573B",
"0*	c #796A3D",
"a*	c #554A0F",
"b*	c #393933",
"c*	c #CBB181",
"d*	c #FBD286",
"e*	c #FBD084",
"f*	c #F9D285",
"g*	c #F8D386",
"h*	c #F7CA7C",
"i*	c #F4C578",
"j*	c #EBBC71",
"k*	c #F0C07D",
"l*	c #ECBA78",
"m*	c #EBB976",
"n*	c #E9B876",
"o*	c #48423A",
"p*	c #5B554B",
"q*	c #837563",
"r*	c #EDBF79",
"s*	c #E1AF6E",
"t*	c #E5B573",
"u*	c #F4C983",
"v*	c #F5CD86",
"w*	c #FCDB92",
"x*	c #FDDC93",
"y*	c #FCDB91",
"z*	c #FBD991",
"A*	c #372C25",
"B*	c #5D584D",
"C*	c #7E786E",
"D*	c #FBCF81",
"E*	c #F9D388",
"F*	c #FAD081",
"G*	c #F9CC7D",
"H*	c #F6C579",
"I*	c #F1BF74",
"J*	c #E5B46C",
"K*	c #EFC17D",
"L*	c #F1C27D",
"M*	c #EEBF7C",
"N*	c #E8B776",
"O*	c #E3B172",
"P*	c #E5B474",
"Q*	c #E8B977",
"R*	c #E8B976",
"S*	c #E8B975",
"T*	c #E8BA77",
"U*	c #ECC07B",
"V*	c #F8D289",
"W*	c #F8D38A",
"X*	c #FAD68C",
"Y*	c #FAD78C",
"Z*	c #FAD488",
"`*	c #FAD288",
" =	c #F9D087",
".=	c #F7CB81",
"+=	c #F6CA7E",
"@=	c #F8CB7F",
"#=	c #F8CD81",
"$=	c #F9D387",
"%=	c #FBD78B",
"&=	c #FAD385",
"*=	c #FACD7E",
"==	c #F9CA7D",
"-=	c #F8C67A",
";=	c #F3C175",
">=	c #E7B76C",
",=	c #EBBC77",
"'=	c #EFC27F",
")=	c #E6B677",
"!=	c #DFAC70",
"~=	c #DEAC70",
"{=	c #DFAE71",
"]=	c #DFAE6F",
"^=	c #DEAE6C",
"/=	c #E5B673",
"(=	c #F0C581",
"_=	c #F3CB84",
":=	c #FBD98D",
"<=	c #FAD98C",
"[=	c #F8D286",
"}=	c #F8D185",
"|=	c #F9CD7F",
"1=	c #F8C97E",
"2=	c #F7C67C",
"3=	c #F3C277",
"4=	c #F1C175",
"5=	c #F3C67C",
"6=	c #F4CB81",
"7=	c #F7D388",
"8=	c #F9C97B",
"9=	c #F8C87A",
"0=	c #F4C375",
"a=	c #EBBB6E",
"b=	c #E3B371",
"c=	c #EBBC78",
"d=	c #EBBE7B",
"e=	c #E6B874",
"f=	c #E7B874",
"g=	c #E7B873",
"h=	c #EBC07B",
"i=	c #F5CF88",
"j=	c #F6D289",
"k=	c #FBD78C",
"l=	c #FAD68A",
"m=	c #F8D183",
"n=	c #F8D082",
"o=	c #F5C679",
"p=	c #EEBD72",
"q=	c #EBBB71",
"r=	c #EDC077",
"s=	c #EFC67C",
"t=	c #F4CE83",
"u=	c #F9D488",
"v=	c #F8CE81",
"w=	c #F7C779",
"x=	c #F8C879",
"y=	c #F9C978",
"z=	c #F7C776",
"A=	c #F0C171",
"B=	c #D2A466",
"C=	c #DDAF6F",
"D=	c #DFB372",
"E=	c #E2B673",
"F=	c #E4B974",
"G=	c #E5BA74",
"H=	c #E5BB74",
"I=	c #E6BC75",
"J=	c #E7BC76",
"K=	c #EBC47D",
"L=	c #F1D18B",
"M=	c #F1D18A",
"N=	c #F2CE85",
"O=	c #F2CC83",
"P=	c #F1C77B",
"Q=	c #F1C77A",
"R=	c #F4C67B",
"S=	c #F2C57A",
"T=	c #E7B86D",
"U=	c #E0B06A",
"V=	c #DEAD69",
"W=	c #E1B46E",
"X=	c #E4BA73",
"Y=	c #E9C27A",
"Z=	c #EEC87F",
"`=	c #EDC379",
" -	c #EDBE73",
".-	c #EFC173",
"+-	c #F1C473",
"@-	c #EEC071",
"  . + @ # $ $ % & * * = - ; > , ' ) ! ~ { ] ^ / ~ ( _ : < [ } | ",
"1 2 3 4 5 6 7 8 9 0 a b c d e f g h i j k l m n o p q r r s t u ",
"v w x 4 y 4 z A B C D E F G H I J K L M k N O P Q R S T U V W ~ ",
"X Y 4 Z `  ...+.@.#.$.d %.&.h *.=.j -.;.>.,.n n '.).!.~.{.].^./.",
"(._.:.<.[.}.|.1.2.c 3.4.5.g 6.7.8.9.0.a.b.c.d.e.f.g.!.h.i.j.k.l.",
"* 3 m.n.o.p.q.c r.6 s.t.t.u.v.w.x.y.z.A.d.,.B.C.D.E.F.G.H.I.J.K.",
"L.M.N.O.P.Q.R.S.T.U.V.V.W.X.Y.Z.`. +.+++@+#+$+%+&+y.q *+=+-+;+>+",
"@ ,+'+)+!+~+{+]+^+/+(+_+:+<+[+[+}+|+1+2+3+4+5+6+7+8+9+0+a+b+n c+",
"@ d+e+f+g+h+i+j+k+l+m+n+o+o+p+q+r+s+r+t+4+u+u+v+w+x+y+z+A+B+C+D+",
"E+F+G+H+I+J+K+L+M+N+O+P+Q+R+8.S+T+U+@+V+W+!.X+Y+Z+`+ @.@+@@@#@$@",
"%@&@*@=@-@;@>@,@'@)@!@~@{@]@^@/@(@/@S X+_@:@<@#+[@}@|@1@2@3@4@5@",
"6@7@7@8@9@0@a@b@c@d@e@f@g@h@i@j@k@/@l@m@n@o@p@q@r@s@t@1@L u@v@w@",
"x@y@z@A@B@C@D@E@F@G@H@I@J@K@L@M@N@O@P@Q@R@S@T@U@V@W@X@Y@Z@`@ #.#",
"+#@###$#%#&#*#=#-#;#>#,#'#)#!#~#{#]#^#/#(#_#:#<#[#}#W@|#1#2#3#4#",
"5#x z 6#7#8#9#0#a#b#c#d#e#f#g#g#h#i#j#k#l#m#n#o#p#_@r@q#r#s#t#u#",
"v#3 w#6#x#y#z#A#B#C#D#E#F#G#H#I#J#K#L#M#N#O#P#Q#R#S#T q#T#U#V#W#",
"X##.Y#Z#`# $.$+$@$#$$$%$&$*$=$-$;$>$,$'$)$!$~${$]$^$/$T#($_$:$<$",
"X#[$}$|$1$2$3$4$5$6$7$8$9$0$a$b$c$d$e$f$g$h$i$j$k$l$m$n$o$p$q$r$",
"s$t$u$v$w$x$y$z$A$B$C$D$E$F$G$H$I$J$K$L$M$N$O$P$Q$R$S$T$U$-+V$W$",
"X$Y$Z$`$ %.%+%@%#%$%%%&%*%=%-%;%>%,%'%)%!%~%{%]%^%/%(%_%:%q$<%[%",
"}%|%1%2%3%4%5%6%7%8%9%0%a%b%c%d%e%f%g%h%i%j%k%l%m%n%o%p%o q%r%s%",
"t%n+u%v%w%x%y%z%A%B%C%D%E%F%G%H%I%J%K%L%M%N%O%P%Q%R%S%T%U%V%W%X%",
"Y%r+Z%`% &.&+&@&#&$&%&&&*&=&-&;&>&,&'&)&!&~&{&]&^&/&(&W%_&:&<&[&",
"}&|&1&2&3&4&5&6&7&8&9&0&a&b&c&d&e&f&g&h&i&j&k&l&m&n&o&p&q&r&s&t&",
"u&v&w&T+x&y&z&A&B&C&D&E&F&G&H&I&J&K&L&M&N&O&P&Q&R&S&S&q&T&U&V&W&",
"X&Y&A+d.Z&`& *.*+*@*#*$*%*&***=*-*;*>*,*'*)*!*~*T&p&q&q&r%{*]*^*",
"/*(*_*:*<*<*[*}*|*1*2*3*4*5*6*7*8*9*0*a*b*c*d*e*f*g*T&U&V&h*i*j*",
"D@k*l*m*n*r o*p*q*r*s*t*u*v*w*x*w*y*z*A*B*C*D*J.U%E*s&F*G*H*I*J*",
"K*L*M*N*O*P*Q*R*S*S*T*U*V*W*X*Y*~*Z*`* =.=+=@=#=$=%=&=*===-=;=>=",
",=D.'=)=!=~={=]=^=/=(=_=:=<=[=}=R |=1=2=3=4=5=6=7=:=s&8=8=9=0=a=",
"b=c=d=Q*/=/=e=f=g=h=i=j=k=l=m=n=R q$o=3=p=q=r=s=t=u=v=w=x=y=z=A=",
"B=C=D=E=F=G=H=I=J=K=L=M=N=O=P=Q=R=S=j*T=U=V=W=X=Y=Z=`= -.-+-+-@-"};
