/* XPM */
static char * E2_xpm[] = {
"32 32 935 2",
"  	c #F3D692",
". 	c #F7D892",
"+ 	c #F5D58F",
"@ 	c #F6D28D",
"# 	c #F6D18D",
"$ 	c #F7D08D",
"% 	c #F7D28E",
"& 	c #F8D48F",
"* 	c #F7D48F",
"= 	c #F7D591",
"- 	c #F7D898",
"; 	c #F6D898",
"> 	c #F5D997",
", 	c #F5D996",
"' 	c #F7D58B",
") 	c #F7D288",
"! 	c #F5CB83",
"~ 	c #F3C880",
"{ 	c #ECC07C",
"] 	c #E9BD7A",
"^ 	c #ECC17B",
"/ 	c #EFC47C",
"( 	c #F6CA82",
"_ 	c #F1C57F",
": 	c #EABE7B",
"< 	c #E8BA78",
"[ 	c #E7B775",
"} 	c #EBBB77",
"| 	c #ECBE79",
"1 	c #F8D996",
"2 	c #FDDB95",
"3 	c #FCD892",
"4 	c #FAD690",
"5 	c #F9D68F",
"6 	c #FAD590",
"7 	c #FCD590",
"8 	c #FCD893",
"9 	c #FBDC98",
"0 	c #FBDD98",
"a 	c #FADD99",
"b 	c #FADC98",
"c 	c #FAD894",
"d 	c #FAD893",
"e 	c #FBD790",
"f 	c #FBD78F",
"g 	c #FBD389",
"h 	c #FAD287",
"i 	c #F6C983",
"j 	c #F4C781",
"k 	c #F0C47D",
"l 	c #F0C37C",
"m 	c #F6C981",
"n 	c #F9CD83",
"o 	c #FACF83",
"p 	c #FACE82",
"q 	c #F5C77F",
"r 	c #EEBF7A",
"s 	c #EEC079",
"t 	c #F1C47C",
"u 	c #F2C67E",
"v 	c #F8D897",
"w 	c #FDDA95",
"x 	c #FDD791",
"y 	c #F7D68F",
"z 	c #FDD691",
"A 	c #FCDA96",
"B 	c #FBDF9B",
"C 	c #FBE09C",
"D 	c #FBE19D",
"E 	c #FADF9A",
"F 	c #FAD691",
"G 	c #F9D58F",
"H 	c #FBD289",
"I 	c #FBD288",
"J 	c #FBD086",
"K 	c #F9CE85",
"L 	c #F3C681",
"M 	c #F1C380",
"N 	c #F1C57C",
"O 	c #F8CC82",
"P 	c #FDD186",
"Q 	c #FCD184",
"R 	c #FACE80",
"S 	c #F4C67D",
"T 	c #EEBD79",
"U 	c #EFC07A",
"V 	c #F0C47B",
"W 	c #F3C77E",
"X 	c #F8D793",
"Y 	c #FCD993",
"Z 	c #F9DA95",
"` 	c #F9DD99",
" .	c #FBDD9A",
"..	c #FCDC9B",
"+.	c #FCDC9A",
"@.	c #FBDC99",
"#.	c #FADB98",
"$.	c #FAD995",
"%.	c #FBD48C",
"&.	c #FAD48B",
"*.	c #F9D187",
"=.	c #F5C982",
"-.	c #F1C27F",
";.	c #F1C280",
">.	c #F6C982",
",.	c #F8CB83",
"'.	c #F8CB81",
").	c #F7C880",
"!.	c #F4C47C",
"~.	c #F1C179",
"{.	c #F3C57B",
"].	c #F4C87E",
"^.	c #F7CB7F",
"/.	c #F5CB7F",
"(.	c #F7D792",
"_.	c #FAD992",
":.	c #F8D690",
"<.	c #F8DC98",
"[.	c #F9E09F",
"}.	c #FBE0A0",
"|.	c #FCE0A0",
"1.	c #FCDD9C",
"2.	c #FBDA97",
"3.	c #FAD48F",
"4.	c #FAD48E",
"5.	c #FCD38A",
"6.	c #F9D288",
"7.	c #F8D187",
"8.	c #F2C680",
"9.	c #F0C37F",
"0.	c #F0C07E",
"a.	c #F2C27F",
"b.	c #F9CB85",
"c.	c #FBCF86",
"d.	c #F8CC83",
"e.	c #F3C583",
"f.	c #F2C283",
"g.	c #F0C27E",
"h.	c #F2C57E",
"i.	c #F6CA7F",
"j.	c #F8CD80",
"k.	c #F6CC7F",
"l.	c #FBD690",
"m.	c #39406A",
"n.	c #61605D",
"o.	c #838056",
"p.	c #828077",
"q.	c #FBD792",
"r.	c #FAD28B",
"s.	c #FBD28A",
"t.	c #FBD189",
"u.	c #F7CC86",
"v.	c #F6CB84",
"w.	c #EFC27E",
"x.	c #EFC27D",
"y.	c #F5C781",
"z.	c #F7C983",
"A.	c #F7CA83",
"B.	c #EDC382",
"C.	c #B69770",
"D.	c #B99F8E",
"E.	c #C9AEA2",
"F.	c #D1B5A6",
"G.	c #D0B4A3",
"H.	c #D0B296",
"I.	c #F4C882",
"J.	c #FBCD80",
"K.	c #F8CC7F",
"L.	c #F7D38E",
"M.	c #FDD891",
"N.	c #DDBC8B",
"O.	c #9C9B38",
"P.	c #CBBB2B",
"Q.	c #D8C44B",
"R.	c #D7C65E",
"S.	c #B5AF6D",
"T.	c #FBD58F",
"U.	c #FBD48D",
"V.	c #FBD188",
"W.	c #FBD18B",
"X.	c #FBD08A",
"Y.	c #F6C784",
"Z.	c #F5C682",
"`.	c #EDC07C",
" +	c #EEC17C",
".+	c #F9CC84",
"++	c #FBCE86",
"@+	c #F6CA83",
"#+	c #EAC186",
"$+	c #8B7A6E",
"%+	c #90878E",
"&+	c #9294B5",
"*+	c #ABA9CA",
"=+	c #B7B3CE",
"-+	c #B1B0CA",
";+	c #ACA2B2",
">+	c #EBC287",
",+	c #FCCC7F",
"'+	c #FACC7F",
")+	c #F9D48E",
"!+	c #F8D18C",
"~+	c #484F61",
"{+	c #B6B130",
"]+	c #D8C442",
"^+	c #DAC653",
"/+	c #D9C75A",
"(+	c #CCC16C",
"_+	c #868071",
":+	c #F8CD86",
"<+	c #F7CB85",
"[+	c #F4C783",
"}+	c #F4C683",
"|+	c #F2C380",
"1+	c #F3C780",
"2+	c #F4C881",
"3+	c #F8CD84",
"4+	c #EBC184",
"5+	c #887770",
"6+	c #9099BE",
"7+	c #A2A5CA",
"8+	c #B1AFD1",
"9+	c #BEB8D6",
"0+	c #C5BFD6",
"a+	c #C2BBC9",
"b+	c #C9B4A9",
"c+	c #ECC68A",
"d+	c #F4C87D",
"e+	c #F6D08B",
"f+	c #F2CC86",
"g+	c #F2C884",
"h+	c #626C55",
"i+	c #C5BD35",
"j+	c #D9C749",
"k+	c #D3C15F",
"l+	c #988C46",
"m+	c #AFA561",
"n+	c #A6A572",
"o+	c #F2C581",
"p+	c #ECBB7A",
"q+	c #EEC07D",
"r+	c #EFC17E",
"s+	c #F8CE85",
"t+	c #F9CF86",
"u+	c #F1C985",
"v+	c #B49981",
"w+	c #8085A2",
"x+	c #9FA7CE",
"y+	c #A3A3CA",
"z+	c #A5A2C9",
"A+	c #A7A4C9",
"B+	c #ADA7C2",
"C+	c #B6A4A0",
"D+	c #E3BF8B",
"E+	c #F7D18B",
"F+	c #F6CE86",
"G+	c #EDC37B",
"H+	c #F3CC8B",
"I+	c #F4CC89",
"J+	c #F1C885",
"K+	c #F3C986",
"L+	c #F4CA86",
"M+	c #818749",
"N+	c #CCC131",
"O+	c #AB9F49",
"P+	c #696045",
"Q+	c #655837",
"R+	c #CDC25E",
"S+	c #C2BB71",
"T+	c #73747C",
"U+	c #F0C17E",
"V+	c #F3C781",
"W+	c #FACF86",
"X+	c #FAD086",
"Y+	c #DDB782",
"Z+	c #867C87",
"`+	c #A9AECD",
" @	c #9DA1CA",
".@	c #9395C4",
"+@	c #9293C3",
"@@	c #9794BD",
"#@	c #AC9AA3",
"$@	c #CAA87E",
"%@	c #F2C985",
"&@	c #F7D18D",
"*@	c #F1CA86",
"=@	c #E6BD7B",
"-@	c #EFC587",
";@	c #F2C687",
">@	c #F0C384",
",@	c #F5CB89",
"'@	c #F9D18C",
")@	c #C6AA86",
"!@	c #999B33",
"~@	c #B6AE37",
"{@	c #5F4C2A",
"]@	c #7C693B",
"^@	c #D5C562",
"/@	c #D9CA61",
"(@	c #D4C76F",
"_@	c #9F9B70",
":@	c #5A6A8A",
"<@	c #F9CF85",
"[@	c #F9D086",
"}@	c #F3C57E",
"|@	c #C8A57A",
"1@	c #908FA5",
"2@	c #B1B2D1",
"3@	c #9698C4",
"4@	c #8F93C3",
"5@	c #9594BF",
"6@	c #AA9BAF",
"7@	c #D3AE8C",
"8@	c #EDC17C",
"9@	c #F5CA85",
"0@	c #F3CE8E",
"a@	c #EBC587",
"b@	c #DDB67B",
"c@	c #ECC283",
"d@	c #F3C787",
"e@	c #F6CC8A",
"f@	c #F9D18D",
"g@	c #F6CD89",
"h@	c #3F5673",
"i@	c #ADB030",
"j@	c #CBBF3D",
"k@	c #D6C457",
"l@	c #D9C759",
"m@	c #DCC85A",
"n@	c #D1C04A",
"o@	c #D5C33D",
"p@	c #D2C452",
"q@	c #B1AC67",
"r@	c #6D7882",
"s@	c #F5C881",
"t@	c #CFAC80",
"u@	c #918D97",
"v@	c #ADA9C1",
"w@	c #9692B6",
"x@	c #9991AD",
"y@	c #B8A1A3",
"z@	c #D4AF92",
"A@	c #EEBF7E",
"B@	c #F5C77E",
"C@	c #EEC585",
"D@	c #EABF81",
"E@	c #E0B678",
"F@	c #E9BD7C",
"G@	c #F5CC88",
"H@	c #F8D08C",
"I@	c #F8CF8C",
"J@	c #F8CD8D",
"K@	c #F5C888",
"L@	c #F1C482",
"M@	c #586A66",
"N@	c #C0BD27",
"O@	c #CDC22A",
"P@	c #C6B63D",
"Q@	c #BAA930",
"R@	c #CBBC23",
"S@	c #D0C120",
"T@	c #C9B922",
"U@	c #BCAD23",
"V@	c #C7BA4C",
"W@	c #B0AD6A",
"X@	c #737B83",
"Y@	c #D5B37D",
"Z@	c #897D70",
"`@	c #BAA79B",
" #	c #B79E90",
".#	c #C4A185",
"+#	c #E2B57D",
"@#	c #F3C380",
"##	c #F8C77F",
"$#	c #F7C77E",
"%#	c #EEBE77",
"&#	c #E5B271",
"*#	c #E8B672",
"=#	c #E8B772",
"-#	c #ECC281",
";#	c #F7CE8A",
">#	c #FAD28D",
",#	c #F8CF8D",
"'#	c #F8CD8C",
")#	c #F6C887",
"!#	c #C4A582",
"~#	c #737C43",
"{#	c #94861E",
"]#	c #A18D2D",
"^#	c #BFAE2B",
"/#	c #C6B531",
"(#	c #C9B640",
"_#	c #CFB94F",
":#	c #D7BF58",
"<#	c #DAC45B",
"[#	c #D8C55C",
"}#	c #CBBF6A",
"|#	c #85704D",
"1#	c #C5A46E",
"2#	c #DEB878",
"3#	c #E2B677",
"4#	c #EAB878",
"5#	c #F2C07C",
"6#	c #F8C67F",
"7#	c #F7C57E",
"8#	c #F4C37B",
"9#	c #EDBC76",
"0#	c #E6B472",
"a#	c #EAB874",
"b#	c #ECBB74",
"c#	c #F6D28E",
"d#	c #F9CF8B",
"e#	c #F6CA87",
"f#	c #8B9569",
"g#	c #ADAC5F",
"h#	c #C1B85D",
"i#	c #CFC164",
"j#	c #DAC560",
"k#	c #DDC75C",
"l#	c #DBC758",
"m#	c #DBC759",
"n#	c #D8C256",
"o#	c #D5BE54",
"p#	c #D7C058",
"q#	c #D7C25A",
"r#	c #CDB964",
"s#	c #90784D",
"t#	c #EDC07B",
"u#	c #E8BB77",
"v#	c #EEBF7B",
"w#	c #F2C27E",
"x#	c #F7C780",
"y#	c #F9C981",
"z#	c #F1C07B",
"A#	c #E8B573",
"B#	c #E8B674",
"C#	c #EBB875",
"D#	c #F2C178",
"E#	c #F7C87A",
"F#	c #F6D390",
"G#	c #FCD791",
"H#	c #6D876B",
"I#	c #C3BB46",
"J#	c #D3C63C",
"K#	c #D5C53D",
"L#	c #D5C53B",
"M#	c #D3C337",
"N#	c #D3C232",
"O#	c #CAB936",
"P#	c #D0BC4D",
"Q#	c #DEC85E",
"R#	c #CAB44D",
"S#	c #CFB953",
"T#	c #D6C05B",
"U#	c #DAC461",
"V#	c #D6C26B",
"W#	c #967F4F",
"X#	c #E9BC78",
"Y#	c #EDBE7A",
"Z#	c #F0C07C",
"`#	c #F3C37E",
" $	c #F5C57F",
".$	c #EAB774",
"+$	c #EDBB76",
"@$	c #F3C379",
"#$	c #F6C87B",
"$$	c #F3D896",
"%$	c #FAD996",
"&$	c #21555D",
"*$	c #3A5F3F",
"=$	c #9FA228",
"-$	c #C2B419",
";$	c #C3B11B",
">$	c #BEAD1A",
",$	c #BFB019",
"'$	c #C2B324",
")$	c #D4C251",
"!$	c #DCC662",
"~$	c #D6BF5F",
"{$	c #CCB759",
"]$	c #CAB55C",
"^$	c #C3AD5C",
"/$	c #B29B56",
"($	c #B7A259",
"_$	c #8D7F4E",
":$	c #E8BD80",
"<$	c #F1C480",
"[$	c #E9BC79",
"}$	c #E3B573",
"|$	c #DEAD6F",
"1$	c #DAA76B",
"2$	c #E1AE6F",
"3$	c #F2C179",
"4$	c #FACB7E",
"5$	c #F9CB7D",
"6$	c #F2C87A",
"7$	c #FADB97",
"8$	c #FBD995",
"9$	c #194C67",
"0$	c #304F44",
"a$	c #696343",
"b$	c #6C5512",
"c$	c #8C7513",
"d$	c #BAA81B",
"e$	c #AD9736",
"f$	c #AA9444",
"g$	c #9F8648",
"h$	c #907736",
"i$	c #9C8343",
"j$	c #B49E4F",
"k$	c #C8B35D",
"l$	c #AA9454",
"m$	c #A18A52",
"n$	c #B7A15A",
"o$	c #CAB567",
"p$	c #9D8677",
"q$	c #F1C47F",
"r$	c #E9BB79",
"s$	c #E3B473",
"t$	c #DFAD6E",
"u$	c #DBA86A",
"v$	c #E2AF6F",
"w$	c #ECB975",
"x$	c #F3C37A",
"y$	c #FBCC7F",
"z$	c #FACC7E",
"A$	c #F2C97A",
"B$	c #F3D38E",
"C$	c #F9D48F",
"D$	c #FAD18C",
"E$	c #7E7C86",
"F$	c #A9A9B0",
"G$	c #CCBCAF",
"H$	c #B9A838",
"I$	c #CDBB17",
"J$	c #CEBD22",
"K$	c #B69C4E",
"L$	c #C2A953",
"M$	c #CAB453",
"N$	c #C4AE4B",
"O$	c #DBC55F",
"P$	c #E0C960",
"Q$	c #CFB956",
"R$	c #CEB756",
"S$	c #CDB752",
"T$	c #D8C454",
"U$	c #D6C454",
"V$	c #655B49",
"W$	c #D2AC8D",
"X$	c #E8B775",
"Y$	c #EAB875",
"Z$	c #EDBB77",
"`$	c #F1BF79",
" %	c #F3C27B",
".%	c #F7C67D",
"+%	c #F9C97D",
"@%	c #FBCC7E",
"#%	c #F9CE7E",
"$%	c #F1CC7D",
"%%	c #F1D08B",
"&%	c #F7CE88",
"*%	c #9EA0AC",
"=%	c #C0ABB1",
"-%	c #C9AEB0",
";%	c #B39F44",
">%	c #CDBB13",
",%	c #CFBD1D",
"'%	c #D9C343",
")%	c #D5C13F",
"!%	c #D2BF37",
"~%	c #D3C138",
"{%	c #D5C238",
"]%	c #D5C236",
"^%	c #D3C030",
"/%	c #D3C029",
"(%	c #D1BF25",
"_%	c #D1BF22",
":%	c #CFC01E",
"<%	c #A69B28",
"[%	c #676167",
"}%	c #CEA988",
"|%	c #EDBC78",
"1%	c #F2C27C",
"2%	c #F6C77F",
"3%	c #F7C97F",
"4%	c #F9CA7F",
"5%	c #F9CB7F",
"6%	c #F9CF7F",
"7%	c #F2CE7F",
"8%	c #ECC280",
"9%	c #F2C682",
"0%	c #48668A",
"a%	c #BFB5C1",
"b%	c #BBA1AB",
"c%	c #CDAFB2",
"d%	c #B19856",
"e%	c #CDBC12",
"f%	c #CBBA16",
"g%	c #B3A01B",
"h%	c #A59319",
"i%	c #A59119",
"j%	c #AE9A1F",
"k%	c #B7A419",
"l%	c #C3AF1D",
"m%	c #C9B41F",
"n%	c #CCB91C",
"o%	c #CBB917",
"p%	c #CAB915",
"q%	c #CABA16",
"r%	c #CAB91F",
"s%	c #BCAA2B",
"t%	c #AD9844",
"u%	c #EBC580",
"v%	c #F8D388",
"w%	c #FBD88C",
"x%	c #FBD589",
"y%	c #FCD185",
"z%	c #F9CE81",
"A%	c #F9D284",
"B%	c #F3D285",
"C%	c #EBC07E",
"D%	c #657697",
"E%	c #C3ABB9",
"F%	c #BD9CA4",
"G%	c #D0B0A3",
"H%	c #B3995A",
"I%	c #C1AD19",
"J%	c #90761C",
"K%	c #836A2E",
"L%	c #AA9821",
"M%	c #C1AF1D",
"N%	c #C3B120",
"O%	c #BEAB21",
"P%	c #BCA71F",
"Q%	c #B59F24",
"R%	c #B1982B",
"S%	c #B59F23",
"T%	c #BDA81F",
"U%	c #B7A11B",
"V%	c #BEAA20",
"W%	c #C4B11D",
"X%	c #CEBF1B",
"Y%	c #BBAC34",
"Z%	c #C5AD87",
"`%	c #F9DA93",
" &	c #FCD88B",
".&	c #FBD386",
"+&	c #FAD185",
"@&	c #F9D083",
"#&	c #F9D385",
"$&	c #F3D286",
"%&	c #F2C882",
"&&	c #355069",
"*&	c #A49676",
"=&	c #BCA24D",
"-&	c #C3AB33",
";&	c #C5AF1F",
">&	c #C4B01C",
",&	c #AA9025",
"'&	c #897337",
")&	c #938551",
"!&	c #97904B",
"~&	c #827C33",
"{&	c #7E761F",
"]&	c #7F6B0E",
"^&	c #7A5F09",
"/&	c #745708",
"(&	c #856B11",
"_&	c #A68D20",
":&	c #C4AB33",
"<&	c #D5BE48",
"[&	c #CEB548",
"}&	c #CDB540",
"|&	c #BCAC37",
"1&	c #726932",
"2&	c #8A888C",
"3&	c #F9D68A",
"4&	c #FAD386",
"5&	c #FAD388",
"6&	c #FAD286",
"7&	c #F4CD82",
"8&	c #F5CC84",
"9&	c #225170",
"0&	c #526C6B",
"a&	c #647267",
"b&	c #676C61",
"c&	c #7C7A64",
"d&	c #A19780",
"e&	c #AB9D2E",
"f&	c #C7B323",
"g&	c #B29F85",
"h&	c #978DB1",
"i&	c #8187B0",
"j&	c #485577",
"k&	c #434D38",
"l&	c #68590D",
"m&	c #AC9925",
"n&	c #BEAC23",
"o&	c #C9B433",
"p&	c #DCC545",
"q&	c #BCA52D",
"r&	c #D4C041",
"s&	c #A48D35",
"t&	c #D4BF6A",
"u&	c #BCB799",
"v&	c #F9DA91",
"w&	c #F8D88D",
"x&	c #F8D589",
"y&	c #F8D385",
"z&	c #F9D487",
"A&	c #FBD588",
"B&	c #FAD285",
"C&	c #F4CA7F",
"D&	c #F5CB84",
"E&	c #FCD288",
"F&	c #FCD289",
"G&	c #F8CD85",
"H&	c #F3C580",
"I&	c #315783",
"J&	c #5C653F",
"K&	c #84721B",
"L&	c #776558",
"M&	c #847FA5",
"N&	c #7078A6",
"O&	c #3D4763",
"P&	c #3F4221",
"Q&	c #66550E",
"R&	c #8A7519",
"S&	c #C4B329",
"T&	c #D9C63B",
"U&	c #D8C43A",
"V&	c #B9A729",
"W&	c #978426",
"X&	c #92822D",
"Y&	c #9DA47D",
"Z&	c #FBD88E",
"`&	c #F9D68B",
" *	c #F8D588",
".*	c #F9D386",
"+*	c #FAD284",
"@*	c #F9CF81",
"#*	c #F4C87C",
"$*	c #F5CA84",
"%*	c #FCD087",
"&*	c #FBD087",
"**	c #F5C981",
"=*	c #EFC17B",
"-*	c #E9B775",
";*	c #879852",
">*	c #CABE3B",
",*	c #ACA12F",
"'*	c #5F583A",
")*	c #7E7B44",
"!*	c #7D742F",
"~*	c #7F7626",
"{*	c #7D742B",
"]*	c #797138",
"^*	c #9B9429",
"/*	c #C3B921",
"(*	c #CBBF1A",
"_*	c #C7BB2C",
":*	c #675D35",
"<*	c #CAB282",
"[*	c #FAD58A",
"}*	c #FBD488",
"|*	c #F9D080",
"1*	c #F8CC7D",
"2*	c #F2C477",
"3*	c #F3C884",
"4*	c #F5C882",
"5*	c #F3C47E",
"6*	c #F1C37D",
"7*	c #F0C27C",
"8*	c #18344D",
"9*	c #383F28",
"0*	c #72692B",
"a*	c #55470E",
"b*	c #4D412E",
"c*	c #544B38",
"d*	c #666457",
"e*	c #5C605F",
"f*	c #697179",
"g*	c #606879",
"h*	c #686D6E",
"i*	c #5E573B",
"j*	c #796A3D",
"k*	c #554A0F",
"l*	c #393933",
"m*	c #CBB181",
"n*	c #FBD286",
"o*	c #FBD084",
"p*	c #F9D285",
"q*	c #F8D386",
"r*	c #F7CA7C",
"s*	c #F4C578",
"t*	c #EBBC71",
"u*	c #F0C07D",
"v*	c #ECBA78",
"w*	c #EBB976",
"x*	c #E9B876",
"y*	c #48423A",
"z*	c #5B554B",
"A*	c #837563",
"B*	c #EDBF79",
"C*	c #E1AF6E",
"D*	c #E5B573",
"E*	c #F4C983",
"F*	c #F5CD86",
"G*	c #FCDB92",
"H*	c #FDDC93",
"I*	c #FCDB91",
"J*	c #FBD991",
"K*	c #372C25",
"L*	c #5D584D",
"M*	c #7E786E",
"N*	c #FBCF81",
"O*	c #F9D388",
"P*	c #FAD081",
"Q*	c #F9CC7D",
"R*	c #F6C579",
"S*	c #F1BF74",
"T*	c #E5B46C",
"U*	c #EFC17D",
"V*	c #F1C27D",
"W*	c #EEBF7C",
"X*	c #E8B776",
"Y*	c #E3B172",
"Z*	c #E5B474",
"`*	c #E8B977",
" =	c #E8B976",
".=	c #E8B975",
"+=	c #E8BA77",
"@=	c #ECC07B",
"#=	c #F8D289",
"$=	c #F8D38A",
"%=	c #FAD68C",
"&=	c #FAD78C",
"*=	c #FAD488",
"==	c #FAD288",
"-=	c #F9D087",
";=	c #F7CB81",
">=	c #F6CA7E",
",=	c #F8CB7F",
"'=	c #F8CD81",
")=	c #F9D387",
"!=	c #FBD78B",
"~=	c #FAD385",
"{=	c #FACD7E",
"]=	c #F9CA7D",
"^=	c #F8C67A",
"/=	c #F3C175",
"(=	c #E7B76C",
"_=	c #EBBC77",
":=	c #F0C27D",
"<=	c #EFC27F",
"[=	c #E6B677",
"}=	c #DFAC70",
"|=	c #DEAC70",
"1=	c #DFAE71",
"2=	c #DFAE6F",
"3=	c #DEAE6C",
"4=	c #E5B673",
"5=	c #F0C581",
"6=	c #F3CB84",
"7=	c #FBD98D",
"8=	c #FAD98C",
"9=	c #F8D286",
"0=	c #F8D185",
"a=	c #F9CD7F",
"b=	c #F8C97E",
"c=	c #F7C67C",
"d=	c #F3C277",
"e=	c #F1C175",
"f=	c #F3C67C",
"g=	c #F4CB81",
"h=	c #F7D388",
"i=	c #F9C97B",
"j=	c #F8C87A",
"k=	c #F4C375",
"l=	c #EBBB6E",
"m=	c #E3B371",
"n=	c #EBBC78",
"o=	c #EBBE7B",
"p=	c #E6B874",
"q=	c #E7B874",
"r=	c #E7B873",
"s=	c #EBC07B",
"t=	c #F5CF88",
"u=	c #F6D289",
"v=	c #FBD78C",
"w=	c #FAD68A",
"x=	c #F8D183",
"y=	c #F8D082",
"z=	c #F5C679",
"A=	c #EEBD72",
"B=	c #EBBB71",
"C=	c #EDC077",
"D=	c #EFC67C",
"E=	c #F4CE83",
"F=	c #F9D488",
"G=	c #F8CE81",
"H=	c #F7C779",
"I=	c #F8C879",
"J=	c #F9C978",
"K=	c #F7C776",
"L=	c #F0C171",
"M=	c #D2A466",
"N=	c #DDAF6F",
"O=	c #DFB372",
"P=	c #E2B673",
"Q=	c #E4B974",
"R=	c #E5BA74",
"S=	c #E5BB74",
"T=	c #E6BC75",
"U=	c #E7BC76",
"V=	c #EBC47D",
"W=	c #F1D18B",
"X=	c #F1D18A",
"Y=	c #F2CE85",
"Z=	c #F2CC83",
"`=	c #F1C77B",
" -	c #F1C77A",
".-	c #F4C67B",
"+-	c #F2C57A",
"@-	c #E7B86D",
"#-	c #E0B06A",
"$-	c #DEAD69",
"%-	c #E1B46E",
"&-	c #E4BA73",
"*-	c #E9C27A",
"=-	c #EEC87F",
"--	c #EDC379",
";-	c #EDBE73",
">-	c #EFC173",
",-	c #F1C473",
"'-	c #EEC071",
"  . + @ # $ $ % & * * = - ; > , ' ) ! ~ { ] ^ / ~ ( _ : < [ } | ",
"1 2 3 4 5 6 7 8 9 0 a b c d e f g h i j k l m n o p q r r s t u ",
"v w x 4 y 4 z A B C D E F G H I J K L M k N O P Q R S T U V W ~ ",
"X Y 4 Z `  ...+.@.#.$.d %.&.h *.=.j -.;.>.,.n n '.).!.~.{.].^./.",
"(._.:.<.[.}.|.1.2.c 3.4.5.g 6.7.8.9.0.a.b.c.d.=.e.f.M g.h.i.j.k.",
"* 3 l.m.n.o.p.c q.6 r.s.s.t.u.v.w.x.y.z.d.A.B.C.D.E.F.G.H.I.J.K.",
"L.M.N.O.P.Q.R.S.T.U.V.V.W.X.Y.Z.`. +.+++@+#+$+%+&+*+=+-+;+>+,+'+",
"@ )+!+~+{+]+^+/+(+_+:+<+[+}+|+|+1+2+3+3+4+5+6+7+8+9+0+a+b+c+d.d+",
"@ e+f+g+h+i+j+k+l+m+n+o+p+p+q+r+s+t+s+u+v+w+x+y+z+A+B+C+D+E+F+G+",
"H+I+J+K+L+M+N+O+P+Q+R+S+T+U+8.V+W+X+( Y+Z+`+ @.@+@@@#@$@%@&@*@=@",
"-@;@>@,@'@)@!@~@{@]@^@/@(@_@:@<@[@<@}@|@1@2@3@4@5@6@7@8@9@0@a@b@",
"c@d@d@e@f@g@h@i@j@k@l@m@n@o@p@q@r@<@s@t@u@v@w@x@y@z@A@B@L C@D@E@",
"F@G@H@I@J@K@L@M@N@O@P@Q@R@S@T@U@V@W@X@Y@Z@`@ #.#+#@###$#%#&#*#=#",
"-#;#>#,#'#)#e.!#~#{#]#^#/#(#_#:#<#[#}#|#1#2#3#4#5#6#7#8#9#0#a#b#",
"c#x z d#e#f#g#h#i#j#k#l#m#n#o#o#p#q#r#s#t#u#v#w#x#y#z#A#B#C#D#E#",
"F#3 G#d#H#I#J#K#L#M#N#O#P#Q#R#S#T#U#V#W#t#X#Y#Z#`# $T A#.$+$@$#$",
"$$#.%$&$*$=$-$;$>$,$'$)$!$~${$]$^$/$($_$:$<$[$}$|$1$2$.$3$4$5$6$",
"$$7$8$9$0$a$b$c$d$e$f$g$h$i$j$k$l$m$n$o$p$q$r$s$t$u$v$w$x$y$z$A$",
"B$C$D$E$F$G$H$I$J$K$L$M$N$O$P$Q$R$S$T$U$V$W$X$Y$Z$`$ %.%+%@%#%$%",
"%%E+&%*%=%-%;%>%,%'%)%!%~%{%]%^%/%(%_%:%<%[%}%|%1%2%3%4%5%z$6%7%",
"8%9%0%a%b%c%d%e%f%g%h%i%j%k%l%m%n%o%p%q%r%s%t%u%v%w%x%y%o z%A%B%",
"C%o+D%E%F%G%H%I%J%K%L%M%N%O%P%Q%R%S%T%U%V%W%X%Y%Z%`% &.&+&@&#&$&",
"%&s+&&*&=&-&;&>&,&'&)&!&~&{&]&^&/&(&_&:&<&[&}&|&1&2&3&#&4&5&6&7&",
"8&9&0&a&b&c&d&e&f&g&h&i&j&k&l&m&n&o&p&q&r&s&t&u&v&w&x&y&z&A&B&C&",
"D&E&F&W+G&H&I&J&K&L&M&N&O&P&Q&R&S&T&U&V&W&X&Y&Z&`& * *z&.*+*@*#*",
"$*%*&*d.**=*-*;*>*,*'*)*!*~*{*]*^*/*(*_*:*<*[*}*.*y&z&z&A%|*1*2*",
"3*4*5*6*7*7*8*9*0*a*b*c*d*e*f*g*h*i*j*k*l*m*n*o*p*q*.*+*@*r*s*t*",
"L@u*v*w*x*r y*z*A*B*C*D*E*F*G*H*G*I*J*K*L*M*N*J.+&O*B&P*Q*R*S*T*",
"U*V*W*X*Y*Z*`* =.=.=+=@=#=$=%=&=}**===-=;=>=,='=)=!=~={=]=^=/=(=",
"_=:=<=[=}=|=1=2=3=4=5=6=7=8=9=0=R a=b=c=d=e=f=g=h=7=B&i=i=j=k=l=",
"m=n=o=`*4=4=p=q=r=s=t=u=v=w=x=y=R z$z=d=A=B=C=D=E=F=G=H=I=J=K=L=",
"M=N=O=P=Q=R=S=T=U=V=W=X=Y=Z=`= -.-+-t*@-#-$-%-&-*-=---;->-,-,-'-"};
