/* XPM */
static char * F1_xpm[] = {
"32 32 910 2",
"  	c #F3D692",
". 	c #F7D892",
"+ 	c #F5D58F",
"@ 	c #F6D28D",
"# 	c #F6D18D",
"$ 	c #F7D08D",
"% 	c #F7D28E",
"& 	c #F8D48F",
"* 	c #F7D48F",
"= 	c #F7D591",
"- 	c #F7D898",
"; 	c #F6D898",
"> 	c #F0D494",
", 	c #EED392",
"' 	c #F0CF87",
") 	c #F0CC84",
"! 	c #F2C881",
"~ 	c #F3C880",
"{ 	c #ECC07C",
"] 	c #E9BD7A",
"^ 	c #ECC17B",
"/ 	c #EFC47C",
"( 	c #F6CA82",
"_ 	c #F1C57F",
": 	c #EABE7B",
"< 	c #E8BA78",
"[ 	c #E7B775",
"} 	c #EBBB77",
"| 	c #ECBE79",
"1 	c #F8D996",
"2 	c #FDDB95",
"3 	c #FCD892",
"4 	c #FAD690",
"5 	c #F9D68F",
"6 	c #FAD590",
"7 	c #FCD590",
"8 	c #FCD893",
"9 	c #FBDC98",
"0 	c #FBDD98",
"a 	c #FADD99",
"b 	c #FADC98",
"c 	c #EFCE8D",
"d 	c #E4C586",
"e 	c #6A5723",
"f 	c #584708",
"g 	c #473C06",
"h 	c #594807",
"i 	c #917642",
"j 	c #DFB575",
"k 	c #F0C37C",
"l 	c #F6C981",
"m 	c #F9CD83",
"n 	c #FACF83",
"o 	c #FACE82",
"p 	c #F5C77F",
"q 	c #EEBF7A",
"r 	c #EEC079",
"s 	c #F1C47C",
"t 	c #F2C67E",
"u 	c #F8D897",
"v 	c #FDDA95",
"w 	c #FDD791",
"x 	c #F7D68F",
"y 	c #FDD691",
"z 	c #FCDA96",
"A 	c #FBDF9B",
"B 	c #FBE09C",
"C 	c #FBE19D",
"D 	c #EED492",
"E 	c #816F3E",
"F 	c #6F5C08",
"G 	c #D0AC18",
"H 	c #E7BF1B",
"I 	c #C7A818",
"J 	c #E5BD1B",
"K 	c #BE9C14",
"L 	c #786209",
"M 	c #AA8A52",
"N 	c #EFC47B",
"O 	c #F8CC82",
"P 	c #FDD186",
"Q 	c #FCD184",
"R 	c #FACE80",
"S 	c #F4C67D",
"T 	c #EEBD79",
"U 	c #EFC07A",
"V 	c #F0C47B",
"W 	c #F3C77E",
"X 	c #F8D793",
"Y 	c #FCD993",
"Z 	c #F9DA95",
"` 	c #F9DD99",
" .	c #FBDD9A",
"..	c #FCDC9B",
"+.	c #FCDC9A",
"@.	c #FBDC99",
"#.	c #FADB98",
"$.	c #ECCD8C",
"%.	c #85723F",
"&.	c #88760E",
"*.	c #BC9D16",
"=.	c #CBAA18",
"-.	c #E9C01C",
";.	c #E7BE1B",
">.	c #CDAC18",
",.	c #E3BC1B",
"'.	c #EFC51D",
").	c #AC8D11",
"!.	c #A38551",
"~.	c #F8CB81",
"{.	c #F7C880",
"].	c #F4C47C",
"^.	c #F1C179",
"/.	c #F3C57B",
"(.	c #F4C87E",
"_.	c #F7CB7F",
":.	c #F5CB7F",
"<.	c #F7D792",
"[.	c #FAD992",
"}.	c #F8D690",
"|.	c #F8DC98",
"1.	c #F9E09F",
"2.	c #FBE0A0",
"3.	c #FCE0A0",
"4.	c #FCDD9C",
"5.	c #FBDA97",
"6.	c #FAD894",
"7.	c #D9B87B",
"8.	c #524706",
"9.	c #998513",
"0.	c #B79916",
"a.	c #CCAB18",
"b.	c #EAC11C",
"c.	c #ECC21C",
"d.	c #CFAE18",
"e.	c #E3BB1B",
"f.	c #8C790E",
"g.	c #93784B",
"h.	c #F6CA81",
"i.	c #F6C781",
"j.	c #F5C480",
"k.	c #F3C47A",
"l.	c #F5C77C",
"m.	c #F6CA7F",
"n.	c #F8CD80",
"o.	c #F6CC7F",
"p.	c #FBD690",
"q.	c #F8D593",
"r.	c #F5D595",
"s.	c #F7D696",
"t.	c #F9D796",
"u.	c #FBD792",
"v.	c #F0CD8A",
"w.	c #635324",
"x.	c #907D10",
"y.	c #7F6F10",
"z.	c #B29815",
"A.	c #D8B41A",
"B.	c #C9A918",
"C.	c #EBC11C",
"D.	c #EDC31C",
"E.	c #CFAE19",
"F.	c #DAB51A",
"G.	c #D5B119",
"H.	c #3D3018",
"I.	c #EFC27C",
"J.	c #F0C27D",
"K.	c #F2C37E",
"L.	c #F5C57E",
"M.	c #F8C97F",
"N.	c #F8CA7F",
"O.	c #F9CC7F",
"P.	c #FBCD80",
"Q.	c #F8CC7F",
"R.	c #F7D38E",
"S.	c #FDD891",
"T.	c #F7D08F",
"U.	c #F2CB8C",
"V.	c #F4CD8D",
"W.	c #F7D18D",
"X.	c #F9D38E",
"Y.	c #FBD58F",
"Z.	c #EDC885",
"`.	c #4C4104",
" +	c #AE9815",
".+	c #A69114",
"++	c #D1AE19",
"@+	c #C6A818",
"#+	c #E2BB1B",
"$+	c #C8A918",
"%+	c #E4BC1B",
"&+	c #C6A316",
"*+	c #755D39",
"=+	c #ECBF7B",
"-+	c #EFC27D",
";+	c #FCCC82",
">+	c #FBCC80",
",+	c #FBCC7E",
"'+	c #FDCD7F",
")+	c #FACC7F",
"!+	c #F9D48E",
"~+	c #F8D18C",
"{+	c #F4CC89",
"]+	c #F1C887",
"^+	c #F7D08B",
"/+	c #FAD38D",
"(+	c #FCD68F",
"_+	c #D4B276",
":+	c #483E04",
"<+	c #A18C13",
"[+	c #837210",
"}+	c #AB9314",
"|+	c #DCB71A",
"1+	c #C5A717",
"2+	c #A99013",
"3+	c #614C2E",
"4+	c #EFC07C",
"5+	c #F3C37F",
"6+	c #F7C780",
"7+	c #FBCC82",
"8+	c #FBCE84",
"9+	c #FACF85",
"0+	c #F4C87D",
"a+	c #F6D08B",
"b+	c #F2CC86",
"c+	c #F2C884",
"d+	c #F1C583",
"e+	c #F4CB87",
"f+	c #FAD48E",
"g+	c #FBD68F",
"h+	c #2A2108",
"i+	c #7E670A",
"j+	c #77670D",
"k+	c #9D8912",
"l+	c #CDAB18",
"m+	c #C9AA18",
"n+	c #C6A817",
"o+	c #EBC21C",
"p+	c #E6BE1B",
"q+	c #C6A717",
"r+	c #CAAB18",
"s+	c #D3AD18",
"t+	c #614C2D",
"u+	c #F3C27E",
"v+	c #F7C482",
"w+	c #F8C781",
"x+	c #FACB82",
"y+	c #FBD087",
"z+	c #FAD38B",
"A+	c #F6CE86",
"B+	c #EDC37B",
"C+	c #F3CC8B",
"D+	c #F1C885",
"E+	c #F3C986",
"F+	c #F4CA86",
"G+	c #F5CC88",
"H+	c #F6CE8A",
"I+	c #F7CE8A",
"J+	c #F5CC89",
"K+	c #876F42",
"L+	c #B59413",
"M+	c #967C0E",
"N+	c #665909",
"O+	c #84730F",
"P+	c #E1B91B",
"Q+	c #EEC41C",
"R+	c #D0AE19",
"S+	c #BCA116",
"T+	c #E8BF1B",
"U+	c #AD8E14",
"V+	c #A68553",
"W+	c #F2C27D",
"X+	c #F3C17E",
"Y+	c #F6C47E",
"Z+	c #F8C981",
"`+	c #F8CE87",
" @	c #F1CA86",
".@	c #E6BD7B",
"+@	c #EFC587",
"@@	c #F2C687",
"#@	c #F0C384",
"$@	c #F5CB89",
"%@	c #F9D18C",
"&@	c #F7CF8A",
"*@	c #F5CB88",
"=@	c #F2C684",
"-@	c #EDBF80",
";@	c #E3B77A",
">@	c #655206",
",@	c #E0BB1B",
"'@	c #8D7B10",
")@	c #88760F",
"!@	c #AD9114",
"~@	c #B69915",
"{@	c #EBC31C",
"]@	c #EEC31C",
"^@	c #D0AF19",
"/@	c #AB9113",
"(@	c #3E301C",
"_@	c #F5C880",
":@	c #F1C17B",
"<@	c #EDBA77",
"[@	c #F1C079",
"}@	c #F6C77E",
"|@	c #F6CB86",
"1@	c #F3CE8E",
"2@	c #EBC587",
"3@	c #DDB67B",
"4@	c #ECC283",
"5@	c #F3C787",
"6@	c #F6CC8A",
"7@	c #F9D18D",
"8@	c #F6CD89",
"9@	c #F3C985",
"0@	c #F1C483",
"a@	c #EEC080",
"b@	c #EBBE7E",
"c@	c #AD8D56",
"d@	c #A38610",
"e@	c #C8A818",
"f@	c #AB9514",
"g@	c #D0AC19",
"h@	c #D95220",
"i@	c #E06C20",
"j@	c #BD9D16",
"k@	c #AF8F15",
"l@	c #CA3E1D",
"m@	c #43301C",
"n@	c #F3C47D",
"o@	c #F1C07B",
"p@	c #F0BE79",
"q@	c #F3C27A",
"r@	c #F3C681",
"s@	c #EEC585",
"t@	c #EABF81",
"u@	c #E0B678",
"v@	c #E9BD7C",
"w@	c #F8D08C",
"x@	c #F8CF8C",
"y@	c #F8CD8D",
"z@	c #F5C888",
"A@	c #F1C482",
"B@	c #F1C481",
"C@	c #E7BC7C",
"D@	c #3D3B1F",
"E@	c #252C14",
"F@	c #30320F",
"G@	c #AC8F16",
"H@	c #C1A316",
"I@	c #E0B91A",
"J@	c #C29219",
"K@	c #EA3E23",
"L@	c #E64622",
"M@	c #C76F1B",
"N@	c #937F11",
"O@	c #D0431E",
"P@	c #6E2C17",
"Q@	c #D3A86A",
"R@	c #ECB976",
"S@	c #F2BF7A",
"T@	c #F7C57E",
"U@	c #F8C77F",
"V@	c #F7C77E",
"W@	c #EEBE77",
"X@	c #E5B271",
"Y@	c #E8B672",
"Z@	c #E8B772",
"`@	c #ECC281",
" #	c #FAD28D",
".#	c #F8CF8D",
"+#	c #F8CD8C",
"@#	c #F6C887",
"##	c #F3C583",
"$#	c #E1B779",
"%#	c #4A4E2A",
"&#	c #6C9049",
"*#	c #71964D",
"=#	c #72974D",
"-#	c #597538",
";#	c #413A00",
">#	c #C7A416",
",#	c #BA9F16",
"'#	c #E3B91B",
")#	c #CBA818",
"!#	c #E3BA1B",
"~#	c #E8BF1C",
"{#	c #72590D",
"]#	c #698A46",
"^#	c #41341D",
"/#	c #EEBB78",
"(#	c #F3C17C",
"_#	c #F8C67F",
":#	c #F4C37B",
"<#	c #EDBC76",
"[#	c #E6B472",
"}#	c #EAB874",
"|#	c #ECBB74",
"1#	c #F6D28E",
"2#	c #F9CF8B",
"3#	c #F6CA87",
"4#	c #F7CA86",
"5#	c #F7CA87",
"6#	c #6B5837",
"7#	c #537939",
"8#	c #71964C",
"9#	c #628A41",
"0#	c #45782E",
"a#	c #7C7F07",
"b#	c #73660A",
"c#	c #978210",
"d#	c #D0AB17",
"e#	c #C5A718",
"f#	c #C9A615",
"g#	c #6B6C28",
"h#	c #6B8E49",
"i#	c #382D18",
"j#	c #F2C27E",
"k#	c #F9C981",
"l#	c #E8B573",
"m#	c #E8B674",
"n#	c #EBB875",
"o#	c #F2C178",
"p#	c #F7C87A",
"q#	c #F6D390",
"r#	c #FCD791",
"s#	c #F7CB86",
"t#	c #CFAB70",
"u#	c #9A7E1F",
"v#	c #88810A",
"w#	c #5B8235",
"x#	c #568138",
"y#	c #517E34",
"z#	c #527F35",
"A#	c #2B6B1C",
"B#	c #777C05",
"C#	c #1E4700",
"D#	c #4C5502",
"E#	c #B3910F",
"F#	c #B4920D",
"G#	c #78772D",
"H#	c #6D914B",
"I#	c #567239",
"J#	c #927549",
"K#	c #F0C07C",
"L#	c #F3C37E",
"M#	c #F5C57F",
"N#	c #EAB774",
"O#	c #EDBB76",
"P#	c #F3C379",
"Q#	c #F6C87B",
"R#	c #F3D896",
"S#	c #FAD996",
"T#	c #FAD48D",
"U#	c #FAD087",
"V#	c #D5B272",
"W#	c #6C5E1A",
"X#	c #CFAC18",
"Y#	c #E0BA1B",
"Z#	c #516F00",
"`#	c #326C1C",
" $	c #74994F",
".$	c #678E45",
"+$	c #5C873E",
"@$	c #5C863D",
"#$	c #2E691A",
"$$	c #597A3F",
"%$	c #58793F",
"&$	c #4E7A34",
"*$	c #6C9249",
"=$	c #252B15",
"-$	c #E9BC79",
";$	c #E3B573",
">$	c #DEAD6F",
",$	c #DAA76B",
"'$	c #E1AE6F",
")$	c #F2C179",
"!$	c #FACB7E",
"~$	c #F9CB7D",
"{$	c #F2C87A",
"]$	c #FADB97",
"^$	c #FBD995",
"/$	c #E3BC7A",
"($	c #826915",
"_$	c #DBB519",
":$	c #CEAE21",
"<$	c #8A7312",
"[$	c #293907",
"}$	c #336B1D",
"|$	c #73984E",
"1$	c #72984E",
"2$	c #407327",
"3$	c #20640A",
"4$	c #537F36",
"5$	c #446A2B",
"6$	c #3A4C1E",
"7$	c #66590E",
"8$	c #614D2D",
"9$	c #E3B473",
"0$	c #84663E",
"a$	c #352C1F",
"b$	c #C89B62",
"c$	c #ECB975",
"d$	c #F3C37A",
"e$	c #FBCC7F",
"f$	c #FACC7E",
"g$	c #F2C97A",
"h$	c #F3D38E",
"i$	c #F9D48F",
"j$	c #FAD18C",
"k$	c #F7CC87",
"l$	c #DBB274",
"m$	c #65560A",
"n$	c #918400",
"o$	c #B4BFA4",
"p$	c #89876F",
"q$	c #A3826E",
"r$	c #163110",
"s$	c #296714",
"t$	c #296813",
"u$	c #296713",
"v$	c #265113",
"w$	c #124202",
"x$	c #0F4100",
"y$	c #194208",
"z$	c #253C15",
"A$	c #141B0B",
"B$	c #CAAC33",
"C$	c #8D7A16",
"D$	c #9E8A18",
"E$	c #1B2713",
"F$	c #4F6F2F",
"G$	c #B6C6AB",
"H$	c #6F7367",
"I$	c #DFB371",
"J$	c #F9C97D",
"K$	c #F9CE7E",
"L$	c #F1CC7D",
"M$	c #F1D08B",
"N$	c #F7D18B",
"O$	c #F7CE88",
"P$	c #F5C984",
"Q$	c #EDC17E",
"R$	c #A18963",
"S$	c #667B53",
"T$	c #ACC0A0",
"U$	c #6B8A64",
"V$	c #2E451C",
"W$	c #142309",
"X$	c #2E5819",
"Y$	c #125C00",
"Z$	c #0F4600",
"`$	c #135500",
" %	c #145B00",
".%	c #145A00",
"+%	c #164B03",
"@%	c #99794C",
"#%	c #F1C07A",
"$%	c #5F4B26",
"%%	c #A38E1A",
"&%	c #CFBD51",
"*%	c #80A069",
"=%	c #48792C",
"-%	c #216513",
";%	c #B4C4AD",
">%	c #413F35",
",%	c #F9CB7F",
"'%	c #F9CF7F",
")%	c #F2CE7F",
"!%	c #ECC280",
"~%	c #F2C682",
"{%	c #F2C582",
"]%	c #F0C380",
"^%	c #D2AA6E",
"/%	c #7B8277",
"(%	c #AFBEA8",
"_%	c #004500",
":%	c #155F00",
"<%	c #94AC83",
"[%	c #384928",
"}%	c #698D47",
"|%	c #45642C",
"1%	c #2A5317",
"2%	c #0E4800",
"3%	c #0D3900",
"4%	c #073F00",
"5%	c #3A2C19",
"6%	c #CAA168",
"7%	c #E5B676",
"8%	c #E4B573",
"9%	c #5D5130",
"0%	c #879E78",
"a%	c #B4C2AD",
"b%	c #004800",
"c%	c #0D4F00",
"d%	c #7C9576",
"e%	c #313123",
"f%	c #F9CE81",
"g%	c #F9D284",
"h%	c #F3D285",
"i%	c #EBC07E",
"j%	c #F2C581",
"k%	c #F1C581",
"l%	c #F0C480",
"m%	c #E1B677",
"n%	c #88816C",
"o%	c #909485",
"p%	c #8B7047",
"q%	c #264714",
"r%	c #CDD8C5",
"s%	c #2F422E",
"t%	c #5D883F",
"u%	c #769B50",
"v%	c #638C42",
"w%	c #296913",
"x%	c #1A5606",
"y%	c #4C7932",
"z%	c #003100",
"A%	c #372A18",
"B%	c #C49C64",
"C%	c #E6B775",
"D%	c #D9AE6F",
"E%	c #7A7D79",
"F%	c #C4C8C1",
"G%	c #4B4026",
"H%	c #8B794D",
"I%	c #99A092",
"J%	c #323229",
"K%	c #FAD185",
"L%	c #F9D083",
"M%	c #F9D385",
"N%	c #F3D286",
"O%	c #F2C882",
"P%	c #F8CE85",
"Q%	c #F8CD87",
"R%	c #F8CC88",
"S%	c #E6BD7D",
"T%	c #CEA86F",
"U%	c #F7CA85",
"V%	c #C29D67",
"W%	c #838878",
"X%	c #94821C",
"Y%	c #81841A",
"Z%	c #40762C",
"`%	c #45772B",
" &	c #5F883F",
".&	c #6F842A",
"+&	c #B89E13",
"@&	c #B09313",
"#&	c #8A6F1A",
"$&	c #D4AC6D",
"%&	c #EAC17B",
"&&	c #A39377",
"*&	c #97948E",
"=&	c #DEC281",
"-&	c #FAD98F",
";&	c #BBA066",
">&	c #B99C61",
",&	c #FAD386",
"'&	c #FAD388",
")&	c #FAD286",
"!&	c #F4CD82",
"~&	c #F5CC84",
"{&	c #FBD188",
"]&	c #FBD189",
"^&	c #FAD08A",
"/&	c #F9CC88",
"(&	c #F7C985",
"_&	c #F7C884",
":&	c #F6C583",
"<&	c #2C2208",
"[&	c #9B8312",
"}&	c #E0BA1A",
"|&	c #A4950C",
"1&	c #538037",
"2&	c #70954C",
"3&	c #76964A",
"4&	c #A69415",
"5&	c #CCAC18",
"6&	c #D1AF19",
"7&	c #D1AD18",
"8&	c #776116",
"9&	c #E4BF7A",
"0&	c #F0D089",
"a&	c #E2C785",
"b&	c #F9DA91",
"c&	c #F8D88D",
"d&	c #F8D589",
"e&	c #F8D385",
"f&	c #F9D487",
"g&	c #FBD588",
"h&	c #FAD285",
"i&	c #F4CA7F",
"j&	c #F5CB84",
"k&	c #FCD288",
"l&	c #FCD289",
"m&	c #FACF86",
"n&	c #F8CD85",
"o&	c #F3C580",
"p&	c #EEBE7B",
"q&	c #EEBD7B",
"r&	c #EEBD7C",
"s&	c #46380A",
"t&	c #D8B319",
"u&	c #BBA016",
"v&	c #D0AF18",
"w&	c #8F7914",
"x&	c #1F2B14",
"y&	c #343714",
"z&	c #947E11",
"A&	c #D4B119",
"B&	c #CFAD18",
"C&	c #DDB61A",
"D&	c #574814",
"E&	c #E6C680",
"F&	c #FBD88E",
"G&	c #F9D68B",
"H&	c #F8D588",
"I&	c #F9D386",
"J&	c #FAD284",
"K&	c #F9CF81",
"L&	c #F4C87C",
"M&	c #F5CA84",
"N&	c #FCD087",
"O&	c #F8CC83",
"P&	c #F5C981",
"Q&	c #EFC17B",
"R&	c #E9B775",
"S&	c #E9B875",
"T&	c #EABA78",
"U&	c #3C310A",
"V&	c #DBB61A",
"W&	c #76640A",
"X&	c #B6925F",
"Y&	c #D5AB71",
"Z&	c #5E5019",
"`&	c #917E11",
" *	c #BF9F16",
".*	c #988012",
"+*	c #937C11",
"@*	c #41361E",
"#*	c #FBD488",
"$*	c #F9D080",
"%*	c #F8CC7D",
"&*	c #F2C477",
"**	c #F3C884",
"=*	c #F5C882",
"-*	c #F3C47E",
";*	c #F1C37D",
">*	c #F0C27C",
",*	c #F0C17B",
"'*	c #F0C37D",
")*	c #493A0B",
"!*	c #D4B019",
"~*	c #CCA918",
"{*	c #7F680B",
"]*	c #C3A56D",
"^*	c #F1CC88",
"/*	c #E2C280",
"(*	c #534722",
"_*	c #AB8F13",
":*	c #927C11",
"<*	c #CBA918",
"[*	c #3F331A",
"}*	c #FBD084",
"|*	c #F9D285",
"1*	c #F8D386",
"2*	c #F7CA7C",
"3*	c #F4C578",
"4*	c #EBBC71",
"5*	c #F0C07D",
"6*	c #ECBA78",
"7*	c #EBB976",
"8*	c #E9B876",
"9*	c #F3C77F",
"0*	c #453609",
"a*	c #A48C14",
"b*	c #9A8011",
"c*	c #64542F",
"d*	c #E8C986",
"e*	c #FDDC93",
"f*	c #FCDB92",
"g*	c #DEC17F",
"h*	c #736428",
"i*	c #BD9F15",
"j*	c #A68E14",
"k*	c #796A0E",
"l*	c #AA8B55",
"m*	c #F9D388",
"n*	c #FAD081",
"o*	c #F9CC7D",
"p*	c #F6C579",
"q*	c #F1BF74",
"r*	c #E5B46C",
"s*	c #EFC17D",
"t*	c #F1C27D",
"u*	c #EEBF7C",
"v*	c #E8B776",
"w*	c #E3B172",
"x*	c #E5B474",
"y*	c #E8B977",
"z*	c #E8B976",
"A*	c #725936",
"B*	c #998310",
"C*	c #DCB61A",
"D*	c #7C6A0E",
"E*	c #8F762F",
"F*	c #E6C480",
"G*	c #FAD68C",
"H*	c #FAD78C",
"I*	c #FAD488",
"J*	c #856F46",
"K*	c #A48A11",
"L*	c #B29A15",
"M*	c #352C07",
"N*	c #F8CB7F",
"O*	c #F8CD81",
"P*	c #F9D387",
"Q*	c #FBD78B",
"R*	c #FAD385",
"S*	c #FACD7E",
"T*	c #F9CA7D",
"U*	c #F8C67A",
"V*	c #F3C175",
"W*	c #E7B76C",
"X*	c #EBBC77",
"Y*	c #EFC27F",
"Z*	c #E6B677",
"`*	c #DFAC70",
" =	c #DEAC70",
".=	c #DFAE71",
"+=	c #DDAD6E",
"@=	c #4C3C16",
"#=	c #D7B219",
"$=	c #AD9414",
"%=	c #554625",
"&=	c #EECE85",
"*=	c #FAD98C",
"==	c #F8D286",
"-=	c #F8D185",
";=	c #F9CD7F",
">=	c #82683F",
",=	c #BC9C18",
"'=	c #DFB91E",
")=	c #4A4110",
"!=	c #E9BE77",
"~=	c #EFC77E",
"{=	c #F7D388",
"]=	c #FBD98D",
"^=	c #F9C97B",
"/=	c #F8C87A",
"(=	c #F4C375",
"_=	c #EBBB6E",
":=	c #E3B371",
"<=	c #EBBC78",
"[=	c #EBBE7B",
"}=	c #E5B673",
"|=	c #E6B874",
"1=	c #6B5432",
"2=	c #C3A420",
"3=	c #DBB825",
"4=	c #525020",
"5=	c #DDBC7A",
"6=	c #FBD78C",
"7=	c #FAD68A",
"8=	c #F8D183",
"9=	c #F8D082",
"0=	c #907344",
"a=	c #647B3B",
"b=	c #8AA364",
"c=	c #6B8D4B",
"d=	c #565C52",
"e=	c #776E56",
"f=	c #EBC77E",
"g=	c #F9D488",
"h=	c #F8CE81",
"i=	c #F7C779",
"j=	c #F8C879",
"k=	c #F9C978",
"l=	c #F7C776",
"m=	c #F0C171",
"n=	c #D2A466",
"o=	c #DDAF6F",
"p=	c #DFB372",
"q=	c #E2B673",
"r=	c #E4B974",
"s=	c #E5BA74",
"t=	c #D1AA69",
"u=	c #7D7C6C",
"v=	c #6A8A52",
"w=	c #90AC7A",
"x=	c #6A8C50",
"y=	c #7B7D6F",
"z=	c #D8B876",
"A=	c #F2CC83",
"B=	c #F1C77B",
"C=	c #F1C77A",
"D=	c #F4C67B",
"E=	c #F2C57A",
"F=	c #795F36",
"G=	c #C8CFBA",
"H=	c #70885E",
"I=	c #DBE4CE",
"J=	c #B4BAA6",
"K=	c #A18653",
"L=	c #EEC87F",
"M=	c #EDC379",
"N=	c #EDBE73",
"O=	c #EFC173",
"P=	c #F1C473",
"Q=	c #EEC071",
"  . + @ # $ $ % & * * = - ; > , ' ) ! ~ { ] ^ / ~ ( _ : < [ } | ",
"1 2 3 4 5 6 7 8 9 0 a b c d e f g h i j ^ k l m n o p q q r s t ",
"u v w 4 x 4 y z A B C D E F G H I J K L M N O P Q R S T U V W ~ ",
"X Y 4 Z `  ...+.@.#.$.%.&.*.=.-.;.>.,.'.).!.m m ~.{.].^./.(._.:.",
"<.[.}.|.1.2.3.4.5.6.7.8.9.0.a.b.c.J d.e.c.f.g.h.i.j.].k.l.m.n.o.",
"* 3 p.q.r.s.t.6.u.v.w.x.y.z.A.B.C.D.E.F.c.G.H.I.J.K.L.M.N.O.P.Q.",
"R.S.y T.U.V.W.X.Y.Z.`. +.+++@+#+c.c.-.$+%+b.&+*+=+-+p ;+>+,+'+)+",
"@ !+~+{+]+{+^+/+(+_+:+<+[+}+|+J c.c.D.1+e.#+2+3+4+5+6+7+8+9+m 0+",
"@ a+b+c+d+e+^+f+g+h+i+j+k+l+m+n+o+;.p+q+#+r+s+t+u+v+w+x+y+z+A+B+",
"C+{+D+E+F+G+H+I+J+K+L+M+N+O+P+Q+c.#+R+S+d.T+U+V+W+X+Y+Z+`+W. @.@",
"+@@@#@$@%@&@*@=@-@;@>@,@'@)@!@~@{@]@#+S+^@/@(@_@:@<@[@}@|@1@2@3@",
"4@5@5@6@7@8@9@0@a@b@c@d@e@f@g@h@i@j@]@%+k@l@m@n@o@p@q@}@r@s@t@u@",
"v@G+w@x@y@z@A@B@C@D@E@F@G@H@I@J@K@L@M@N@O@P@Q@R@S@T@U@V@W@X@Y@Z@",
"`@I+ #.#+#@###$#%#&#*#=#-#;#>#,#'#)#!#~#{#]#^#/#(#_#T@:#<#[#}#|#",
"1#w y 2#3#4#5#6#7#=#8#9#0#a#b#c#d##+e#f#g#h#i#j#6+k#o@l#m#n#o#p#",
"q#3 r#2#s#s#t#u#v#w#x#y#z#A#B#C#D#E#F#G#H#I#J#K#L#M#T l#N#O#P#Q#",
"R##.S#T#U#V#W#X#Y#Z#`# $ $.$+$@$#$$$%$&$*$=$-$;$>$,$'$N#)$!$~${$",
"R#]$^$T#/$($_$:$<$[$}$|$=#1$=#2$3$4$ $5$6$7$8$9$0$a$b$c$d$e$f$g$",
"h$i$j$k$l$m$n$o$p$q$r$s$t$u$v$w$x$y$z$A$B$C$D$E$F$G$H$I$J$,+K$L$",
"M$N$O$P$Q$R$S$T$U$V$W$X$Y$Z$`$ %.%+%@%#%$%%%&%*%=%-%;%>%,%f$'%)%",
"!%~%{%]%^%/%(%_%:%<%[%}%|%1%2%3%4%5%6%7%8%9%0%a%b%c%d%e%n f%g%h%",
"i%j%k%l%m%n%o%p%q%r%s%t%u%v%w%x%y%z%A%B%C%D%E%F%G%H%I%J%K%L%M%N%",
"O%P%P%Q%R%S%T%U%V%W%X%Y%Z%`%@$ &.&+&@&#&$&%&&&*&=&-&;&>&,&'&)&!&",
"~&{&{&]&^&/&(&_&:&<&[&}&|&1&2&3&4&5&6&7&8&9&0&a&b&c&d&e&f&g&h&i&",
"j&k&l&m&n&o&p&q&r&s&t&u&v&w&x&y&z&A&B&c.C&D&E&F&G&H&H&f&I&J&K&L&",
"M&N&y+O&P&Q&R&S&T&U&1+D.V&W&X&Y&Z&`& *Q+.*+*@*#*I&e&f&f&g%$*%*&*",
"**=*-*;*>*>*,*>*'*)*p+!*~*{*]*^*/*(*_*F.:*<*[*}*|*1*I&J&K&2*3*4*",
"A@5*6*7*8*q t 9*9*0*C&a*b*c*d*e*f*g*h*i*j*k*l*P.K%m*h&n*o*p*q*r*",
"s*t*u*v*w*x*y*z*A*B*C*D*E*F*G*H*#*I*J*K*L*M*N*O*P*Q*R*S*T*U*V*W*",
"X*J.Y*Z*`* =.=+=@=#=$=%=&=*===-=R ;=>=,='=)=!=~={=]=h&^=^=/=(=_=",
":=<=[=y*}=}=|=1=2=3=4=5=6=7=8=9=R f$0=a=b=c=d=e=f=g=h=i=j=k=l=m=",
"n=o=p=q=r=s=t=u=v=w=x=y=z=A=B=C=D=E=4*F=G=H=I=J=K=L=M=N=O=P=P=Q="};
