/* XPM */
static char * F2_xpm[] = {
"32 32 930 2",
"  	c #F3D692",
". 	c #F7D892",
"+ 	c #F5D58F",
"@ 	c #F6D28D",
"# 	c #F6D18D",
"$ 	c #F7D08D",
"% 	c #F7D28E",
"& 	c #F8D48F",
"* 	c #F7D48F",
"= 	c #F7D591",
"- 	c #F7D898",
"; 	c #F6D898",
"> 	c #F5D997",
", 	c #F5D996",
"' 	c #F7D58B",
") 	c #F7D288",
"! 	c #F5CB83",
"~ 	c #F3C880",
"{ 	c #ECC07C",
"] 	c #E9BD7A",
"^ 	c #ECC17B",
"/ 	c #EFC47C",
"( 	c #F6CA82",
"_ 	c #F1C57F",
": 	c #EABE7B",
"< 	c #E8BA78",
"[ 	c #E7B775",
"} 	c #EBBB77",
"| 	c #ECBE79",
"1 	c #F8D996",
"2 	c #FDDB95",
"3 	c #FCD892",
"4 	c #FAD690",
"5 	c #F9D68F",
"6 	c #FAD590",
"7 	c #FCD590",
"8 	c #FCD893",
"9 	c #FBDC98",
"0 	c #FBDD98",
"a 	c #FADD99",
"b 	c #FADC98",
"c 	c #FAD894",
"d 	c #FAD893",
"e 	c #FBD790",
"f 	c #FAD68E",
"g 	c #F8D188",
"h 	c #F7D086",
"i 	c #F3C782",
"j 	c #F4C781",
"k 	c #F0C47D",
"l 	c #F0C37C",
"m 	c #F6C981",
"n 	c #F9CD83",
"o 	c #FACF83",
"p 	c #FACE82",
"q 	c #F5C77F",
"r 	c #EEBF7A",
"s 	c #EEC079",
"t 	c #F1C47C",
"u 	c #F2C67E",
"v 	c #F8D897",
"w 	c #FDDA95",
"x 	c #FDD791",
"y 	c #F7D68F",
"z 	c #FDD691",
"A 	c #FCDA96",
"B 	c #FBDF9B",
"C 	c #FBE09C",
"D 	c #FBE19D",
"E 	c #FADF9A",
"F 	c #F9D590",
"G 	c #EFCC89",
"H 	c #D4B172",
"I 	c #816A3B",
"J 	c #745F32",
"K 	c #6F5C32",
"L 	c #776033",
"M 	c #967949",
"N 	c #D8B170",
"O 	c #EEC37B",
"P 	c #F8CC82",
"Q 	c #FDD186",
"R 	c #FCD184",
"S 	c #FACE80",
"T 	c #F4C67D",
"U 	c #EEBD79",
"V 	c #EFC07A",
"W 	c #F0C47B",
"X 	c #F3C77E",
"Y 	c #F8D793",
"Z 	c #FCD993",
"` 	c #F9DA95",
" .	c #F9DD99",
"..	c #FBDD9A",
"+.	c #FCDC9B",
"@.	c #FCDC9A",
"#.	c #FBDC99",
"$.	c #FADB98",
"%.	c #FAD995",
"&.	c #E0BD7C",
"*.	c #84703E",
"=.	c #7F6923",
"-.	c #9F830F",
";.	c #A78A10",
">.	c #967E0F",
",.	c #A88A10",
"'.	c #94780F",
").	c #7F672A",
"!.	c #AE8E57",
"~.	c #F6CB82",
"{.	c #F8CB81",
"].	c #F7C880",
"^.	c #F4C47C",
"/.	c #F1C179",
"(.	c #F3C57B",
"_.	c #F4C87E",
":.	c #F7CB7F",
"<.	c #F5CB7F",
"[.	c #F7D792",
"}.	c #FAD992",
"|.	c #F8D690",
"1.	c #F8DC98",
"2.	c #F9E09F",
"3.	c #FBE0A0",
"4.	c #FCE0A0",
"5.	c #FCDD9C",
"6.	c #FBDA97",
"7.	c #F7D28D",
"8.	c #DBB97B",
"9.	c #7F6B35",
"0.	c #76650A",
"a.	c #A08511",
"b.	c #D1AE18",
"c.	c #E6BE1B",
"d.	c #D9B51A",
"e.	c #DAB51A",
"f.	c #CFAB17",
"g.	c #B79613",
"h.	c #8F7516",
"i.	c #A98A54",
"j.	c #F6CA81",
"k.	c #F6C781",
"l.	c #F5C480",
"m.	c #F3C47A",
"n.	c #F5C77C",
"o.	c #F6CA7F",
"p.	c #F8CD80",
"q.	c #F6CC7F",
"r.	c #FBD690",
"s.	c #F8D593",
"t.	c #F5D595",
"u.	c #F7D696",
"v.	c #F9D796",
"w.	c #FBD792",
"x.	c #F2CB86",
"y.	c #A78B58",
"z.	c #5E5107",
"A.	c #968111",
"B.	c #BC9D16",
"C.	c #CFAD18",
"D.	c #E9C01C",
"E.	c #E8BF1B",
"F.	c #D9B419",
"G.	c #DDB81A",
"H.	c #E7BE1C",
"I.	c #C6A316",
"J.	c #766512",
"K.	c #9A7D4C",
"L.	c #ECBF7B",
"M.	c #F2C37E",
"N.	c #F5C57E",
"O.	c #F8C97F",
"P.	c #F8CA7F",
"Q.	c #F9CC7F",
"R.	c #FBCD80",
"S.	c #F8CC7F",
"T.	c #F7D38E",
"U.	c #FDD891",
"V.	c #F7D08F",
"W.	c #F2CB8C",
"X.	c #F4CD8D",
"Y.	c #F7D18D",
"Z.	c #F9D38E",
"`.	c #FBD58F",
" +	c #FAD38C",
".+	c #D9B474",
"++	c #645522",
"@+	c #76660C",
"#+	c #927F12",
"$+	c #B79A16",
"%+	c #D2AF19",
"&+	c #EBC11C",
"*+	c #D2B019",
"=+	c #E0B91B",
"-+	c #E6BD1B",
";+	c #AB9012",
">+	c #382D0F",
",+	c #E4B977",
"'+	c #EFC27D",
")+	c #FCCC82",
"!+	c #FBCC80",
"~+	c #FBCC7E",
"{+	c #FDCD7F",
"]+	c #FACC7F",
"^+	c #F9D48E",
"/+	c #F8D18C",
"(+	c #F4CC89",
"_+	c #F1C887",
":+	c #F7D08B",
"<+	c #FAD38D",
"[+	c #FCD68F",
"}+	c #F6D08A",
"|+	c #B7975F",
"1+	c #5E5106",
"2+	c #9B8712",
"3+	c #9B8613",
"4+	c #C2A317",
"5+	c #D0AE19",
"6+	c #D7B31A",
"7+	c #EAC11C",
"8+	c #DBB61A",
"9+	c #D6B21A",
"0+	c #D8B219",
"a+	c #90760D",
"b+	c #907345",
"c+	c #EEBF7C",
"d+	c #F7C780",
"e+	c #FBCC82",
"f+	c #FBCE84",
"g+	c #FACF85",
"h+	c #F4C87D",
"i+	c #F6D08B",
"j+	c #F2CC86",
"k+	c #F2C884",
"l+	c #F1C583",
"m+	c #F4CB87",
"n+	c #FAD48E",
"o+	c #FDD790",
"p+	c #F2CB87",
"q+	c #9B7F50",
"r+	c #5E5207",
"s+	c #A48F13",
"t+	c #9F8A13",
"u+	c #D3B019",
"v+	c #E5BD1B",
"w+	c #ECC21C",
"x+	c #E7BF1B",
"y+	c #CCAC18",
"z+	c #E3BB1B",
"A+	c #E2BB1B",
"B+	c #B39513",
"C+	c #3D310E",
"D+	c #ECBB7C",
"E+	c #F8C781",
"F+	c #FACB82",
"G+	c #FBD087",
"H+	c #FAD38B",
"I+	c #F6CE86",
"J+	c #EDC37B",
"K+	c #F3CC8B",
"L+	c #F1C885",
"M+	c #F3C986",
"N+	c #F4CA86",
"O+	c #F5CC88",
"P+	c #F6CE8A",
"Q+	c #F7CE8A",
"R+	c #F6CD89",
"S+	c #D7B276",
"T+	c #4A3B18",
"U+	c #695808",
"V+	c #8D7B10",
"W+	c #978212",
"X+	c #BEA016",
"Y+	c #D3B119",
"Z+	c #EAC01C",
"`+	c #CCAB18",
" @	c #D4B119",
".@	c #B49614",
"+@	c #3A2F0C",
"@@	c #E6B777",
"#@	c #F6C47E",
"$@	c #F8C981",
"%@	c #F8CE87",
"&@	c #F1CA86",
"*@	c #E6BD7B",
"=@	c #EFC587",
"-@	c #F2C687",
";@	c #F0C384",
">@	c #F5CB89",
",@	c #F9D18C",
"'@	c #F7CF8A",
")@	c #F5CB88",
"!@	c #F2C684",
"~@	c #EDBF80",
"{@	c #C49E67",
"]@	c #4F4004",
"^@	c #967B0E",
"/@	c #85700D",
"(@	c #8E7B0F",
"_@	c #B59815",
":@	c #DCB71A",
"<@	c #E4BC1B",
"[@	c #D9B41A",
"}@	c #C6A817",
"|@	c #D6B319",
"1@	c #BC9A14",
"2@	c #4D3D18",
"3@	c #E3B272",
"4@	c #F1C079",
"5@	c #F6C77E",
"6@	c #F6CB86",
"7@	c #F3CE8E",
"8@	c #EBC587",
"9@	c #DDB67B",
"0@	c #ECC283",
"a@	c #F3C787",
"b@	c #F6CC8A",
"c@	c #F9D18D",
"d@	c #F3C985",
"e@	c #F1C483",
"f@	c #EEC080",
"g@	c #DBB174",
"h@	c #7D662D",
"i@	c #9D810F",
"j@	c #B59714",
"k@	c #7C6C0D",
"l@	c #8F7B10",
"m@	c #CBA818",
"n@	c #DAB519",
"o@	c #EAC21C",
"p@	c #D5B219",
"q@	c #BFA316",
"r@	c #CFAE18",
"s@	c #C7A616",
"t@	c #856D0B",
"u@	c #9C7B4B",
"v@	c #ECBB77",
"w@	c #F3C27A",
"x@	c #F3C681",
"y@	c #EEC585",
"z@	c #EABF81",
"A@	c #E0B678",
"B@	c #E9BD7C",
"C@	c #F8D08C",
"D@	c #F8CF8C",
"E@	c #F8CD8D",
"F@	c #F5C888",
"G@	c #F1C482",
"H@	c #F1C481",
"I@	c #F2C582",
"J@	c #F4C884",
"K@	c #D0AB6F",
"L@	c #7B640F",
"M@	c #C3A316",
"N@	c #AB9214",
"O@	c #9F8912",
"P@	c #BC9817",
"Q@	c #CB841B",
"R@	c #E3A41D",
"S@	c #DCB51A",
"T@	c #E5BE1B",
"U@	c #C19E17",
"V@	c #AF6E16",
"W@	c #2C1204",
"X@	c #E8B775",
"Y@	c #F7C57E",
"Z@	c #F8C77F",
"`@	c #F7C77E",
" #	c #EEBE77",
".#	c #E5B271",
"+#	c #E8B672",
"@#	c #E8B772",
"##	c #ECC281",
"$#	c #FAD28D",
"%#	c #F8CF8D",
"&#	c #F8CD8C",
"*#	c #F6C887",
"=#	c #F3C583",
"-#	c #F3C683",
";#	c #F3C983",
">#	c #DBB476",
",#	c #695835",
"'#	c #4D4010",
")#	c #866F0D",
"!#	c #BB9C16",
"~#	c #BDA116",
"{#	c #D6AB1A",
"]#	c #D3731E",
"^#	c #E15B21",
"/#	c #D3811C",
"(#	c #D9A11B",
"_#	c #C59E17",
":#	c #BD6F19",
"<#	c #A33116",
"[#	c #5E3D24",
"}#	c #EABA77",
"|#	c #F8C67F",
"1#	c #F4C37B",
"2#	c #EDBC76",
"3#	c #E6B472",
"4#	c #EAB874",
"5#	c #ECBB74",
"6#	c #F6D28E",
"7#	c #F9CF8B",
"8#	c #F6CA87",
"9#	c #F7CA86",
"0#	c #F7CA87",
"a#	c #F5CD87",
"b#	c #D5B575",
"c#	c #646238",
"d#	c #4D6833",
"e#	c #506C36",
"f#	c #5E7134",
"g#	c #8D8227",
"h#	c #A28812",
"i#	c #D1AC18",
"j#	c #C69819",
"k#	c #E4871F",
"l#	c #DA811E",
"m#	c #D2961B",
"n#	c #BE9717",
"o#	c #A8551C",
"p#	c #685F2F",
"q#	c #624F2F",
"r#	c #EFC17C",
"s#	c #F9C981",
"t#	c #F1C07B",
"u#	c #E8B573",
"v#	c #E8B674",
"w#	c #EBB875",
"x#	c #F2C178",
"y#	c #F7C87A",
"z#	c #F6D390",
"A#	c #FCD791",
"B#	c #F7CB86",
"C#	c #F7CC87",
"D#	c #E5BF7D",
"E#	c #5D5633",
"F#	c #496832",
"G#	c #6F934B",
"H#	c #72974D",
"I#	c #699047",
"J#	c #517431",
"K#	c #6C6709",
"L#	c #A58B11",
"M#	c #B49914",
"N#	c #D7B319",
"O#	c #D8B41A",
"P#	c #D2AD19",
"Q#	c #746E25",
"R#	c #638342",
"S#	c #1E2610",
"T#	c #E5B876",
"U#	c #F5C57F",
"V#	c #EAB774",
"W#	c #EDBB76",
"X#	c #F3C379",
"Y#	c #F6C87B",
"Z#	c #F3D896",
"`#	c #FAD996",
" $	c #FAD48D",
".$	c #FAD087",
"+$	c #F8D086",
"@$	c #F3CD84",
"#$	c #B4975E",
"$$	c #675B10",
"%$	c #6B7D2E",
"&$	c #688E43",
"*$	c #658C43",
"=$	c #58833A",
"-$	c #4E7B2E",
";$	c #637612",
">$	c #726E05",
",$	c #7B7007",
"'$	c #AA8F0F",
")$	c #CCA814",
"!$	c #BC9D14",
"~$	c #A49026",
"{$	c #6E803B",
"]$	c #5D7C3E",
"^$	c #2B2D15",
"/$	c #D4A56A",
"($	c #DAA76B",
"_$	c #E1AE6F",
":$	c #F2C179",
"<$	c #FACB7E",
"[$	c #F9CB7D",
"}$	c #F2C87A",
"|$	c #FADB97",
"1$	c #FBD995",
"2$	c #F4CC84",
"3$	c #BD9F65",
"4$	c #75631E",
"5$	c #B29412",
"6$	c #B09B15",
"7$	c #5C7C26",
"8$	c #4D7B30",
"9$	c #628A41",
"0$	c #608A41",
"a$	c #527D33",
"b$	c #667E29",
"c$	c #416826",
"d$	c #4D6417",
"e$	c #8F852B",
"f$	c #8D842C",
"g$	c #697C35",
"h$	c #688C47",
"i$	c #41592C",
"j$	c #876D43",
"k$	c #DBAA6C",
"l$	c #DBA86A",
"m$	c #E2AF6F",
"n$	c #ECB975",
"o$	c #F3C37A",
"p$	c #FBCC7F",
"q$	c #FACC7E",
"r$	c #F2C97A",
"s$	c #F3D38E",
"t$	c #F9D48F",
"u$	c #FAD18C",
"v$	c #F1C581",
"w$	c #C7A167",
"x$	c #866D1E",
"y$	c #AE9111",
"z$	c #CDAA10",
"A$	c #B79910",
"B$	c #4B6103",
"C$	c #417327",
"D$	c #73984E",
"E$	c #74994F",
"F$	c #6D944A",
"G$	c #658E45",
"H$	c #4F7D33",
"I$	c #336C1F",
"J$	c #557E3D",
"K$	c #618645",
"L$	c #4C7533",
"M$	c #527135",
"N$	c #444110",
"O$	c #83663F",
"P$	c #DFB070",
"Q$	c #937347",
"R$	c #7F643D",
"S$	c #D7AC6C",
"T$	c #F9C97D",
"U$	c #F9CE7E",
"V$	c #F1CC7D",
"W$	c #F1D08B",
"X$	c #F7D18B",
"Y$	c #F7CE88",
"Z$	c #F5C984",
"`$	c #EABF7C",
" %	c #9C7E4A",
".%	c #826B05",
"+%	c #BEA32E",
"@%	c #BCAE6E",
"#%	c #7D724A",
"$%	c #423D36",
"%%	c #345E21",
"&%	c #59833A",
"*%	c #5A853B",
"=%	c #5A843C",
"-%	c #567A38",
";%	c #30601B",
">%	c #22590E",
",%	c #446B2B",
"'%	c #557539",
")%	c #4B5B22",
"!%	c #8F7F26",
"~%	c #7A6A13",
"{%	c #6D5F09",
"]%	c #5D522A",
"^%	c #4E603C",
"/%	c #7E8976",
"(%	c #7A745E",
"_%	c #DCB472",
":%	c #F9CF7F",
"<%	c #F2CE7F",
"[%	c #ECC280",
"}%	c #F2C682",
"|%	c #F0C380",
"1%	c #E9BD7B",
"2%	c #AD8D5A",
"3%	c #635D2F",
"4%	c #848850",
"5%	c #A9B89C",
"6%	c #6F806A",
"7%	c #433B3E",
"8%	c #193411",
"9%	c #245D10",
"0%	c #1B6006",
"a%	c #1B5807",
"b%	c #195106",
"c%	c #124E00",
"d%	c #114C00",
"e%	c #124303",
"f%	c #1D2C0D",
"g%	c #615021",
"h%	c #9E8724",
"i%	c #9F8A1F",
"j%	c #AE9E3A",
"k%	c #5C7442",
"l%	c #5A7D44",
"m%	c #8DA384",
"n%	c #8E9A88",
"o%	c #70654C",
"p%	c #F1C87D",
"q%	c #F9D284",
"r%	c #F3D285",
"s%	c #EBC07E",
"t%	c #F2C581",
"u%	c #F0C480",
"v%	c #B19467",
"w%	c #747C6E",
"x%	c #8B9D82",
"y%	c #7D9574",
"z%	c #587C4F",
"A%	c #627853",
"B%	c #354825",
"C%	c #4B6F30",
"D%	c #2E5D1A",
"E%	c #1B4B09",
"F%	c #104E00",
"G%	c #0B4B00",
"H%	c #073600",
"I%	c #705937",
"J%	c #D2A76A",
"K%	c #675527",
"L%	c #887C2D",
"M%	c #AFAF6A",
"N%	c #93AA83",
"O%	c #3A6A28",
"P%	c #3F6B38",
"Q%	c #92A48B",
"R%	c #3C4238",
"S%	c #EBC57C",
"T%	c #F9D385",
"U%	c #F3D286",
"V%	c #F2C882",
"W%	c #F8CE85",
"X%	c #F8CD87",
"Y%	c #EFC483",
"Z%	c #A48C65",
"`%	c #7D8579",
" &	c #96A290",
".&	c #194117",
"+&	c #496B41",
"@&	c #A5B59A",
"#&	c #465C3C",
"$&	c #628843",
"%&	c #5E803F",
"&&	c #48702E",
"*&	c #1D570A",
"=&	c #174A07",
"-&	c #2C571D",
";&	c #001A02",
">&	c #523F25",
",&	c #C9A367",
"'&	c #DCB573",
")&	c #5C5F48",
"!&	c #899783",
"~&	c #AFB8AA",
"{&	c #294528",
"]&	c #385434",
"^&	c #7E8E79",
"/&	c #33392F",
"(&	c #ECC780",
"_&	c #FAD286",
":&	c #F4CD82",
"<&	c #F5CC84",
"[&	c #FBD188",
"}&	c #FBD189",
"|&	c #D3AE77",
"1&	c #817C69",
"2&	c #7E7F70",
"3&	c #725E3D",
"4&	c #59644F",
"5&	c #A8AF9D",
"6&	c #707037",
"7&	c #6A8534",
"8&	c #608B41",
"9&	c #568338",
"0&	c #46772C",
"a&	c #47732B",
"b&	c #627C2C",
"c&	c #7E720D",
"d&	c #7A6509",
"e&	c #836B29",
"f&	c #D4B271",
"g&	c #C0A978",
"h&	c #818380",
"i&	c #A6A8A4",
"j&	c #554D3C",
"k&	c #7A6D50",
"l&	c #7C8174",
"m&	c #444031",
"n&	c #F0CB82",
"o&	c #FAD285",
"p&	c #F4CA7F",
"q&	c #F5CB84",
"r&	c #FCD288",
"s&	c #FCD289",
"t&	c #FACF86",
"u&	c #F8CD85",
"v&	c #F0C37F",
"w&	c #D6AA6E",
"x&	c #C49B64",
"y&	c #E7B777",
"z&	c #433D32",
"A&	c #6A6950",
"B&	c #9B871D",
"C&	c #AE9C1A",
"D&	c #798522",
"E&	c #527E33",
"F&	c #668D44",
"G&	c #708F41",
"H&	c #949023",
"I&	c #C1A416",
"J&	c #BFA016",
"K&	c #AA8C11",
"L&	c #6B580A",
"M&	c #B9A06A",
"N&	c #958975",
"O&	c #918A7F",
"P&	c #D5B878",
"Q&	c #EFCD83",
"R&	c #AD935C",
"S&	c #B3975E",
"T&	c #F6CF82",
"U&	c #F9CF81",
"V&	c #F4C87C",
"W&	c #F5CA84",
"X&	c #FCD087",
"Y&	c #F8CC83",
"Z&	c #F5C981",
"`&	c #EFC17B",
" *	c #E9B775",
".*	c #E9B875",
"+*	c #EABA78",
"@*	c #342B07",
"#*	c #5D4C03",
"$*	c #AD9113",
"%*	c #D9B518",
"&*	c #9F9115",
"**	c #6A863F",
"=*	c #7E974F",
"-*	c #7D9143",
";*	c #AA9618",
">*	c #CBAB18",
",*	c #C5A317",
"'*	c #7C660A",
")*	c #423619",
"!*	c #EEC981",
"~*	c #DEBC77",
"{*	c #F8D385",
"]*	c #F9D487",
"^*	c #F9D080",
"/*	c #F8CC7D",
"(*	c #F2C477",
"_*	c #F3C884",
":*	c #F5C882",
"<*	c #F3C47E",
"[*	c #F1C37D",
"}*	c #F0C27C",
"|*	c #F0C17B",
"1*	c #F0C37D",
"2*	c #493A0B",
"3*	c #D4B019",
"4*	c #CCA918",
"5*	c #7F680B",
"6*	c #C3A56D",
"7*	c #F1CC88",
"8*	c #E2C280",
"9*	c #534722",
"0*	c #AB8F13",
"a*	c #927C11",
"b*	c #CBA918",
"c*	c #3F331A",
"d*	c #FBD084",
"e*	c #F9D285",
"f*	c #F8D386",
"g*	c #F9D386",
"h*	c #FAD284",
"i*	c #F7CA7C",
"j*	c #F4C578",
"k*	c #EBBC71",
"l*	c #F0C07D",
"m*	c #ECBA78",
"n*	c #EBB976",
"o*	c #E9B876",
"p*	c #F3C77F",
"q*	c #453609",
"r*	c #DDB61A",
"s*	c #A48C14",
"t*	c #9A8011",
"u*	c #64542F",
"v*	c #E8C986",
"w*	c #FDDC93",
"x*	c #FCDB92",
"y*	c #DEC17F",
"z*	c #736428",
"A*	c #BD9F15",
"B*	c #A68E14",
"C*	c #796A0E",
"D*	c #AA8B55",
"E*	c #FAD185",
"F*	c #F9D388",
"G*	c #FAD081",
"H*	c #F9CC7D",
"I*	c #F6C579",
"J*	c #F1BF74",
"K*	c #E5B46C",
"L*	c #EFC17D",
"M*	c #F1C27D",
"N*	c #E8B776",
"O*	c #E3B172",
"P*	c #E5B474",
"Q*	c #E8B977",
"R*	c #E8B976",
"S*	c #725936",
"T*	c #998310",
"U*	c #DCB61A",
"V*	c #7C6A0E",
"W*	c #8F762F",
"X*	c #E6C480",
"Y*	c #FAD68C",
"Z*	c #FAD78C",
"`*	c #FBD488",
" =	c #FAD488",
".=	c #856F46",
"+=	c #A48A11",
"@=	c #B29A15",
"#=	c #352C07",
"$=	c #F8CB7F",
"%=	c #F8CD81",
"&=	c #F9D387",
"*=	c #FBD78B",
"==	c #FAD385",
"-=	c #FACD7E",
";=	c #F9CA7D",
">=	c #F8C67A",
",=	c #F3C175",
"'=	c #E7B76C",
")=	c #EBBC77",
"!=	c #F0C27D",
"~=	c #EFC27F",
"{=	c #E6B677",
"]=	c #DFAC70",
"^=	c #DEAC70",
"/=	c #DFAE71",
"(=	c #DDAD6E",
"_=	c #4C3C16",
":=	c #D7B219",
"<=	c #AD9414",
"[=	c #554625",
"}=	c #EECE85",
"|=	c #FAD98C",
"1=	c #F8D286",
"2=	c #F8D185",
"3=	c #F9CD7F",
"4=	c #82683F",
"5=	c #BC9C18",
"6=	c #DFB91E",
"7=	c #4A4110",
"8=	c #E9BE77",
"9=	c #EFC77E",
"0=	c #F7D388",
"a=	c #FBD98D",
"b=	c #F9C97B",
"c=	c #F8C87A",
"d=	c #F4C375",
"e=	c #EBBB6E",
"f=	c #E3B371",
"g=	c #EBBC78",
"h=	c #EBBE7B",
"i=	c #E5B673",
"j=	c #E6B874",
"k=	c #6B5432",
"l=	c #C3A420",
"m=	c #DBB825",
"n=	c #525020",
"o=	c #DDBC7A",
"p=	c #FBD78C",
"q=	c #FAD68A",
"r=	c #F8D183",
"s=	c #F8D082",
"t=	c #907344",
"u=	c #647B3B",
"v=	c #8AA364",
"w=	c #6B8D4B",
"x=	c #565C52",
"y=	c #776E56",
"z=	c #EBC77E",
"A=	c #F9D488",
"B=	c #F8CE81",
"C=	c #F7C779",
"D=	c #F8C879",
"E=	c #F9C978",
"F=	c #F7C776",
"G=	c #F0C171",
"H=	c #D2A466",
"I=	c #DDAF6F",
"J=	c #DFB372",
"K=	c #E2B673",
"L=	c #E4B974",
"M=	c #E5BA74",
"N=	c #D1AA69",
"O=	c #7D7C6C",
"P=	c #6A8A52",
"Q=	c #90AC7A",
"R=	c #6A8C50",
"S=	c #7B7D6F",
"T=	c #D8B876",
"U=	c #F2CC83",
"V=	c #F1C77B",
"W=	c #F1C77A",
"X=	c #F4C67B",
"Y=	c #F2C57A",
"Z=	c #795F36",
"`=	c #C8CFBA",
" -	c #70885E",
".-	c #DBE4CE",
"+-	c #B4BAA6",
"@-	c #A18653",
"#-	c #EEC87F",
"$-	c #EDC379",
"%-	c #EDBE73",
"&-	c #EFC173",
"*-	c #F1C473",
"=-	c #EEC071",
"  . + @ # $ $ % & * * = - ; > , ' ) ! ~ { ] ^ / ~ ( _ : < [ } | ",
"1 2 3 4 5 6 7 8 9 0 a b c d e f g h i j k l m n o p q r r s t u ",
"v w x 4 y 4 z A B C D E F G H I J K L M N O P Q R S T U V W X ~ ",
"Y Z 4 `  ...+.@.#.$.%.d &.*.=.-.;.>.,.'.).!.~.n {.].^./.(._.:.<.",
"[.}.|.1.2.3.4.5.6.c 7.8.9.0.a.b.c.d.e.f.g.h.i.j.k.l.^.m.n.o.p.q.",
"* 3 r.s.t.u.v.c w.6 x.y.z.A.B.C.D.E.F.G.H.I.J.K.L.M.N.O.P.Q.R.S.",
"T.U.z V.W.X.Y.Z.`. +.+++@+#+$+%+G.&+c.*+=+-+;+>+,+'+q )+!+~+{+]+",
"@ ^+/+(+_+(+:+<+[+}+|+1+2+3+4+5+6+&+7+8+9+c.0+a+b+c+d+e+f+g+n h+",
"@ i+j+k+l+m+:+n+o+p+q+r+s+t+4+u+v+w+w+x+y+z+A+B+C+D+E+F+G+H+I+J+",
"K+(+L+M+N+O+P+Q+R+S+T+U+V+W+X+Y+e.7+Z+c.`+=+ @.@+@@@#@$@%@Y.&@*@",
"=@-@;@>@,@'@)@!@~@{@]@^@/@(@_@ @:@7+<@[@}@d.|@1@2@3@4@5@6@7@8@9@",
"0@a@a@b@c@R+d@e@f@g@h@i@j@k@l@m@n@o@c.p@q@r@s@t@u@v@w@5@x@y@z@A@",
"B@O+C@D@E@F@G@H@I@J@K@L@M@N@O@P@Q@R@S@T@5+U@V@W@X@Y@Z@`@ #.#+#@#",
"##Q+$#%#&#*#=#-#;#>#,#'#)#!#~#{#]#^#/#(#_#:#<#[#}#|#Y@1#2#3#4#5#",
"6#x z 7#8#9#0#a#b#c#d#e#f#g#h#i#j#k#l#m#n#o#p#q#r#s#t#u#v#w#x#y#",
"z#3 A#7#B#B#C#D#E#F#G#H#I#J#K#L#M#F.N#O#P#Q#R#S#T#U#U u#V#W#X#Y#",
"Z#$.`# $.$+$@$#$$$%$&$*$=$-$;$>$,$'$)$!$~${$]$^$/$($_$V#:$<$[$}$",
"Z#|$1$ $.$2$3$4$5$6$7$8$9$0$a$b$c$d$e$f$g$h$i$j$k$l$m$n$o$p$q$r$",
"s$t$u$C#v$w$x$y$z$A$B$C$D$E$F$G$H$I$J$K$L$M$N$O$P$Q$R$S$T$~+U$V$",
"W$X$Y$Z$`$ %.%+%@%#%$%%%&%*%=%-%;%>%,%'%)%!%~%{%]%^%/%(%_%[$:%<%",
"[%}%I@|%1%2%3%4%5%6%7%8%9%0%a%b%c%d%e%f%g%h%i%j%k%l%m%n%o%p%q%r%",
"s%t%v$u%1%v%w%x%y%z%A%B%C%D%E%F%F%G%H%I%J%K%L%M%N%O%P%Q%R%S%T%U%",
"V%W%W%X%Y%Z%`% &.&+&@&#&$&%&&&*&=&-&;&>&,&'&)&!&~&{&]&^&/&(&_&:&",
"<&[&[&}&Y$|&1&2&3&4&5&6&7&8&9&0&a&b&c&d&e&f&g&h&i&j&k&l&m&n&o&p&",
"q&r&s&t&u&v&w&x&y&z&A&B&C&D&E&F&G&H&I&J&K&L&M&N&O&P&Q&R&S&T&U&V&",
"W&X&G+Y&Z&`& *.*+*@*#*$*%*&***=*-*;*>*p@,*'*)*!*~*{*]*]*q%^*/*(*",
"_*:*<*[*}*}*|*}*1*2*c.3*4*5*6*7*8*9*0*e.a*b*c*d*e*f*g*h*U&i*j*k*",
"G@l*m*n*o*r u p*p*q*r*s*t*u*v*w*x*y*z*A*B*C*D*R.E*F*o&G*H*I*J*K*",
"L*M*c+N*O*P*Q*R*S*T*U*V*W*X*Y*Z*`* =.=+=@=#=$=%=&=*===-=;=>=,='=",
")=!=~={=]=^=/=(=_=:=<=[=}=|=1=2=S 3=4=5=6=7=8=9=0=a=o&b=b=c=d=e=",
"f=g=h=Q*i=i=j=k=l=m=n=o=p=q=r=s=S q$t=u=v=w=x=y=z=A=B=C=D=E=F=G=",
"H=I=J=K=L=M=N=O=P=Q=R=S=T=U=V=W=X=Y=k*Z=`= -.-+-@-#-$-%-&-*-*-=-"};
