/* XPM */
static char * P1_xpm[] = {
"32 32 905 2",
"  	c #F3D692",
". 	c #F7D892",
"+ 	c #F5D58F",
"@ 	c #F6D28D",
"# 	c #F6D18D",
"$ 	c #F7D08D",
"% 	c #F7D28E",
"& 	c #F8D48F",
"* 	c #F7D48F",
"= 	c #F7D591",
"- 	c #F7D898",
"; 	c #F6D898",
"> 	c #F5D997",
", 	c #F4D895",
"' 	c #F2C782",
") 	c #F5CF86",
"! 	c #F5CB83",
"~ 	c #F3C880",
"{ 	c #ECC07C",
"] 	c #E9BD7A",
"^ 	c #ECC17B",
"/ 	c #EFC47C",
"( 	c #F6CA82",
"_ 	c #F1C57F",
": 	c #EABE7B",
"< 	c #E8BA78",
"[ 	c #E7B775",
"} 	c #EBBB77",
"| 	c #ECBE79",
"1 	c #F8D996",
"2 	c #FDDB95",
"3 	c #FCD892",
"4 	c #FAD690",
"5 	c #F9D68F",
"6 	c #FAD590",
"7 	c #FCD590",
"8 	c #FCD893",
"9 	c #FBDC98",
"0 	c #FBDD98",
"a 	c #FADD99",
"b 	c #FADC98",
"c 	c #FAD894",
"d 	c #FAD893",
"e 	c #FBD790",
"f 	c #F6CA86",
"g 	c #FC6854",
"h 	c #FA8A60",
"i 	c #F2C681",
"j 	c #F4C781",
"k 	c #F0C47D",
"l 	c #E7BB77",
"m 	c #E4AB6D",
"n 	c #F2BF7E",
"o 	c #FACF83",
"p 	c #FACE82",
"q 	c #F5C77F",
"r 	c #EEBF7A",
"s 	c #EEC079",
"t 	c #F1C47C",
"u 	c #F2C67E",
"v 	c #F8D897",
"w 	c #FDDA95",
"x 	c #FDD791",
"y 	c #F7D68F",
"z 	c #FDD691",
"A 	c #FCDA96",
"B 	c #FBDF9B",
"C 	c #FBE09C",
"D 	c #FBE19D",
"E 	c #FADF9A",
"F 	c #FAD691",
"G 	c #F9D58F",
"H 	c #F7C883",
"I 	c #ED6D4C",
"J 	c #FF0042",
"K 	c #FF2341",
"L 	c #E87655",
"M 	c #E8AA72",
"N 	c #E78E62",
"O 	c #FE3342",
"P 	c #FF1447",
"Q 	c #F89363",
"R 	c #FBCF83",
"S 	c #FACE80",
"T 	c #F4C67D",
"U 	c #EEBD79",
"V 	c #EFC07A",
"W 	c #F0C47B",
"X 	c #F3C77E",
"Y 	c #F8D793",
"Z 	c #FCD993",
"` 	c #F9DA95",
" .	c #F9DD99",
"..	c #FBDD9A",
"+.	c #FCDC9B",
"@.	c #FCDC9A",
"#.	c #FBDC99",
"$.	c #FADB98",
"%.	c #FAD995",
"&.	c #FBD48C",
"*.	c #FAD48B",
"=.	c #E29F65",
"-.	c #DB0046",
";.	c #D21461",
">.	c #D70046",
",.	c #FF003E",
"'.	c #F5173E",
").	c #FE003C",
"!.	c #FF2347",
"~.	c #F3A76E",
"{.	c #F8CB81",
"].	c #F7C880",
"^.	c #F4C47C",
"/.	c #F1C179",
"(.	c #F3C57B",
"_.	c #F4C87E",
":.	c #F7CB7F",
"<.	c #F5CB7F",
"[.	c #F7D792",
"}.	c #FAD992",
"|.	c #F8D690",
"1.	c #F8DC98",
"2.	c #F9E09F",
"3.	c #FBE0A0",
"4.	c #FCE0A0",
"5.	c #FCDD9C",
"6.	c #FAD996",
"7.	c #F5D492",
"8.	c #F6D28E",
"9.	c #F9D48E",
"0.	c #E9C98A",
"a.	c #92A792",
"b.	c #439FA3",
"c.	c #00ADB8",
"d.	c #00B1BC",
"e.	c #00AFBA",
"f.	c #34A0AE",
"g.	c #B64E74",
"h.	c #F40039",
"i.	c #FF003C",
"j.	c #F2353B",
"k.	c #ECAC75",
"l.	c #F5C681",
"m.	c #F5C480",
"n.	c #F3C47A",
"o.	c #F5C77C",
"p.	c #F6CA7F",
"q.	c #F8CD80",
"r.	c #F6CC7F",
"s.	c #FBD690",
"t.	c #F8D593",
"u.	c #F5D595",
"v.	c #F7D696",
"w.	c #F9D796",
"x.	c #EECC8A",
"y.	c #C8B17C",
"z.	c #C4B080",
"A.	c #CDBD8D",
"B.	c #55B2B3",
"C.	c #00AEB8",
"D.	c #00B3BD",
"E.	c #00B7C1",
"F.	c #00B6C0",
"G.	c #8B7388",
"H.	c #F60042",
"I.	c #DE0052",
"J.	c #56979F",
"K.	c #CCB384",
"L.	c #F2C37E",
"M.	c #F5C57E",
"N.	c #F8C97F",
"O.	c #F8CA7F",
"P.	c #F9CC7F",
"Q.	c #FBCD80",
"R.	c #F8CC7F",
"S.	c #F7D38E",
"T.	c #FDD891",
"U.	c #F7D08F",
"V.	c #F2CB8C",
"W.	c #F4CD8D",
"X.	c #F7D18D",
"Y.	c #F9D38E",
"Z.	c #E7C98C",
"`.	c #95AC98",
" +	c #80A294",
".+	c #4EA9AB",
"++	c #0CB7C1",
"@+	c #00B1BA",
"#+	c #00B5BF",
"$+	c #00AAB3",
"%+	c #D23E71",
"&+	c #F40054",
"*+	c #429FAC",
"=+	c #76A8A0",
"-+	c #EFC27D",
";+	c #FCCC82",
">+	c #FBCC80",
",+	c #FBCC7E",
"'+	c #FDCD7F",
")+	c #FACC7F",
"!+	c #F8D18C",
"~+	c #F4CC89",
"{+	c #F1C887",
"]+	c #F7D08B",
"^+	c #F6D08D",
"/+	c #9EAE96",
"(+	c #D9C28B",
"_+	c #CFBF91",
":+	c #25B2B9",
"<+	c #00B1BB",
"[+	c #00ACB5",
"}+	c #40B3B8",
"|+	c #73B8BB",
"1+	c #42B8BD",
"2+	c #00B2BC",
"3+	c #71899A",
"4+	c #FF0046",
"5+	c #C7527A",
"6+	c #5AA7A7",
"7+	c #EFC07E",
"8+	c #F7C780",
"9+	c #FBCC82",
"0+	c #FBCE84",
"a+	c #FACF85",
"b+	c #F9CD83",
"c+	c #F4C87D",
"d+	c #F6D08B",
"e+	c #F2CC86",
"f+	c #F2C884",
"g+	c #F1C583",
"h+	c #F4CB87",
"i+	c #E5C587",
"j+	c #BCBF9C",
"k+	c #FAD28C",
"l+	c #81B1A9",
"m+	c #66ADAF",
"n+	c #34A1A5",
"o+	c #71B2B5",
"p+	c #E8D7CC",
"q+	c #EAC7BB",
"r+	c #F7D9CD",
"s+	c #ADBDB8",
"t+	c #00ACB6",
"u+	c #00A7AF",
"v+	c #00AAB2",
"w+	c #FF0744",
"x+	c #D64073",
"y+	c #37AAB3",
"z+	c #CAB68E",
"A+	c #F8C781",
"B+	c #FACB82",
"C+	c #FBD087",
"D+	c #FAD38B",
"E+	c #F6CE86",
"F+	c #EDC37B",
"G+	c #F3CC8B",
"H+	c #F1C885",
"I+	c #F3C986",
"J+	c #F4CA86",
"K+	c #F5CC88",
"L+	c #F6CE8A",
"M+	c #E3C286",
"N+	c #DBC390",
"O+	c #F4CA87",
"P+	c #7DACA4",
"Q+	c #B7BFB8",
"R+	c #A5AEA9",
"S+	c #B2C6C2",
"T+	c #FADFD3",
"U+	c #F2D0C2",
"V+	c #FFE8D9",
"W+	c #F7DED3",
"X+	c #00A4AD",
"Y+	c #00A9B2",
"Z+	c #7AAEA6",
"`+	c #EC4C50",
" @	c #7690A3",
".@	c #1FB5BE",
"+@	c #BAB392",
"@@	c #F6C47E",
"#@	c #F8C981",
"$@	c #F8CE87",
"%@	c #F1CA86",
"&@	c #E6BD7B",
"*@	c #EFC587",
"=@	c #F2C687",
"-@	c #F0C384",
";@	c #F5CB89",
">@	c #F9D18C",
",@	c #F7CF8A",
"'@	c #F5CB88",
")@	c #F2C684",
"!@	c #EBBD7F",
"~@	c #EDBF7F",
"{@	c #C6B287",
"]@	c #BFBBB2",
"^@	c #E3CAC1",
"/@	c #DCCDC3",
"(@	c #F6DBCE",
"_@	c #E4D7D3",
":@	c #F2D3C8",
"<@	c #DBCCC2",
"[@	c #BAC0BB",
"}@	c #82B5BB",
"|@	c #04AEB8",
"1@	c #C0BA97",
"2@	c #CF9071",
"3@	c #32AAB1",
"4@	c #27B2BB",
"5@	c #B8AA88",
"6@	c #F1C079",
"7@	c #F6C77E",
"8@	c #F6CB86",
"9@	c #F3CE8E",
"0@	c #EBC587",
"a@	c #DDB67B",
"b@	c #ECC283",
"c@	c #F3C787",
"d@	c #F6CC8A",
"e@	c #F9D18D",
"f@	c #F6CD89",
"g@	c #F3C985",
"h@	c #F1C483",
"i@	c #EEC080",
"j@	c #EFC180",
"k@	c #F0C582",
"l@	c #E2B57F",
"m@	c #C3C3C9",
"n@	c #C7C0C8",
"o@	c #FFEDE3",
"p@	c #AACBE3",
"q@	c #BFB5BA",
"r@	c #EDD2C6",
"s@	c #F1CDC2",
"t@	c #F4C1BC",
"u@	c #E5C6BB",
"v@	c #EBC286",
"w@	c #E0BF87",
"x@	c #37AFB5",
"y@	c #8DB0A3",
"z@	c #EDBF7A",
"A@	c #F3C681",
"B@	c #EEC585",
"C@	c #EABF81",
"D@	c #E0B678",
"E@	c #E9BD7C",
"F@	c #F8D08C",
"G@	c #F8CF8C",
"H@	c #F8CD8D",
"I@	c #F5C888",
"J@	c #F1C482",
"K@	c #F1C481",
"L@	c #F2C582",
"M@	c #F4C884",
"N@	c #CEBB91",
"O@	c #DCD3D5",
"P@	c #A8B1C7",
"Q@	c #FFEEE4",
"R@	c #98BFDD",
"S@	c #DDD3D9",
"T@	c #F1D9CE",
"U@	c #CBC6BF",
"V@	c #FFCEC6",
"W@	c #FED0BF",
"X@	c #F8C887",
"Y@	c #E2BD80",
"Z@	c #62ABAA",
"`@	c #1AA8B1",
" #	c #9EAC97",
".#	c #E6BF81",
"+#	c #F7C77E",
"@#	c #EEBE77",
"##	c #E5B271",
"$#	c #E8B672",
"%#	c #E8B772",
"&#	c #ECC281",
"*#	c #F7CE8A",
"=#	c #FAD28D",
"-#	c #F8CF8D",
";#	c #F8CD8C",
">#	c #F6C887",
",#	c #F3C583",
"'#	c #F3C683",
")#	c #F3C983",
"!#	c #F5CA85",
"~#	c #DAC28E",
"{#	c #AEB5AE",
"]#	c #FFD8CC",
"^#	c #EBC7C8",
"/#	c #FFE7D9",
"(#	c #FAD9D3",
"_#	c #FFDBD0",
":#	c #BBC3BD",
"<#	c #D7CAC5",
"[#	c #FFDED2",
"}#	c #F7C5A8",
"|#	c #F5C77E",
"1#	c #9DA28C",
"2#	c #149CA8",
"3#	c #47ACB2",
"4#	c #69A9A4",
"5#	c #EABC78",
"6#	c #EDBC76",
"7#	c #E6B472",
"8#	c #EAB874",
"9#	c #ECBB74",
"0#	c #F9CF8B",
"a#	c #F6CA87",
"b#	c #F7CA86",
"c#	c #F7CA87",
"d#	c #F2CD85",
"e#	c #F4CD85",
"f#	c #ECCB8D",
"g#	c #DEBC9F",
"h#	c #FFDECD",
"i#	c #FFDCD1",
"j#	c #FFD8CD",
"k#	c #FFE8D7",
"l#	c #FFE3D6",
"m#	c #C5BFC1",
"n#	c #4BA5AE",
"o#	c #829F9F",
"p#	c #DFB678",
"q#	c #E8BB77",
"r#	c #E9BB79",
"s#	c #8EADA0",
"t#	c #65A5A3",
"u#	c #E6B372",
"v#	c #E8B674",
"w#	c #EBB875",
"x#	c #F2C178",
"y#	c #F7C87A",
"z#	c #F6D390",
"A#	c #FCD791",
"B#	c #F7CB86",
"C#	c #F7CC87",
"D#	c #C6B28D",
"E#	c #838F4A",
"F#	c #94824F",
"G#	c #F5CD85",
"H#	c #F7CE88",
"I#	c #F3C497",
"J#	c #D690CA",
"K#	c #E5AFCC",
"L#	c #E4A8C7",
"M#	c #D785C7",
"N#	c #BB37C3",
"O#	c #BD7BA8",
"P#	c #C1AB88",
"Q#	c #E8BD7A",
"R#	c #E9BC78",
"S#	c #EDBE7A",
"T#	c #C8B388",
"U#	c #2FA9B1",
"V#	c #2CB0B7",
"W#	c #BDAF8A",
"X#	c #E8B573",
"Y#	c #EAB774",
"Z#	c #EDBB76",
"`#	c #F3C379",
" $	c #F6C87B",
".$	c #F3D896",
"+$	c #FAD48D",
"@$	c #FAD087",
"#$	c #F8D086",
"$$	c #F3CD85",
"%$	c #8D6E44",
"&$	c #003200",
"*$	c #151307",
"=$	c #CCB177",
"-$	c #F9D38F",
";$	c #F19A95",
">$	c #B500BC",
",$	c #A800CB",
"'$	c #AC00CD",
")$	c #AF00C6",
"!$	c #E93CB8",
"~$	c #FF5AAE",
"{$	c #F38FA2",
"]$	c #EFBF88",
"^$	c #F1C480",
"/$	c #E9BC79",
"($	c #E2B573",
"_$	c #B29B73",
":$	c #C6A070",
"<$	c #DFAD70",
"[$	c #F2C179",
"}$	c #FACB7E",
"|$	c #F9CB7D",
"1$	c #F2C87A",
"2$	c #FADB97",
"3$	c #FBD995",
"4$	c #F8CF86",
"5$	c #F4CC83",
"6$	c #AF7E4E",
"7$	c #8E6B54",
"8$	c #7D3E00",
"9$	c #A47D48",
"0$	c #F5B993",
"a$	c #FF61AC",
"b$	c #F64CAF",
"c$	c #D914B7",
"d$	c #E334B6",
"e$	c #FC5EB3",
"f$	c #FF5EB1",
"g$	c #DB2587",
"h$	c #E3C1BA",
"i$	c #FED2C5",
"j$	c #F5C198",
"k$	c #E3B473",
"l$	c #DFAD6E",
"m$	c #DBA86A",
"n$	c #E2AF6F",
"o$	c #ECB975",
"p$	c #F3C37A",
"q$	c #FBCC7F",
"r$	c #FACC7E",
"s$	c #F2C97A",
"t$	c #F3D38E",
"u$	c #F9D48F",
"v$	c #FAD18C",
"w$	c #F5C883",
"x$	c #F3C682",
"y$	c #F1C580",
"z$	c #ECC380",
"A$	c #D2AB6E",
"B$	c #A0714A",
"C$	c #BC8D6E",
"D$	c #F9CCB7",
"E$	c #FC6EA9",
"F$	c #FF5AAD",
"G$	c #FF6BBB",
"H$	c #FE60AE",
"I$	c #9493AF",
"J$	c #52A4B6",
"K$	c #878892",
"L$	c #EAC0B8",
"M$	c #FEDACB",
"N$	c #EDB68C",
"O$	c #E8B775",
"P$	c #EAB875",
"Q$	c #EDBB77",
"R$	c #F1BF79",
"S$	c #F3C27B",
"T$	c #F7C67D",
"U$	c #F9C97D",
"V$	c #F9CE7E",
"W$	c #F1CC7D",
"X$	c #F1D08B",
"Y$	c #F7D18B",
"Z$	c #F5C984",
"`$	c #F2C480",
" %	c #F0C37F",
".%	c #F4CA84",
"+%	c #FAD38C",
"@%	c #FBD68F",
"#%	c #F8CCA7",
"$%	c #FEDBC8",
"%%	c #EBA58E",
"&%	c #CD849C",
"*%	c #AA9AB2",
"=%	c #AF9FBB",
"-%	c #42A1B1",
";%	c #00BDC6",
">%	c #C7C1BC",
",%	c #FED9C8",
"'%	c #EEB68A",
")%	c #E6B573",
"!%	c #EAB976",
"~%	c #EDBC78",
"{%	c #F2C27C",
"]%	c #F6C77F",
"^%	c #F7C97F",
"/%	c #F9CA7F",
"(%	c #F9CB7F",
"_%	c #F9CF7F",
":%	c #F2CE7F",
"<%	c #ECC280",
"[%	c #F2C682",
"}%	c #F0C380",
"|%	c #EFC27E",
"1%	c #F6CA83",
"2%	c #FBD088",
"3%	c #FACF88",
"4%	c #F6CA89",
"5%	c #F2C589",
"6%	c #F59A94",
"7%	c #FF71B8",
"8%	c #E47BAE",
"9%	c #CD87B2",
"0%	c #0D9EAC",
"a%	c #25AAB8",
"b%	c #E9BABF",
"c%	c #F6C4AD",
"d%	c #EAB984",
"e%	c #E8B876",
"f%	c #EFC47D",
"g%	c #F4CC82",
"h%	c #F8D388",
"i%	c #FBD88C",
"j%	c #FBD589",
"k%	c #FCD185",
"l%	c #F9CE81",
"m%	c #F9D284",
"n%	c #F3D285",
"o%	c #EBC07E",
"p%	c #F2C581",
"q%	c #F1C581",
"r%	c #F0C480",
"s%	c #EFC27F",
"t%	c #F6C983",
"u%	c #FBCE85",
"v%	c #F9CC84",
"w%	c #F4C682",
"x%	c #F1B383",
"y%	c #FE68AE",
"z%	c #FF63B6",
"A%	c #FF66BA",
"B%	c #FF69BA",
"C%	c #FB6BB5",
"D%	c #FF6DBB",
"E%	c #FF7AB7",
"F%	c #F2B3AA",
"G%	c #E7B484",
"H%	c #F1C981",
"I%	c #F6D388",
"J%	c #F9D88C",
"K%	c #FCDC90",
"L%	c #FCD88B",
"M%	c #FBD386",
"N%	c #FAD185",
"O%	c #F9D083",
"P%	c #F9D385",
"Q%	c #F3D286",
"R%	c #F2C882",
"S%	c #F8CE85",
"T%	c #F8CD87",
"U%	c #F8CC88",
"V%	c #F7CB87",
"W%	c #F7CA85",
"X%	c #F9CA85",
"Y%	c #EEBF7B",
"Z%	c #EE9E84",
"`%	c #FE61AC",
" &	c #FF68BC",
".&	c #FF65B8",
"+&	c #FF68BB",
"@&	c #FF69BC",
"#&	c #FF63B8",
"$&	c #EA998C",
"%&	c #EABE78",
"&&	c #F1C77F",
"*&	c #F6D28A",
"=&	c #F9DA91",
"-&	c #FAD98F",
";&	c #F9D68A",
">&	c #FAD386",
",&	c #FAD388",
"'&	c #FAD286",
")&	c #F4CD82",
"!&	c #F5CC84",
"~&	c #FBD188",
"{&	c #FBD189",
"]&	c #FAD08A",
"^&	c #F9CC88",
"/&	c #F7C985",
"(&	c #F7C884",
"_&	c #F7C683",
":&	c #F3C280",
"<&	c #EDBD79",
"[&	c #EDA595",
"}&	c #FF84AF",
"|&	c #FF6DB8",
"1&	c #FF6AB9",
"2&	c #FF70B8",
"3&	c #F97A9E",
"4&	c #E7AA79",
"5&	c #F4CD83",
"6&	c #F8D78E",
"7&	c #FBDD94",
"8&	c #F8D88D",
"9&	c #F8D589",
"0&	c #F8D385",
"a&	c #F9D487",
"b&	c #FBD588",
"c&	c #FAD285",
"d&	c #F4CA7F",
"e&	c #F5CB84",
"f&	c #FCD288",
"g&	c #FCD289",
"h&	c #FACF86",
"i&	c #F8CD85",
"j&	c #F3C580",
"k&	c #EEBE7B",
"l&	c #EEBD7B",
"m&	c #EFBE7C",
"n&	c #F0C07D",
"o&	c #EEC07C",
"p&	c #EAB58F",
"q&	c #FFE7D8",
"r&	c #FFCDC6",
"s&	c #E4877A",
"t&	c #FEB3B8",
"u&	c #FFD7CD",
"v&	c #FACFAB",
"w&	c #F5CC80",
"x&	c #F6D084",
"y&	c #F7D287",
"z&	c #F9D68B",
"A&	c #FBD88E",
"B&	c #F8D588",
"C&	c #F9D386",
"D&	c #FAD284",
"E&	c #F9CF81",
"F&	c #F4C87C",
"G&	c #F5CA84",
"H&	c #FCD087",
"I&	c #F8CC83",
"J&	c #F5C981",
"K&	c #EFC17B",
"L&	c #E9B775",
"M&	c #E9B875",
"N&	c #EBBB78",
"O&	c #F0C27F",
"P&	c #EDBD94",
"Q&	c #FFE7DA",
"R&	c #EAB797",
"S&	c #FDDCCB",
"T&	c #FED4B2",
"U&	c #FDD88A",
"V&	c #FBD78A",
"W&	c #FAD68A",
"X&	c #FAD58A",
"Y&	c #FBD488",
"Z&	c #F9D080",
"`&	c #F8CC7D",
" *	c #F2C477",
".*	c #F3C884",
"+*	c #F5C882",
"@*	c #F3C47E",
"#*	c #F1C37D",
"$*	c #F0C27C",
"%*	c #F0C17B",
"&*	c #F1C47D",
"**	c #EFC07B",
"=*	c #E9B976",
"-*	c #E9B977",
";*	c #ECBB82",
">*	c #FEDED0",
",*	c #FFE9DA",
"'*	c #F3C4A1",
")*	c #FDDCC4",
"!*	c #FFE9DB",
"~*	c #FED7C0",
"{*	c #FBD891",
"]*	c #FBD78B",
"^*	c #FAD589",
"/*	c #FBD286",
"(*	c #FBD084",
"_*	c #F9D285",
":*	c #F8D386",
"<*	c #F7CA7C",
"[*	c #F4C578",
"}*	c #EBBC71",
"|*	c #ECBA78",
"1*	c #EBB976",
"2*	c #E9B876",
"3*	c #F3C77F",
"4*	c #EDBF79",
"5*	c #E1AF6E",
"6*	c #E5B573",
"7*	c #F4C985",
"8*	c #FBD4B6",
"9*	c #FED8BA",
"0*	c #FACFA6",
"a*	c #FFE8D8",
"b*	c #FEDCCA",
"c*	c #FAD796",
"d*	c #F9D38A",
"e*	c #FBCF81",
"f*	c #F9D388",
"g*	c #FAD081",
"h*	c #F9CC7D",
"i*	c #F6C579",
"j*	c #F1BF74",
"k*	c #E5B46C",
"l*	c #EFC17D",
"m*	c #F1C27D",
"n*	c #EEBF7C",
"o*	c #E8B776",
"p*	c #E3B172",
"q*	c #E5B474",
"r*	c #E8B977",
"s*	c #E8B976",
"t*	c #E8B975",
"u*	c #E8BA77",
"v*	c #ECC07B",
"w*	c #F8D289",
"x*	c #EFC39B",
"y*	c #FFDBD1",
"z*	c #F5C5BC",
"A*	c #EBBF86",
"B*	c #FFDED0",
"C*	c #FCCDC9",
"D*	c #F5CB8D",
"E*	c #F7CB81",
"F*	c #F6CA7E",
"G*	c #F8CB7F",
"H*	c #F8CD81",
"I*	c #F9D387",
"J*	c #FAD385",
"K*	c #FACD7E",
"L*	c #F9CA7D",
"M*	c #F8C67A",
"N*	c #F3C175",
"O*	c #E7B76C",
"P*	c #EBBC77",
"Q*	c #F0C27D",
"R*	c #E6B677",
"S*	c #DFAC70",
"T*	c #DEAC70",
"U*	c #DFAE71",
"V*	c #DFAE6F",
"W*	c #DEAE6C",
"X*	c #E5B673",
"Y*	c #F0C581",
"Z*	c #F3CB84",
"`*	c #F9D78D",
" =	c #CF95A6",
".=	c #C249C7",
"+=	c #BE60BB",
"@=	c #C79494",
"#=	c #D278BE",
"$=	c #C04DC4",
"%=	c #EBB884",
"&=	c #F3C277",
"*=	c #F1C175",
"==	c #F3C67C",
"-=	c #F4CB81",
";=	c #F7D388",
">=	c #FBD98D",
",=	c #F9C97B",
"'=	c #F8C87A",
")=	c #F4C375",
"!=	c #EBBB6E",
"~=	c #E3B371",
"{=	c #EBBC78",
"]=	c #EBBE7B",
"^=	c #E6B874",
"/=	c #E7B874",
"(=	c #E7B873",
"_=	c #EBC07B",
":=	c #F5CF88",
"<=	c #F6D289",
"[=	c #F6D48C",
"}=	c #959A98",
"|=	c #5657AE",
"1=	c #9765B2",
"2=	c #AF9095",
"3=	c #7A14B1",
"4=	c #8718B5",
"5=	c #E9B77F",
"6=	c #EEBD72",
"7=	c #EBBB71",
"8=	c #EDC077",
"9=	c #EFC67C",
"0=	c #F4CE83",
"a=	c #F9D488",
"b=	c #F8CE81",
"c=	c #F7C779",
"d=	c #F8C879",
"e=	c #F9C978",
"f=	c #F7C776",
"g=	c #F0C171",
"h=	c #D2A466",
"i=	c #DDAF6F",
"j=	c #DFB372",
"k=	c #E2B673",
"l=	c #E4B974",
"m=	c #E5BA74",
"n=	c #E5BB74",
"o=	c #E6BC75",
"p=	c #E7BC76",
"q=	c #EBC47D",
"r=	c #F1D18B",
"s=	c #EECE88",
"t=	c #DBBE82",
"u=	c #84A595",
"v=	c #44ABAE",
"w=	c #65B0AE",
"x=	c #6DA09B",
"y=	c #009BA3",
"z=	c #13B2BB",
"A=	c #BEAC7E",
"B=	c #E0B06A",
"C=	c #DEAD69",
"D=	c #E1B46E",
"E=	c #E4BA73",
"F=	c #E9C27A",
"G=	c #EEC87F",
"H=	c #EDC379",
"I=	c #EDBE73",
"J=	c #EFC173",
"K=	c #F1C473",
"L=	c #EEC071",
"  . + @ # $ $ % & * * = - ; > , ' ) ! ~ { ] ^ / ~ ( _ : < [ } | ",
"1 2 3 4 5 6 7 8 9 0 a b c d e f g h i j k l m n o p q r r s t u ",
"v w x 4 y 4 z A B C D E F G H I J K L M N O P Q R S T U V W X ~ ",
"Y Z 4 `  ...+.@.#.$.%.d &.*.=.-.;.>.,.'.).J !.~.{.].^./.(._.:.<.",
"[.}.|.1.2.3.4.5.6.7.8.9.0.a.b.c.d.e.f.g.h.i.j.k.l.m.^.n.o.p.q.r.",
"* 3 s.t.u.v.w.c x.y.z.A.B.C.D.E.E.E.E.F.G.H.I.J.K.L.M.N.O.P.Q.R.",
"S.T.z U.V.W.X.Y.Z.`. +.+++@+#+E.E.E.E.F.$+%+&+*+=+-+q ;+>+,+'+)+",
"@ 9.!+~+{+~+]+^+/+(+_+:+<+[+}+|+1+<+#+D.2+3+4+5+6+7+8+9+0+a+b+c+",
"@ d+e+f+g+h+]+i+j+k+l+m+n+o+p+q+r+s+t+u+<+v+w+x+y+z+A+B+C+D+E+F+",
"G+~+H+I+J+K+L+M+N+O+P+Q+R+S+T+U+V+W+X+Y+E.Z+`+ @.@+@@@#@$@X.%@&@",
"*@=@-@;@>@,@'@)@!@~@{@]@^@/@(@_@:@<@[@}@|@1@2@3@4@5@6@7@8@9@0@a@",
"b@c@c@d@e@f@g@h@i@j@k@l@m@n@o@p@q@r@s@t@u@v@w@x@#+y@z@7@A@B@C@D@",
"E@K+F@G@H@I@J@K@L@M@K+N@O@P@Q@R@S@T@U@V@W@X@Y@Z@`@ #.#+#@###$#%#",
"&#*#=#-#;#>#,#'#)#!#~#{#]#^#/#(#_#:#<#[#}#|#r 1#2#3#4#5#6#7#8#9#",
"8.x z 0#a#b#c#L+d#e#f#g#h#i#j#k#l#m#n#o#p#q#r#s#F.E.t#u#v#w#x#y#",
"z#3 A#0#B#B#C#D#E#F#G#H#I#J#K#L#M#N#O#P#Q#R#S#T#U#V#W#X#Y#Z#`# $",
".$$.6.+$@$#$$$%$&$*$=$-$;$>$,$'$)$!$~${$]$^$/$($_$:$<$Y#[$}$|$1$",
".$2$3$+$@$4$5$6$7$8$9$0$a$b$c$d$e$f$g$h$i$j$r#k$l$m$n$o$p$q$r$s$",
"t$u$v$C#w$x$y$z$A$B$C$D$E$F$G$H$I$J$K$L$M$N$O$P$Q$R$S$T$U$,+V$W$",
"X$Y$H#Z$A@`$ %.%+%@%#%$%%%&%*%=%-%;%>%,%'%)%!%~%{%]%^%/%(%r$_%:%",
"<%[%L@}%|% %^$1%2%3%4%5%6%7%8%9%0%a%b%c%d%e%f%g%h%i%j%k%o l%m%n%",
"o%p%q%r%s%^$p%t%u%v%w%x%y%z%A%B%C%D%E%F%G%5#H%I%J%K%L%M%N%O%P%Q%",
"R%S%S%T%U%V%b#W%X%l.Y%Z%`% &.&+&@&+&#&$&%&&&*&=&=&-&;&P%>&,&'&)&",
"!&~&~&{&]&^&/&(&_&:&<&!%[&}&|&1&D%2&3&4&/ 5&6&7&=&8&9&0&a&b&c&d&",
"e&f&g&h&i&j&k&l&m&n&`$o&p&q&r&s&t&u&v&w&x&y&z&A&z&B&B&a&C&D&E&F&",
"G&H&C+I&J&K&L&M&N&Y%w%O&P&l#Q&R&S&V+T&U&V&W&X&Y&C&0&a&a&m%Z&`& *",
".*+*@*#*$*$*%*$*&***=*-*;*>*,*'*)*!*~*{*]*^*/*(*_*:*C&D&E&<*[*}*",
"J@n&|*1*2*r u 3*3*4*5*6*7*8*V+9*0*a*b*c*d*N%e*Q.N%f*c&g*h*i*j*k*",
"l*m*n*o*p*q*r*s*t*t*u*v*w*x*y*z*A*B*C*D*E*F*G*H*I*]*J*K*L*M*N*O*",
"P*Q*s%R*S*T*U*V*W*X*Y*Z*`* =.=+=@=#=$=%=&=*===-=;=>=c&,=,='=)=!=",
"~={=]=r*X*X*^=/=(=_=:=<=[=}=|=1=2=3=4=5=6=7=8=9=0=a=b=c=d=e=f=g=",
"h=i=j=k=l=m=n=o=p=q=r=s=t=u=v=w=x=y=z=A=B=C=D=E=F=G=H=I=J=K=K=L="};
