/* XPM */
static char * P2_xpm[] = {
"32 32 902 2",
"  	c #F3D692",
". 	c #F7D892",
"+ 	c #F5D58F",
"@ 	c #F6D28D",
"# 	c #F6D18D",
"$ 	c #F7D08D",
"% 	c #F7D28E",
"& 	c #F8D48F",
"* 	c #F7D48F",
"= 	c #F7D591",
"- 	c #F7D898",
"; 	c #F6D898",
"> 	c #F5D997",
", 	c #F4D895",
"' 	c #F2C782",
") 	c #F5CF86",
"! 	c #F5CB83",
"~ 	c #F3C880",
"{ 	c #ECC07C",
"] 	c #E9BD7A",
"^ 	c #ECC17B",
"/ 	c #EFC47C",
"( 	c #F6CA82",
"_ 	c #F1C57F",
": 	c #EABE7B",
"< 	c #E8BA78",
"[ 	c #E7B775",
"} 	c #EBBB77",
"| 	c #ECBE79",
"1 	c #F8D996",
"2 	c #FDDB95",
"3 	c #FCD892",
"4 	c #FAD690",
"5 	c #F9D68F",
"6 	c #FAD590",
"7 	c #FCD590",
"8 	c #FCD893",
"9 	c #FBDC98",
"0 	c #FBDD98",
"a 	c #FADD99",
"b 	c #FADC98",
"c 	c #FAD894",
"d 	c #FAD893",
"e 	c #FBD790",
"f 	c #FBD78F",
"g 	c #FBD389",
"h 	c #FAD287",
"i 	c #F6C983",
"j 	c #F4C781",
"k 	c #F0C47D",
"l 	c #F0C37C",
"m 	c #F6C981",
"n 	c #F9CD83",
"o 	c #FACF83",
"p 	c #FACE82",
"q 	c #F5C77F",
"r 	c #EEBF7A",
"s 	c #EEC079",
"t 	c #F1C47C",
"u 	c #F2C67E",
"v 	c #F8D897",
"w 	c #FDDA95",
"x 	c #FDD791",
"y 	c #F7D68F",
"z 	c #FDD691",
"A 	c #FCDA96",
"B 	c #FBDF9B",
"C 	c #FBE09C",
"D 	c #FBE19D",
"E 	c #FADF9A",
"F 	c #FAD691",
"G 	c #F9D58F",
"H 	c #FBD289",
"I 	c #FBD288",
"J 	c #FBD086",
"K 	c #F9CE85",
"L 	c #F3C681",
"M 	c #F1C380",
"N 	c #F1C57C",
"O 	c #F8CC82",
"P 	c #FDD186",
"Q 	c #FCD184",
"R 	c #FACE80",
"S 	c #F4C67D",
"T 	c #EEBD79",
"U 	c #EFC07A",
"V 	c #F0C47B",
"W 	c #F3C77E",
"X 	c #F8D793",
"Y 	c #FCD993",
"Z 	c #F9DA95",
"` 	c #F9DD99",
" .	c #FBDD9A",
"..	c #FCDC9B",
"+.	c #FCDC9A",
"@.	c #FBDC99",
"#.	c #FADB98",
"$.	c #FAD995",
"%.	c #FBD48C",
"&.	c #FAD48B",
"*.	c #F5C47E",
"=.	c #FB6351",
"-.	c #F8825C",
";.	c #EDBF7D",
">.	c #F1C280",
",.	c #F6C982",
"'.	c #EFC37D",
").	c #E7AE6F",
"!.	c #F2BF7E",
"~.	c #F8CB81",
"{.	c #F7C880",
"].	c #F4C47C",
"^.	c #F1C179",
"/.	c #F3C57B",
"(.	c #F4C87E",
"_.	c #F7CB7F",
":.	c #F5CB7F",
"<.	c #F7D792",
"[.	c #FAD992",
"}.	c #F8D690",
"|.	c #F8DC98",
"1.	c #F9E09F",
"2.	c #FBE0A0",
"3.	c #FCE0A0",
"4.	c #FCDD9C",
"5.	c #FBDA97",
"6.	c #FAD48F",
"7.	c #FAD48E",
"8.	c #FCD38A",
"9.	c #F6C882",
"0.	c #ED6D4C",
"a.	c #FF0042",
"b.	c #FF2141",
"c.	c #E77253",
"d.	c #E9AA71",
"e.	c #EB9367",
"f.	c #FF3643",
"g.	c #FF1447",
"h.	c #F58E60",
"i.	c #F5C580",
"j.	c #F5C480",
"k.	c #F3C47A",
"l.	c #F5C77C",
"m.	c #F6CA7F",
"n.	c #F8CD80",
"o.	c #F6CC7F",
"p.	c #FBD690",
"q.	c #F8D593",
"r.	c #F5D595",
"s.	c #F7D696",
"t.	c #F9D796",
"u.	c #FBD792",
"v.	c #FAD28B",
"w.	c #FBD28A",
"x.	c #FBD189",
"y.	c #E09A64",
"z.	c #DB0046",
"A.	c #D21461",
"B.	c #D70046",
"C.	c #FF003E",
"D.	c #F5183E",
"E.	c #FE003C",
"F.	c #FF2146",
"G.	c #EC9E69",
"H.	c #F0C27D",
"I.	c #F2C37E",
"J.	c #F5C57E",
"K.	c #F8C97F",
"L.	c #F8CA7F",
"M.	c #F9CC7F",
"N.	c #FBCD80",
"O.	c #F8CC7F",
"P.	c #F7D38E",
"Q.	c #FDD891",
"R.	c #F7D08F",
"S.	c #F2CB8C",
"T.	c #F4CD8D",
"U.	c #F7D18D",
"V.	c #F9D38E",
"W.	c #F6D08B",
"X.	c #F7CF87",
"Y.	c #FAD188",
"Z.	c #E8C78B",
"`.	c #92A693",
" +	c #429EA2",
".+	c #00ADB8",
"++	c #00B1BC",
"@+	c #00AFBA",
"#+	c #34A0AE",
"$+	c #B64E74",
"%+	c #F40039",
"&+	c #FF003C",
"*+	c #F2323A",
"=+	c #E3A06E",
"-+	c #EBBF7B",
";+	c #EFC27D",
">+	c #FCCC82",
",+	c #FBCC80",
"'+	c #FBCC7E",
")+	c #FDCD7F",
"!+	c #FACC7F",
"~+	c #F9D48E",
"{+	c #F8D18C",
"]+	c #F4CC89",
"^+	c #F1C887",
"/+	c #F7D08B",
"(+	c #FAD38D",
"_+	c #EFCB87",
":+	c #C8AF79",
"<+	c #C2AD7D",
"[+	c #C9B88A",
"}+	c #52B1B3",
"|+	c #00AEB8",
"1+	c #00B3BD",
"2+	c #00B7C1",
"3+	c #00B6C0",
"4+	c #8B7388",
"5+	c #F60042",
"6+	c #DE0052",
"7+	c #56979F",
"8+	c #CBB283",
"9+	c #F3C37F",
"0+	c #F7C780",
"a+	c #FBCC82",
"b+	c #FBCE84",
"c+	c #FACF85",
"d+	c #F4C87D",
"e+	c #F2CC86",
"f+	c #F2C884",
"g+	c #F1C583",
"h+	c #F4CB87",
"i+	c #E9CB8D",
"j+	c #94AC97",
"k+	c #7C9F93",
"l+	c #4BA8AB",
"m+	c #0BB7C1",
"n+	c #00B1BA",
"o+	c #00B5BF",
"p+	c #00AAB3",
"q+	c #D23E71",
"r+	c #F40054",
"s+	c #429FAC",
"t+	c #7AA9A1",
"u+	c #F7C482",
"v+	c #F8C781",
"w+	c #FACB82",
"x+	c #FBD087",
"y+	c #FAD38B",
"z+	c #F6CE86",
"A+	c #EDC37B",
"B+	c #F3CC8B",
"C+	c #F1C885",
"D+	c #F3C986",
"E+	c #F4CA86",
"F+	c #F5CC88",
"G+	c #F6CE8A",
"H+	c #F3CC8A",
"I+	c #9AAA94",
"J+	c #D4BA88",
"K+	c #CAB98F",
"L+	c #24B1B9",
"M+	c #00B1BB",
"N+	c #00ACB5",
"O+	c #40B3B8",
"P+	c #73B8BB",
"Q+	c #42B8BD",
"R+	c #00B2BC",
"S+	c #71899A",
"T+	c #FF0046",
"U+	c #C7527A",
"V+	c #5BA7A7",
"W+	c #EFBE7D",
"X+	c #F6C47E",
"Y+	c #F8C981",
"Z+	c #F8CE87",
"`+	c #F1CA86",
" @	c #E6BD7B",
".@	c #EFC587",
"+@	c #F2C687",
"@@	c #F0C384",
"#@	c #F5CB89",
"$@	c #F9D18C",
"%@	c #F7CF8A",
"&@	c #F5CB88",
"*@	c #DEB97F",
"=@	c #B0B195",
"-@	c #EDBF7F",
";@	c #7EB0A8",
">@	c #66ADAF",
",@	c #34A1A5",
"'@	c #71B2B5",
")@	c #E8D7CC",
"!@	c #EAC7BB",
"~@	c #F7D9CD",
"{@	c #ADBDB8",
"]@	c #00ACB6",
"^@	c #00A7AF",
"/@	c #00AAB2",
"(@	c #FF0844",
"_@	c #D64073",
":@	c #37AAB3",
"<@	c #C2AF88",
"[@	c #F1C079",
"}@	c #F6C77E",
"|@	c #F6CB86",
"1@	c #F3CE8E",
"2@	c #EBC587",
"3@	c #DDB67B",
"4@	c #ECC283",
"5@	c #F3C787",
"6@	c #F6CC8A",
"7@	c #F9D18D",
"8@	c #F6CD89",
"9@	c #F3C985",
"0@	c #DDB980",
"a@	c #D4B889",
"b@	c #EFC180",
"c@	c #7DADA4",
"d@	c #B7BFB8",
"e@	c #A5AEA9",
"f@	c #B2C6C2",
"g@	c #FADFD3",
"h@	c #F2D0C2",
"i@	c #FFE8D9",
"j@	c #F7DED3",
"k@	c #00A4AD",
"l@	c #00A9B2",
"m@	c #7EB0A7",
"n@	c #EC4D51",
"o@	c #7690A3",
"p@	c #1FB5BE",
"q@	c #B8B290",
"r@	c #F3C27A",
"s@	c #EEC585",
"t@	c #EABF81",
"u@	c #E0B678",
"v@	c #E9BD7C",
"w@	c #F8D08C",
"x@	c #F8CF8C",
"y@	c #F8CD8D",
"z@	c #F5C888",
"A@	c #F1C482",
"B@	c #F1C481",
"C@	c #F0C381",
"D@	c #F4C884",
"E@	c #CDBA8C",
"F@	c #C0BCB2",
"G@	c #E3CAC1",
"H@	c #DCCDC3",
"I@	c #F6DBCE",
"J@	c #E4D7D3",
"K@	c #F2D3C8",
"L@	c #DBCCC2",
"M@	c #BAC0BB",
"N@	c #82B5BB",
"O@	c #04AEB8",
"P@	c #BFBB97",
"Q@	c #CB8A6D",
"R@	c #30AAB0",
"S@	c #28B2BB",
"T@	c #C0B18B",
"U@	c #F8C77F",
"V@	c #F7C77E",
"W@	c #EEBE77",
"X@	c #E5B271",
"Y@	c #E8B672",
"Z@	c #E8B772",
"`@	c #ECC281",
" #	c #F7CE8A",
".#	c #FAD28D",
"+#	c #F8CF8D",
"@#	c #F8CD8C",
"##	c #F6C887",
"$#	c #F3C583",
"%#	c #F3C683",
"&#	c #F3C983",
"*#	c #F5CA85",
"=#	c #F6CD87",
"-#	c #E6BA83",
";#	c #C3C4C9",
">#	c #C7C0C8",
",#	c #FFEDE3",
"'#	c #AACBE3",
")#	c #BFB5BA",
"!#	c #EDD2C6",
"~#	c #F1CDC2",
"{#	c #F4C1BC",
"]#	c #E5C6BB",
"^#	c #E6BF82",
"/#	c #DAB983",
"(#	c #36AFB5",
"_#	c #92B3A5",
":#	c #F1C27E",
"<#	c #F4C37B",
"[#	c #EDBC76",
"}#	c #E6B472",
"|#	c #EAB874",
"1#	c #ECBB74",
"2#	c #F6D28E",
"3#	c #F9CF8B",
"4#	c #F6CA87",
"5#	c #F7CA86",
"6#	c #F7CA87",
"7#	c #F8CF88",
"8#	c #FAD48A",
"9#	c #F9D088",
"0#	c #D0BC91",
"a#	c #DCD3D5",
"b#	c #A8B1C7",
"c#	c #FFEEE4",
"d#	c #98BFDD",
"e#	c #DDD3D9",
"f#	c #F1D9CE",
"g#	c #CBC6BF",
"h#	c #FFCEC6",
"i#	c #FCCEBE",
"j#	c #E8B77E",
"k#	c #DFBB81",
"l#	c #65ACAB",
"m#	c #1BA8B2",
"n#	c #A0AE98",
"o#	c #DFB87E",
"p#	c #E8B573",
"q#	c #E8B674",
"r#	c #EBB875",
"s#	c #F2C178",
"t#	c #F7C87A",
"u#	c #F6D390",
"v#	c #FCD791",
"w#	c #F7CB86",
"x#	c #F7CC87",
"y#	c #FBD48A",
"z#	c #DDC58F",
"A#	c #AEB5AE",
"B#	c #FFD8CC",
"C#	c #EBC7C8",
"D#	c #FFE7D9",
"E#	c #FAD9D3",
"F#	c #FFDBD0",
"G#	c #BBC3BD",
"H#	c #D7CAC5",
"I#	c #FFDED2",
"J#	c #F3C1A6",
"K#	c #E8BA77",
"L#	c #EBBD79",
"M#	c #9FA58D",
"N#	c #149CA8",
"O#	c #46ACB2",
"P#	c #65A7A4",
"Q#	c #DEAF70",
"R#	c #EAB774",
"S#	c #EDBB76",
"T#	c #F3C379",
"U#	c #F6C87B",
"V#	c #F3D896",
"W#	c #FAD996",
"X#	c #FAD48D",
"Y#	c #FAD087",
"Z#	c #F8D086",
"`#	c #F7D086",
" $	c #F6D18B",
".$	c #F1CC87",
"+$	c #F3D08A",
"@$	c #EAD194",
"#$	c #DEC0A2",
"$$	c #FFDECD",
"%$	c #FFDCD1",
"&$	c #FFD8CD",
"*$	c #FFE8D7",
"=$	c #FFE3D6",
"-$	c #C5BFC1",
";$	c #4BA5AE",
">$	c #809D9E",
",$	c #E2B87A",
"'$	c #F1C480",
")$	c #E5B877",
"!$	c #85A99D",
"~$	c #5EA2A2",
"{$	c #F2C179",
"]$	c #FACB7E",
"^$	c #F9CB7D",
"/$	c #F2C87A",
"($	c #FADB97",
"_$	c #FBD995",
":$	c #F8CF86",
"<$	c #F6CF85",
"[$	c #C6B38D",
"}$	c #838F4B",
"|$	c #938351",
"1$	c #F3D38E",
"2$	c #F6D691",
"3$	c #F4CA9B",
"4$	c #D691CA",
"5$	c #E5AFCC",
"6$	c #E4A8C7",
"7$	c #D785C7",
"8$	c #BB37C3",
"9$	c #BC79A7",
"0$	c #BAA083",
"a$	c #EBBE7C",
"b$	c #F1C47F",
"c$	c #E9BB79",
"d$	c #BDAB83",
"e$	c #2AA8B0",
"f$	c #26AFB6",
"g$	c #B3A685",
"h$	c #ECB975",
"i$	c #F3C37A",
"j$	c #FBCC7F",
"k$	c #FACC7E",
"l$	c #F2C97A",
"m$	c #F9D48F",
"n$	c #FAD18C",
"o$	c #F5C883",
"p$	c #F3C682",
"q$	c #EEC280",
"r$	c #8C6C42",
"s$	c #003200",
"t$	c #151307",
"u$	c #CDB479",
"v$	c #F9D792",
"w$	c #F09B95",
"x$	c #B500BC",
"y$	c #A800CB",
"z$	c #AC00CD",
"A$	c #AF00C6",
"B$	c #E93CB8",
"C$	c #FF5AAE",
"D$	c #F490A3",
"E$	c #EBB883",
"F$	c #E7B776",
"G$	c #E8B775",
"H$	c #E9B875",
"I$	c #BFA577",
"J$	c #DBB57B",
"K$	c #F1C17B",
"L$	c #F7C67D",
"M$	c #F9C97D",
"N$	c #F9CE7E",
"O$	c #F1CC7D",
"P$	c #F1D08B",
"Q$	c #F7D18B",
"R$	c #F7CE88",
"S$	c #F5C984",
"T$	c #F2C480",
"U$	c #EEC17D",
"V$	c #AD7A4B",
"W$	c #8E6B54",
"X$	c #7D3E00",
"Y$	c #A47D48",
"Z$	c #F4B993",
"`$	c #FF60AC",
" %	c #F64CAF",
".%	c #D914B7",
"+%	c #E334B6",
"@%	c #FC5EB3",
"#%	c #FF5EB1",
"$%	c #DB2587",
"%%	c #E3C1BA",
"&%	c #FDD1C5",
"*%	c #EEB893",
"=%	c #EAB976",
"-%	c #EDBC78",
";%	c #F2C27C",
">%	c #F6C77F",
",%	c #F7C97F",
"'%	c #F9CA7F",
")%	c #F9CB7F",
"!%	c #F9CF7F",
"~%	c #F2CE7F",
"{%	c #ECC280",
"]%	c #F2C682",
"^%	c #F2C582",
"/%	c #F0C380",
"(%	c #EFC27E",
"_%	c #F0C37F",
":%	c #EEC27E",
"<%	c #D3A76A",
"[%	c #9F6D45",
"}%	c #BC8A6C",
"|%	c #F7C8B4",
"1%	c #FC6DA8",
"2%	c #FF5AAD",
"3%	c #FF6BBB",
"4%	c #FE60AE",
"5%	c #9493AF",
"6%	c #52A4B6",
"7%	c #878892",
"8%	c #EAC0B8",
"9%	c #FDDACB",
"0%	c #EDB78C",
"a%	c #EFC47D",
"b%	c #F4CC82",
"c%	c #F8D388",
"d%	c #FBD88C",
"e%	c #FBD589",
"f%	c #FCD185",
"g%	c #F9CE81",
"h%	c #F9D284",
"i%	c #F3D285",
"j%	c #EBC07E",
"k%	c #F2C581",
"l%	c #F1C581",
"m%	c #F0C480",
"n%	c #EFC27F",
"o%	c #FBCE85",
"p%	c #F9CC84",
"q%	c #F5C1A0",
"r%	c #FED8C7",
"s%	c #E89988",
"t%	c #CC819B",
"u%	c #AA9AB2",
"v%	c #AF9FBB",
"w%	c #42A1B1",
"x%	c #00BDC6",
"y%	c #C7C1BC",
"z%	c #FCD8C7",
"A%	c #ECB58A",
"B%	c #EABC78",
"C%	c #F1C981",
"D%	c #F6D388",
"E%	c #F9D88C",
"F%	c #FCDC90",
"G%	c #FCD88B",
"H%	c #FBD386",
"I%	c #FAD185",
"J%	c #F9D083",
"K%	c #F9D385",
"L%	c #F3D286",
"M%	c #F2C882",
"N%	c #F8CE85",
"O%	c #F8CD87",
"P%	c #F8CC88",
"Q%	c #F7CB87",
"R%	c #F7CA85",
"S%	c #F9CA85",
"T%	c #F5C681",
"U%	c #EEBD7C",
"V%	c #EBB77E",
"W%	c #EF8D8D",
"X%	c #FF70B8",
"Y%	c #E47BAE",
"Z%	c #CD87B2",
"`%	c #0D9EAC",
" &	c #25AAB8",
".&	c #E9BABF",
"+&	c #F5C3AD",
"@&	c #EEC187",
"#&	c #F1C77F",
"$&	c #F6D28A",
"%&	c #F9DA91",
"&&	c #FAD98F",
"*&	c #F9D68A",
"=&	c #FAD386",
"-&	c #FAD388",
";&	c #FAD286",
">&	c #F4CD82",
",&	c #F5CC84",
"'&	c #FBD188",
")&	c #FAD08A",
"!&	c #F9CC88",
"~&	c #F7C985",
"{&	c #F7C884",
"]&	c #F7C683",
"^&	c #F3C280",
"/&	c #EDBD79",
"(&	c #EAA97C",
"_&	c #FD66AE",
":&	c #FF63B6",
"<&	c #FF66BA",
"[&	c #FF69BA",
"}&	c #FB6BB5",
"|&	c #FF6DBB",
"1&	c #FF7AB7",
"2&	c #F3B4AA",
"3&	c #EEBE88",
"4&	c #F4CD83",
"5&	c #F8D78E",
"6&	c #FBDD94",
"7&	c #F8D88D",
"8&	c #F8D589",
"9&	c #F8D385",
"0&	c #F9D487",
"a&	c #FBD588",
"b&	c #FAD285",
"c&	c #F4CA7F",
"d&	c #F5CB84",
"e&	c #FCD288",
"f&	c #FCD289",
"g&	c #FACF86",
"h&	c #F8CD85",
"i&	c #F3C580",
"j&	c #EEBE7B",
"k&	c #EEBD7B",
"l&	c #EFBE7C",
"m&	c #F0C07D",
"n&	c #EFA186",
"o&	c #FE60AD",
"p&	c #FF68BC",
"q&	c #FF65B8",
"r&	c #FF68BB",
"s&	c #FF69BC",
"t&	c #FF63B8",
"u&	c #F5AA92",
"v&	c #F5CF83",
"w&	c #F7D287",
"x&	c #F9D68B",
"y&	c #FBD88E",
"z&	c #F8D588",
"A&	c #F9D386",
"B&	c #FAD284",
"C&	c #F9CF81",
"D&	c #F4C87C",
"E&	c #F5CA84",
"F&	c #FCD087",
"G&	c #F8CC83",
"H&	c #F5C981",
"I&	c #EFC17B",
"J&	c #E9B775",
"K&	c #EBBB78",
"L&	c #EEBF7B",
"M&	c #F4C682",
"N&	c #F0C17E",
"O&	c #F2ACA3",
"P&	c #FF84AF",
"Q&	c #FF6DB8",
"R&	c #FF6ABA",
"S&	c #FD82A7",
"T&	c #FAC98B",
"U&	c #FBD78A",
"V&	c #FAD68A",
"W&	c #FAD58A",
"X&	c #FBD488",
"Y&	c #F9D080",
"Z&	c #F8CC7D",
"`&	c #F2C477",
" *	c #F3C884",
".*	c #F5C882",
"+*	c #F3C47E",
"@*	c #F1C37D",
"#*	c #F0C27C",
"$*	c #F0C17B",
"%*	c #F1C47D",
"&*	c #EFC07B",
"**	c #E9B976",
"=*	c #E9B977",
"-*	c #ECBB82",
";*	c #FEDED0",
">*	c #FFE9DA",
",*	c #F3C4A1",
"'*	c #FDDCC4",
")*	c #FFE9DB",
"!*	c #FED7C0",
"~*	c #FBD891",
"{*	c #FBD78B",
"]*	c #FAD589",
"^*	c #FBD286",
"/*	c #FBD084",
"(*	c #F9D285",
"_*	c #F8D386",
":*	c #F7CA7C",
"<*	c #F4C578",
"[*	c #EBBC71",
"}*	c #ECBA78",
"|*	c #EBB976",
"1*	c #E9B876",
"2*	c #F3C77F",
"3*	c #EDBF79",
"4*	c #E1AF6E",
"5*	c #E5B573",
"6*	c #F4C985",
"7*	c #FBD4B6",
"8*	c #FED8BA",
"9*	c #FACFA6",
"0*	c #FFE8D8",
"a*	c #FEDCCA",
"b*	c #FAD796",
"c*	c #F9D38A",
"d*	c #FBCF81",
"e*	c #F9D388",
"f*	c #FAD081",
"g*	c #F9CC7D",
"h*	c #F6C579",
"i*	c #F1BF74",
"j*	c #E5B46C",
"k*	c #EFC17D",
"l*	c #F1C27D",
"m*	c #EEBF7C",
"n*	c #E8B776",
"o*	c #E3B172",
"p*	c #E5B474",
"q*	c #E8B977",
"r*	c #E8B976",
"s*	c #E8B975",
"t*	c #ECC07B",
"u*	c #F8D289",
"v*	c #EFC39B",
"w*	c #FFDBD1",
"x*	c #F5C5BC",
"y*	c #EBBF86",
"z*	c #FFDED0",
"A*	c #FCCDC9",
"B*	c #F5CB8D",
"C*	c #F7CB81",
"D*	c #F6CA7E",
"E*	c #F8CB7F",
"F*	c #F8CD81",
"G*	c #F9D387",
"H*	c #FAD385",
"I*	c #FACD7E",
"J*	c #F9CA7D",
"K*	c #F8C67A",
"L*	c #F3C175",
"M*	c #E7B76C",
"N*	c #EBBC77",
"O*	c #E6B677",
"P*	c #DFAC70",
"Q*	c #DEAC70",
"R*	c #DFAE71",
"S*	c #DFAE6F",
"T*	c #DEAE6C",
"U*	c #E5B673",
"V*	c #F0C581",
"W*	c #F3CB84",
"X*	c #F9D78D",
"Y*	c #CF95A6",
"Z*	c #C249C7",
"`*	c #BE60BB",
" =	c #C79494",
".=	c #D278BE",
"+=	c #C04DC4",
"@=	c #EBB884",
"#=	c #F3C277",
"$=	c #F1C175",
"%=	c #F3C67C",
"&=	c #F4CB81",
"*=	c #F7D388",
"==	c #FBD98D",
"-=	c #F9C97B",
";=	c #F8C87A",
">=	c #F4C375",
",=	c #EBBB6E",
"'=	c #E3B371",
")=	c #EBBC78",
"!=	c #EBBE7B",
"~=	c #E6B874",
"{=	c #E7B874",
"]=	c #E7B873",
"^=	c #EBC07B",
"/=	c #F5CF88",
"(=	c #F6D289",
"_=	c #F6D48C",
":=	c #959A98",
"<=	c #5657AE",
"[=	c #9765B2",
"}=	c #AF9095",
"|=	c #7A14B1",
"1=	c #8718B5",
"2=	c #E9B77F",
"3=	c #EEBD72",
"4=	c #EBBB71",
"5=	c #EDC077",
"6=	c #EFC67C",
"7=	c #F4CE83",
"8=	c #F9D488",
"9=	c #F8CE81",
"0=	c #F7C779",
"a=	c #F8C879",
"b=	c #F9C978",
"c=	c #F7C776",
"d=	c #F0C171",
"e=	c #D2A466",
"f=	c #DDAF6F",
"g=	c #DFB372",
"h=	c #E2B673",
"i=	c #E4B974",
"j=	c #E5BA74",
"k=	c #E5BB74",
"l=	c #E6BC75",
"m=	c #E7BC76",
"n=	c #EBC47D",
"o=	c #F1D18B",
"p=	c #EECE88",
"q=	c #DBBE82",
"r=	c #84A595",
"s=	c #44ABAE",
"t=	c #65B0AE",
"u=	c #6DA09B",
"v=	c #009BA3",
"w=	c #13B2BB",
"x=	c #BEAC7E",
"y=	c #E0B06A",
"z=	c #DEAD69",
"A=	c #E1B46E",
"B=	c #E4BA73",
"C=	c #E9C27A",
"D=	c #EEC87F",
"E=	c #EDC379",
"F=	c #EDBE73",
"G=	c #EFC173",
"H=	c #F1C473",
"I=	c #EEC071",
"  . + @ # $ $ % & * * = - ; > , ' ) ! ~ { ] ^ / ~ ( _ : < [ } | ",
"1 2 3 4 5 6 7 8 9 0 a b c d e f g h i j k l m n o p q r r s t u ",
"v w x 4 y 4 z A B C D E F G H I J K L M k N O P Q R S T U V W ~ ",
"X Y 4 Z `  ...+.@.#.$.d %.&.h *.=.-.;.>.,.'.).!.~.{.].^./.(._.:.",
"<.[.}.|.1.2.3.4.5.c 6.7.8.g 9.0.a.b.c.d.e.f.g.h.i.j.].k.l.m.n.o.",
"* 3 p.q.r.s.t.c u.6 v.w.w.x.y.z.A.B.C.D.E.a.F.G.H.I.J.K.L.M.N.O.",
"P.Q.z R.S.T.U.V.6.W.X.Y.Z.`. +.+++@+#+$+%+&+*+=+-+;+q >+,+'+)+!+",
"@ ~+{+]+^+]+/+(+_+:+<+[+}+|+1+2+2+2+2+3+4+5+6+7+8+9+0+a+b+c+n d+",
"@ W.e+f+g+h+/+7.i+j+k+l+m+n+o+2+2+2+2+3+p+q+r+s+t+u+v+w+x+y+z+A+",
"B+]+C+D+E+F+G+H+I+J+K+L+M+N+O+P+Q+M+o+1+R+S+T+U+V+W+X+Y+Z+U.`+ @",
".@+@@@#@$@%@&@*@=@-@;@>@,@'@)@!@~@{@]@^@M+/@(@_@:@<@[@}@|@1@2@3@",
"4@5@5@6@7@8@9@0@a@b@c@d@e@f@g@h@i@j@k@l@2+m@n@o@p@q@r@}@L s@t@u@",
"v@F+w@x@y@z@A@B@C@D@E@F@G@H@I@J@K@L@M@N@O@P@Q@R@S@T@U@V@W@X@Y@Z@",
"`@ #.#+#@###$#%#&#*#=#-#;#>#,#'#)#!#~#{#]#^#/#(#o+_#:#<#[#}#|#1#",
"2#x z 3#4#5#6#7#8#g 9#0#a#b#c#d#e#f#g#h#i#j#k#l#m#n#o#p#q#r#s#t#",
"u#3 v#3#w#w#x#7#8#y#z#A#B#C#D#E#F#G#H#I#J#K#L#M#N#O#P#Q#R#S#T#U#",
"V##.W#X#Y#Z#`# $.$+$@$#$$$%$&$*$=$-$;$>$,$'$)$!$3+2+~$p#{$]$^$/$",
"V#($_$X#Y#:$<$[$}$|$1$2$3$4$5$6$7$8$9$0$a$b$c$d$e$f$g$h$i$j$k$l$",
"1$m$n$x#o$p$q$r$s$t$u$v$w$x$y$z$A$B$C$D$E$F$G$H$I$J$K$L$M$'+N$O$",
"P$Q$R$S$L T$U$V$W$X$Y$Z$`$ %.%+%@%#%$%%%&%*%=%-%;%>%,%'%)%k$!%~%",
"{%]%^%/%(%_%'$:%<%[%}%|%1%2%3%4%5%6%7%8%9%0%a%b%c%d%e%f%o g%h%i%",
"j%k%l%m%n%'$k%i o%p%q%r%s%t%u%v%w%x%y%z%A%B%C%D%E%F%G%H%I%J%K%L%",
"M%N%N%O%P%Q%5#R%S%T%U%V%W%X%Y%Z%`% &.&+&@&#&$&%&%&&&*&K%=&-&;&>&",
",&'&'&x.)&!&~&{&]&^&/&(&_&:&<&[&}&|&1&2&3&4&5&6&%&7&8&9&0&a&b&c&",
"d&e&f&g&h&i&j&k&l&m&T$n&o&p&q&r&s&r&t&u&v&w&x&y&x&z&z&0&A&B&C&D&",
"E&F&x+G&H&I&J&H$K&L&M&N&O&P&Q&R&|&X%S&T&U&V&W&X&A&9&0&0&h%Y&Z&`&",
" *.*+*@*#*#*$*#*%*&***=*-*;*>*,*'*)*!*~*{*]*^*/*(*_*A&B&C&:*<*[*",
"A@m&}*|*1*r u 2*2*3*4*5*6*7*i@8*9*0*a*b*c*I%d*N.I%e*b&f*g*h*i*j*",
"k*l*m*n*o*p*q*r*s*s*K#t*u*v*w*x*y*z*A*B*C*D*E*F*G*{*H*I*J*K*L*M*",
"N*H.n%O*P*Q*R*S*T*U*V*W*X*Y*Z*`* =.=+=@=#=$=%=&=*===b&-=-=;=>=,=",
"'=)=!=q*U*U*~={=]=^=/=(=_=:=<=[=}=|=1=2=3=4=5=6=7=8=9=0=a=b=c=d=",
"e=f=g=h=i=j=k=l=m=n=o=p=q=r=s=t=u=v=w=x=y=z=A=B=C=D=E=F=G=H=H=I="};
